<svg width="1320" height="289" viewBox="0 0 1320 289" fill="none" xmlns="http://www.w3.org/2000/svg">
<mask id="path-1-outside-1_235_198" maskUnits="userSpaceOnUse" x="-31" y="-32" width="1380" height="354" fill="black">
<rect fill="white" x="-31" y="-32" width="1380" height="354"/>
<path d="M151.39 289.003C137.512 289.003 125.503 286.868 115.362 282.598C105.488 278.061 98.1487 272.19 93.345 264.985L91.3435 274.192C90.8098 277.127 89.2085 279.663 86.5398 281.798C84.138 283.933 81.4693 285 78.5337 285H10.4816C7.546 285 5.2776 283.933 3.67637 281.798C1.80827 279.663 1.14109 277.127 1.67484 274.192L57.7178 11.5906C58.2515 8.65502 59.7193 6.11975 62.1211 3.98477C64.7898 1.8498 67.592 0.782313 70.5276 0.782313H144.584C147.52 0.782313 149.788 1.8498 151.39 3.98477C153.258 6.11975 153.925 8.65502 153.391 11.5906L136.178 91.6519C143.917 85.7808 151.923 81.2439 160.196 78.0415C168.469 74.5722 178.21 72.8375 189.419 72.8375C201.161 72.8375 211.836 74.7056 221.443 78.4418C231.051 82.178 239.057 87.7823 245.462 95.2547C252.133 102.727 256.67 112.334 259.072 124.077C261.741 135.552 261.607 149.163 258.672 164.908C257.604 170.779 256.537 175.983 255.469 180.52C254.669 185.057 253.468 190.394 251.866 196.532C246.262 218.683 238.523 236.563 228.649 250.173C218.774 263.784 207.299 273.658 194.222 279.796C181.146 285.934 166.868 289.003 151.39 289.003ZM129.373 217.348C134.443 217.348 138.446 216.414 141.382 214.546C144.584 212.678 147.12 210.009 148.988 206.54C151.123 203.071 152.991 198.934 154.592 194.13C155.926 190.127 157.127 185.724 158.195 180.92C159.262 176.117 159.929 171.713 160.196 167.71C160.73 162.906 160.73 158.77 160.196 155.301C159.663 151.831 158.195 149.163 155.793 147.295C153.658 145.426 150.055 144.492 144.985 144.492C140.448 144.492 136.578 145.293 133.376 146.894C130.173 148.495 127.505 150.764 125.37 153.699C123.501 156.635 121.9 160.238 120.566 164.508C118.965 170.379 117.764 175.316 116.963 179.319C116.163 183.055 115.362 187.992 114.561 194.13C113.761 198.934 113.627 203.071 114.161 206.54C114.695 210.009 116.163 212.678 118.564 214.546C120.966 216.414 124.569 217.348 129.373 217.348ZM317.98 289.003C306.504 289.003 295.829 287.402 285.955 284.199C276.348 280.73 268.208 275.393 261.536 268.187C255.131 260.715 250.728 251.107 248.326 239.365C245.924 227.623 246.058 213.345 248.727 196.532C250.061 190.394 251.128 185.057 251.929 180.52C252.996 175.983 254.197 170.779 255.532 164.908C259.535 149.163 264.872 135.552 271.544 124.077C278.216 112.334 285.955 102.727 294.762 95.2547C303.835 87.7823 313.843 82.178 324.785 78.4418C335.727 74.7056 347.469 72.8375 360.012 72.8375C375.223 72.8375 386.966 74.7056 395.239 78.4418C403.512 82.178 410.184 86.9817 415.254 92.8528L416.455 87.6488C416.989 84.7133 418.457 82.178 420.858 80.043C423.527 77.908 426.329 76.8406 429.265 76.8406H496.917C499.852 76.8406 502.121 77.908 503.722 80.043C505.59 82.178 506.257 84.7133 505.723 87.6488L466.093 274.192C465.559 277.127 463.958 279.663 461.289 281.798C458.888 283.933 456.219 285 453.283 285H385.231C382.296 285 379.894 283.933 378.026 281.798C376.424 279.663 375.891 277.127 376.424 274.192L378.426 264.985C370.42 272.19 361.746 278.061 352.406 282.598C343.332 286.868 331.857 289.003 317.98 289.003ZM362.414 217.348C367.484 217.348 371.621 216.414 374.823 214.546C378.026 212.678 380.561 210.009 382.429 206.54C384.564 203.071 386.299 198.934 387.633 194.13C389.234 187.992 390.435 183.055 391.236 179.319C392.036 175.316 392.837 170.379 393.638 164.508C394.438 160.238 394.438 156.635 393.638 153.699C392.837 150.764 391.102 148.495 388.434 146.894C386.032 145.293 382.562 144.492 378.026 144.492C373.222 144.492 369.219 145.426 366.016 147.295C362.814 149.163 360.279 151.831 358.411 155.301C356.542 158.77 354.808 162.906 353.207 167.71C352.139 171.713 351.072 176.117 350.004 180.92C348.937 185.724 348.136 190.127 347.602 194.13C347.069 198.934 346.935 203.071 347.202 206.54C347.736 210.009 349.204 212.678 351.605 214.546C354.007 216.414 357.61 217.348 362.414 217.348ZM554.223 289.003C542.748 289.003 532.073 287.402 522.199 284.199C512.591 280.73 504.452 275.393 497.78 268.187C491.375 260.715 486.972 251.107 484.57 239.365C482.168 227.623 482.301 213.345 484.97 196.532C486.304 190.394 487.372 185.057 488.172 180.52C489.24 175.983 490.441 170.779 491.775 164.908C495.778 149.163 500.982 135.552 507.387 124.077C514.059 112.334 521.798 102.727 530.605 95.2547C539.412 87.7823 549.019 82.178 559.427 78.4418C569.835 74.7056 580.777 72.8375 592.252 72.8375C603.461 72.8375 613.869 74.5722 623.476 78.0415C633.35 81.2439 640.823 85.7808 645.893 91.6519L662.706 11.5906C663.24 8.65502 664.708 6.11975 667.109 3.98477C669.778 1.8498 672.58 0.782313 675.516 0.782313H749.573C752.508 0.782313 754.777 1.8498 756.378 3.98477C758.246 6.11975 758.913 8.65502 758.379 11.5906L702.336 274.192C701.803 277.127 700.202 279.663 697.533 281.798C695.131 283.933 692.462 285 689.527 285H621.475C618.539 285 616.137 283.933 614.269 281.798C612.668 279.663 612.134 277.127 612.668 274.192L614.669 264.985C606.663 272.19 597.99 278.061 588.649 282.598C579.576 286.868 568.1 289.003 554.223 289.003ZM598.657 217.348C603.728 217.348 607.864 216.414 611.067 214.546C614.269 212.678 616.804 210.009 618.672 206.54C620.807 203.071 622.542 198.934 623.876 194.13C625.478 187.992 626.679 183.055 627.479 179.319C628.28 175.316 629.08 170.379 629.881 164.508C630.682 160.238 630.682 156.635 629.881 153.699C629.08 150.764 627.346 148.495 624.677 146.894C622.275 145.293 618.806 144.492 614.269 144.492C609.465 144.492 605.462 145.426 602.26 147.295C599.057 149.163 596.522 151.831 594.654 155.301C592.786 158.77 591.051 162.906 589.45 167.71C588.383 171.713 587.315 176.117 586.248 180.92C585.18 185.724 584.379 190.127 583.846 194.13C583.312 198.934 583.179 203.071 583.445 206.54C583.979 210.009 585.447 212.678 587.849 214.546C590.251 216.414 593.853 217.348 598.657 217.348ZM790.857 289.003C779.382 289.003 768.707 287.402 758.833 284.199C749.225 280.73 741.086 275.393 734.414 268.187C728.009 260.715 723.606 251.107 721.204 239.365C718.802 227.623 718.936 213.345 721.604 196.532C722.939 190.394 724.006 185.057 724.807 180.52C725.874 175.983 727.075 170.779 728.41 164.908C732.413 149.163 737.75 135.552 744.422 124.077C751.094 112.334 758.833 102.727 767.64 95.2547C776.713 87.7823 786.721 82.178 797.663 78.4418C808.604 74.7056 820.347 72.8375 832.89 72.8375C848.101 72.8375 859.844 74.7056 868.117 78.4418C876.39 82.178 883.061 86.9817 888.132 92.8528L889.333 87.6488C889.867 84.7133 891.334 82.178 893.736 80.043C896.405 77.908 899.207 76.8406 902.143 76.8406H969.794C972.73 76.8406 974.998 77.908 976.6 80.043C978.468 82.178 979.135 84.7133 978.601 87.6488L938.971 274.192C938.437 277.127 936.836 279.663 934.167 281.798C931.765 283.933 929.097 285 926.161 285H858.109C855.173 285 852.771 283.933 850.903 281.798C849.302 279.663 848.768 277.127 849.302 274.192L851.304 264.985C843.298 272.19 834.624 278.061 825.284 282.598C816.21 286.868 804.735 289.003 790.857 289.003ZM835.291 217.348C840.362 217.348 844.498 216.414 847.701 214.546C850.903 212.678 853.439 210.009 855.307 206.54C857.442 203.071 859.176 198.934 860.511 194.13C862.112 187.992 863.313 183.055 864.113 179.319C864.914 175.316 865.715 170.379 866.515 164.508C867.316 160.238 867.316 156.635 866.515 153.699C865.715 150.764 863.98 148.495 861.311 146.894C858.909 145.293 855.44 144.492 850.903 144.492C846.1 144.492 842.097 145.426 838.894 147.295C835.692 149.163 833.156 151.831 831.288 155.301C829.42 158.77 827.686 162.906 826.084 167.71C825.017 171.713 823.949 176.117 822.882 180.92C821.814 185.724 821.014 190.127 820.48 194.13C819.946 198.934 819.813 203.071 820.08 206.54C820.613 210.009 822.081 212.678 824.483 214.546C826.885 216.414 830.488 217.348 835.291 217.348ZM955.846 285C952.911 285 950.642 283.933 949.041 281.798C947.173 279.663 946.506 277.127 947.039 274.192L986.67 87.6488C987.204 84.7133 988.805 82.178 991.473 80.043C994.142 77.908 996.944 76.8406 999.88 76.8406H1065.93C1068.87 76.8406 1071.13 77.908 1072.74 80.043C1074.34 82.178 1074.87 84.7133 1074.34 87.6488L1071.53 100.859C1075.54 96.8559 1080.21 92.7194 1085.55 88.4495C1090.88 83.9127 1097.42 80.1765 1105.16 77.2409C1112.9 74.3053 1122.24 72.8375 1133.18 72.8375C1149.19 72.8375 1161.6 75.9065 1170.41 82.0446C1179.48 87.9157 1185.89 95.7884 1189.63 105.663C1197.9 96.3222 1207.11 88.5829 1217.25 82.4449C1227.39 76.04 1239.53 72.8375 1253.67 72.8375C1268.62 72.8375 1281.16 75.9065 1291.3 82.0446C1301.71 88.1826 1308.92 97.7899 1312.92 110.867C1317.19 123.943 1317.06 141.023 1312.52 162.106L1288.5 274.192C1287.97 277.127 1286.37 279.663 1283.7 281.798C1281.3 283.933 1278.63 285 1275.69 285H1205.24C1202.3 285 1199.9 283.933 1198.03 281.798C1196.43 279.663 1195.9 277.127 1196.43 274.192L1220.05 164.107C1220.85 159.837 1220.85 156.235 1220.05 153.299C1219.51 150.364 1218.18 148.229 1216.05 146.894C1214.18 145.293 1211.51 144.492 1208.04 144.492C1204.84 144.492 1201.9 145.293 1199.23 146.894C1196.56 148.229 1194.3 150.364 1192.43 153.299C1190.56 156.235 1189.22 159.837 1188.42 164.107L1164.81 274.192C1164.27 277.127 1162.67 279.663 1160 281.798C1157.6 283.933 1154.93 285 1152 285H1081.54C1078.61 285 1076.21 283.933 1074.34 281.798C1072.74 279.663 1072.2 277.127 1072.74 274.192L1096.35 164.107C1097.15 159.837 1097.15 156.235 1096.35 153.299C1095.82 150.364 1094.49 148.229 1092.35 146.894C1090.48 145.293 1087.81 144.492 1084.34 144.492C1081.14 144.492 1078.07 145.293 1075.14 146.894C1072.47 148.495 1070.2 150.764 1068.33 153.699C1066.46 156.368 1065.13 159.837 1064.33 164.107L1040.71 274.192C1040.18 277.127 1038.58 279.663 1035.91 281.798C1033.51 283.933 1030.84 285 1027.9 285H955.846Z"/>
</mask>
<path d="M151.39 289.003C137.512 289.003 125.503 286.868 115.362 282.598C105.488 278.061 98.1487 272.19 93.345 264.985L91.3435 274.192C90.8098 277.127 89.2085 279.663 86.5398 281.798C84.138 283.933 81.4693 285 78.5337 285H10.4816C7.546 285 5.2776 283.933 3.67637 281.798C1.80827 279.663 1.14109 277.127 1.67484 274.192L57.7178 11.5906C58.2515 8.65502 59.7193 6.11975 62.1211 3.98477C64.7898 1.8498 67.592 0.782313 70.5276 0.782313H144.584C147.52 0.782313 149.788 1.8498 151.39 3.98477C153.258 6.11975 153.925 8.65502 153.391 11.5906L136.178 91.6519C143.917 85.7808 151.923 81.2439 160.196 78.0415C168.469 74.5722 178.21 72.8375 189.419 72.8375C201.161 72.8375 211.836 74.7056 221.443 78.4418C231.051 82.178 239.057 87.7823 245.462 95.2547C252.133 102.727 256.67 112.334 259.072 124.077C261.741 135.552 261.607 149.163 258.672 164.908C257.604 170.779 256.537 175.983 255.469 180.52C254.669 185.057 253.468 190.394 251.866 196.532C246.262 218.683 238.523 236.563 228.649 250.173C218.774 263.784 207.299 273.658 194.222 279.796C181.146 285.934 166.868 289.003 151.39 289.003ZM129.373 217.348C134.443 217.348 138.446 216.414 141.382 214.546C144.584 212.678 147.12 210.009 148.988 206.54C151.123 203.071 152.991 198.934 154.592 194.13C155.926 190.127 157.127 185.724 158.195 180.92C159.262 176.117 159.929 171.713 160.196 167.71C160.73 162.906 160.73 158.77 160.196 155.301C159.663 151.831 158.195 149.163 155.793 147.295C153.658 145.426 150.055 144.492 144.985 144.492C140.448 144.492 136.578 145.293 133.376 146.894C130.173 148.495 127.505 150.764 125.37 153.699C123.501 156.635 121.9 160.238 120.566 164.508C118.965 170.379 117.764 175.316 116.963 179.319C116.163 183.055 115.362 187.992 114.561 194.13C113.761 198.934 113.627 203.071 114.161 206.54C114.695 210.009 116.163 212.678 118.564 214.546C120.966 216.414 124.569 217.348 129.373 217.348ZM317.98 289.003C306.504 289.003 295.829 287.402 285.955 284.199C276.348 280.73 268.208 275.393 261.536 268.187C255.131 260.715 250.728 251.107 248.326 239.365C245.924 227.623 246.058 213.345 248.727 196.532C250.061 190.394 251.128 185.057 251.929 180.52C252.996 175.983 254.197 170.779 255.532 164.908C259.535 149.163 264.872 135.552 271.544 124.077C278.216 112.334 285.955 102.727 294.762 95.2547C303.835 87.7823 313.843 82.178 324.785 78.4418C335.727 74.7056 347.469 72.8375 360.012 72.8375C375.223 72.8375 386.966 74.7056 395.239 78.4418C403.512 82.178 410.184 86.9817 415.254 92.8528L416.455 87.6488C416.989 84.7133 418.457 82.178 420.858 80.043C423.527 77.908 426.329 76.8406 429.265 76.8406H496.917C499.852 76.8406 502.121 77.908 503.722 80.043C505.59 82.178 506.257 84.7133 505.723 87.6488L466.093 274.192C465.559 277.127 463.958 279.663 461.289 281.798C458.888 283.933 456.219 285 453.283 285H385.231C382.296 285 379.894 283.933 378.026 281.798C376.424 279.663 375.891 277.127 376.424 274.192L378.426 264.985C370.42 272.19 361.746 278.061 352.406 282.598C343.332 286.868 331.857 289.003 317.98 289.003ZM362.414 217.348C367.484 217.348 371.621 216.414 374.823 214.546C378.026 212.678 380.561 210.009 382.429 206.54C384.564 203.071 386.299 198.934 387.633 194.13C389.234 187.992 390.435 183.055 391.236 179.319C392.036 175.316 392.837 170.379 393.638 164.508C394.438 160.238 394.438 156.635 393.638 153.699C392.837 150.764 391.102 148.495 388.434 146.894C386.032 145.293 382.562 144.492 378.026 144.492C373.222 144.492 369.219 145.426 366.016 147.295C362.814 149.163 360.279 151.831 358.411 155.301C356.542 158.77 354.808 162.906 353.207 167.71C352.139 171.713 351.072 176.117 350.004 180.92C348.937 185.724 348.136 190.127 347.602 194.13C347.069 198.934 346.935 203.071 347.202 206.54C347.736 210.009 349.204 212.678 351.605 214.546C354.007 216.414 357.61 217.348 362.414 217.348ZM554.223 289.003C542.748 289.003 532.073 287.402 522.199 284.199C512.591 280.73 504.452 275.393 497.78 268.187C491.375 260.715 486.972 251.107 484.57 239.365C482.168 227.623 482.301 213.345 484.97 196.532C486.304 190.394 487.372 185.057 488.172 180.52C489.24 175.983 490.441 170.779 491.775 164.908C495.778 149.163 500.982 135.552 507.387 124.077C514.059 112.334 521.798 102.727 530.605 95.2547C539.412 87.7823 549.019 82.178 559.427 78.4418C569.835 74.7056 580.777 72.8375 592.252 72.8375C603.461 72.8375 613.869 74.5722 623.476 78.0415C633.35 81.2439 640.823 85.7808 645.893 91.6519L662.706 11.5906C663.24 8.65502 664.708 6.11975 667.109 3.98477C669.778 1.8498 672.58 0.782313 675.516 0.782313H749.573C752.508 0.782313 754.777 1.8498 756.378 3.98477C758.246 6.11975 758.913 8.65502 758.379 11.5906L702.336 274.192C701.803 277.127 700.202 279.663 697.533 281.798C695.131 283.933 692.462 285 689.527 285H621.475C618.539 285 616.137 283.933 614.269 281.798C612.668 279.663 612.134 277.127 612.668 274.192L614.669 264.985C606.663 272.19 597.99 278.061 588.649 282.598C579.576 286.868 568.1 289.003 554.223 289.003ZM598.657 217.348C603.728 217.348 607.864 216.414 611.067 214.546C614.269 212.678 616.804 210.009 618.672 206.54C620.807 203.071 622.542 198.934 623.876 194.13C625.478 187.992 626.679 183.055 627.479 179.319C628.28 175.316 629.08 170.379 629.881 164.508C630.682 160.238 630.682 156.635 629.881 153.699C629.08 150.764 627.346 148.495 624.677 146.894C622.275 145.293 618.806 144.492 614.269 144.492C609.465 144.492 605.462 145.426 602.26 147.295C599.057 149.163 596.522 151.831 594.654 155.301C592.786 158.77 591.051 162.906 589.45 167.71C588.383 171.713 587.315 176.117 586.248 180.92C585.18 185.724 584.379 190.127 583.846 194.13C583.312 198.934 583.179 203.071 583.445 206.54C583.979 210.009 585.447 212.678 587.849 214.546C590.251 216.414 593.853 217.348 598.657 217.348ZM790.857 289.003C779.382 289.003 768.707 287.402 758.833 284.199C749.225 280.73 741.086 275.393 734.414 268.187C728.009 260.715 723.606 251.107 721.204 239.365C718.802 227.623 718.936 213.345 721.604 196.532C722.939 190.394 724.006 185.057 724.807 180.52C725.874 175.983 727.075 170.779 728.41 164.908C732.413 149.163 737.75 135.552 744.422 124.077C751.094 112.334 758.833 102.727 767.64 95.2547C776.713 87.7823 786.721 82.178 797.663 78.4418C808.604 74.7056 820.347 72.8375 832.89 72.8375C848.101 72.8375 859.844 74.7056 868.117 78.4418C876.39 82.178 883.061 86.9817 888.132 92.8528L889.333 87.6488C889.867 84.7133 891.334 82.178 893.736 80.043C896.405 77.908 899.207 76.8406 902.143 76.8406H969.794C972.73 76.8406 974.998 77.908 976.6 80.043C978.468 82.178 979.135 84.7133 978.601 87.6488L938.971 274.192C938.437 277.127 936.836 279.663 934.167 281.798C931.765 283.933 929.097 285 926.161 285H858.109C855.173 285 852.771 283.933 850.903 281.798C849.302 279.663 848.768 277.127 849.302 274.192L851.304 264.985C843.298 272.19 834.624 278.061 825.284 282.598C816.21 286.868 804.735 289.003 790.857 289.003ZM835.291 217.348C840.362 217.348 844.498 216.414 847.701 214.546C850.903 212.678 853.439 210.009 855.307 206.54C857.442 203.071 859.176 198.934 860.511 194.13C862.112 187.992 863.313 183.055 864.113 179.319C864.914 175.316 865.715 170.379 866.515 164.508C867.316 160.238 867.316 156.635 866.515 153.699C865.715 150.764 863.98 148.495 861.311 146.894C858.909 145.293 855.44 144.492 850.903 144.492C846.1 144.492 842.097 145.426 838.894 147.295C835.692 149.163 833.156 151.831 831.288 155.301C829.42 158.77 827.686 162.906 826.084 167.71C825.017 171.713 823.949 176.117 822.882 180.92C821.814 185.724 821.014 190.127 820.48 194.13C819.946 198.934 819.813 203.071 820.08 206.54C820.613 210.009 822.081 212.678 824.483 214.546C826.885 216.414 830.488 217.348 835.291 217.348ZM955.846 285C952.911 285 950.642 283.933 949.041 281.798C947.173 279.663 946.506 277.127 947.039 274.192L986.67 87.6488C987.204 84.7133 988.805 82.178 991.473 80.043C994.142 77.908 996.944 76.8406 999.88 76.8406H1065.93C1068.87 76.8406 1071.13 77.908 1072.74 80.043C1074.34 82.178 1074.87 84.7133 1074.34 87.6488L1071.53 100.859C1075.54 96.8559 1080.21 92.7194 1085.55 88.4495C1090.88 83.9127 1097.42 80.1765 1105.16 77.2409C1112.9 74.3053 1122.24 72.8375 1133.18 72.8375C1149.19 72.8375 1161.6 75.9065 1170.41 82.0446C1179.48 87.9157 1185.89 95.7884 1189.63 105.663C1197.9 96.3222 1207.11 88.5829 1217.25 82.4449C1227.39 76.04 1239.53 72.8375 1253.67 72.8375C1268.62 72.8375 1281.16 75.9065 1291.3 82.0446C1301.71 88.1826 1308.92 97.7899 1312.92 110.867C1317.19 123.943 1317.06 141.023 1312.52 162.106L1288.5 274.192C1287.97 277.127 1286.37 279.663 1283.7 281.798C1281.3 283.933 1278.63 285 1275.69 285H1205.24C1202.3 285 1199.9 283.933 1198.03 281.798C1196.43 279.663 1195.9 277.127 1196.43 274.192L1220.05 164.107C1220.85 159.837 1220.85 156.235 1220.05 153.299C1219.51 150.364 1218.18 148.229 1216.05 146.894C1214.18 145.293 1211.51 144.492 1208.04 144.492C1204.84 144.492 1201.9 145.293 1199.23 146.894C1196.56 148.229 1194.3 150.364 1192.43 153.299C1190.56 156.235 1189.22 159.837 1188.42 164.107L1164.81 274.192C1164.27 277.127 1162.67 279.663 1160 281.798C1157.6 283.933 1154.93 285 1152 285H1081.54C1078.61 285 1076.21 283.933 1074.34 281.798C1072.74 279.663 1072.2 277.127 1072.74 274.192L1096.35 164.107C1097.15 159.837 1097.15 156.235 1096.35 153.299C1095.82 150.364 1094.49 148.229 1092.35 146.894C1090.48 145.293 1087.81 144.492 1084.34 144.492C1081.14 144.492 1078.07 145.293 1075.14 146.894C1072.47 148.495 1070.2 150.764 1068.33 153.699C1066.46 156.368 1065.13 159.837 1064.33 164.107L1040.71 274.192C1040.18 277.127 1038.58 279.663 1035.91 281.798C1033.51 283.933 1030.84 285 1027.9 285H955.846Z" fill="white"/>
<path d="M115.362 282.598L102.002 311.676L102.47 311.891L102.944 312.09L115.362 282.598ZM93.345 264.985L119.971 247.234L78.1074 184.439L62.0754 258.187L93.345 264.985ZM91.3435 274.192L60.0739 267.394L59.9576 267.929L59.8597 268.467L91.3435 274.192ZM86.5398 281.798L66.5496 256.81L65.901 257.329L65.2802 257.88L86.5398 281.798ZM3.67637 281.798L29.2764 262.598L28.5529 261.633L27.7588 260.725L3.67637 281.798ZM1.67484 274.192L-29.6204 267.513L-29.722 267.989L-29.809 268.467L1.67484 274.192ZM57.7178 11.5906L89.013 18.2695L89.1146 17.7936L89.2016 17.315L57.7178 11.5906ZM62.1211 3.98477L42.1309 -21.003L41.4823 -20.4841L40.8615 -19.9323L62.1211 3.98477ZM151.39 3.98477L125.79 23.1848L126.513 24.1494L127.307 25.0569L151.39 3.98477ZM153.391 11.5906L184.676 18.3169L184.783 17.8175L184.875 17.315L153.391 11.5906ZM136.178 91.6519L104.893 84.9256L86.7489 169.316L155.518 117.146L136.178 91.6519ZM160.196 78.0415L171.748 107.884L172.162 107.723L172.572 107.552L160.196 78.0415ZM221.443 78.4418L209.845 108.266L209.845 108.266L221.443 78.4418ZM245.462 95.2547L221.165 116.08L221.376 116.326L221.592 116.567L245.462 95.2547ZM259.072 124.077L227.721 130.489L227.807 130.909L227.904 131.325L259.072 124.077ZM258.672 164.908L227.214 159.043L227.201 159.113L227.188 159.184L258.672 164.908ZM255.469 180.52L224.32 173.191L224.113 174.07L223.956 174.959L255.469 180.52ZM251.866 196.532L220.903 188.455L220.873 188.569L220.844 188.683L251.866 196.532ZM228.649 250.173L254.55 268.965L254.55 268.965L228.649 250.173ZM194.222 279.796L207.819 308.764L194.222 279.796ZM141.382 214.546L125.258 186.905L124.724 187.217L124.202 187.549L141.382 214.546ZM148.988 206.54L121.735 189.769L121.251 190.555L120.813 191.369L148.988 206.54ZM154.592 194.13L124.234 184.011L124.234 184.011L154.592 194.13ZM158.195 180.92L126.957 173.978L126.957 173.979L158.195 180.92ZM160.196 167.71L128.392 164.176L128.314 164.878L128.267 165.582L160.196 167.71ZM160.196 155.301L128.568 160.166L128.568 160.167L160.196 155.301ZM155.793 147.295L134.721 171.377L135.417 171.986L136.147 172.554L155.793 147.295ZM133.376 146.894L119.065 118.273L119.065 118.273L133.376 146.894ZM125.37 153.699L99.49 134.878L98.9057 135.681L98.3724 136.519L125.37 153.699ZM120.566 164.508L90.0225 154.963L89.8477 155.522L89.6935 156.088L120.566 164.508ZM116.963 179.319L148.253 186.024L148.299 185.81L148.342 185.595L116.963 179.319ZM114.561 194.13L146.126 199.391L146.219 198.832L146.293 198.269L114.561 194.13ZM118.564 214.546L98.9182 239.805L98.9183 239.805L118.564 214.546ZM151.39 257.003C140.704 257.003 133.109 255.35 127.78 253.106L102.944 312.09C117.897 318.387 134.321 321.003 151.39 321.003V257.003ZM128.722 253.521C122.871 250.832 120.744 248.394 119.971 247.234L66.7194 282.735C75.5533 295.986 88.1043 305.29 102.002 311.676L128.722 253.521ZM62.0754 258.187L60.0739 267.394L122.613 280.989L124.615 271.782L62.0754 258.187ZM59.8597 268.467C60.3305 265.878 61.3076 263.391 62.6866 261.207C64.0307 259.079 65.4886 257.659 66.5496 256.81L106.53 306.785C114.296 300.573 120.713 291.547 122.827 279.916L59.8597 268.467ZM65.2802 257.88C66.5215 256.777 68.3693 255.481 70.8524 254.488C73.3794 253.477 76.0192 253 78.5337 253V317C90.0732 317 100.14 312.523 107.799 305.715L65.2802 257.88ZM78.5337 253H10.4816V317H78.5337V253ZM10.4816 253C12.9247 253 16.4072 253.458 20.2041 255.245C24.1021 257.08 27.1499 259.762 29.2764 262.598L-21.9236 300.998C-13.614 312.077 -1.36374 317 10.4816 317V253ZM27.7588 260.725C29.8082 263.068 31.6952 266.252 32.7213 270.151C33.7337 273.998 33.6135 277.414 33.1587 279.916L-29.809 268.467C-31.9826 280.422 -29.0696 292.969 -20.4061 302.87L27.7588 260.725ZM32.9701 280.871L89.013 18.2695L26.4225 4.91173L-29.6204 267.513L32.9701 280.871ZM89.2016 17.315C88.8211 19.4079 88.0612 21.5366 86.9125 23.5206C85.7785 25.4794 84.4852 26.9201 83.3808 27.9019L40.8615 -19.9323C33.5539 -13.4367 28.1484 -4.66321 26.2339 5.86624L89.2016 17.315ZM82.1114 28.9725C81.2084 29.695 79.7183 30.6857 77.6161 31.4865C75.4587 32.3084 73.0373 32.7823 70.5276 32.7823V-31.2177C59.1683 -31.2177 49.4986 -26.8972 42.1309 -21.003L82.1114 28.9725ZM70.5276 32.7823H144.584V-31.2177H70.5276V32.7823ZM144.584 32.7823C142.141 32.7823 138.659 32.3239 134.862 30.5371C130.964 28.7027 127.916 26.0201 125.79 23.1848L176.99 -15.2152C168.68 -26.2947 156.43 -31.2177 144.584 -31.2177V32.7823ZM127.307 25.0569C125.258 22.7148 123.371 19.5305 122.345 15.6312C121.332 11.7842 121.452 8.36785 121.907 5.86624L184.875 17.315C187.048 5.36011 184.135 -7.18618 175.472 -17.0873L127.307 25.0569ZM122.106 4.8643L104.893 84.9256L167.463 98.3782L184.676 18.3169L122.106 4.8643ZM155.518 117.146C161.101 112.911 166.512 109.91 171.748 107.884L148.644 48.1993C137.334 52.5775 126.733 58.6508 116.837 66.1578L155.518 117.146ZM172.572 107.552C176.08 106.08 181.435 104.838 189.419 104.838V40.8375C174.985 40.8375 160.858 43.064 147.821 48.5313L172.572 107.552ZM189.419 104.838C197.74 104.838 204.413 106.153 209.845 108.266L233.041 48.6176C219.259 43.2577 204.582 40.8375 189.419 40.8375V104.838ZM209.845 108.266C214.784 110.187 218.352 112.798 221.165 116.08L269.758 74.4293C259.761 62.7665 247.317 54.1692 233.041 48.6176L209.845 108.266ZM221.592 116.567C223.819 119.061 226.229 123.196 227.721 130.489L290.423 117.664C287.111 101.473 280.448 86.3927 269.332 73.9422L221.592 116.567ZM227.904 131.325C229.281 137.246 229.614 146.171 227.214 159.043L290.13 170.773C293.601 152.154 294.201 133.859 290.24 116.828L227.904 131.325ZM227.188 159.184C226.193 164.658 225.233 169.309 224.32 173.191L286.619 187.849C287.84 182.658 289.016 176.901 290.156 170.632L227.188 159.184ZM223.956 174.959C223.348 178.403 222.361 182.863 220.903 188.455L282.83 204.61C284.574 197.925 285.989 191.711 286.982 186.081L223.956 174.959ZM220.844 188.683C215.901 208.219 209.546 222.01 202.747 231.382L254.55 268.965C267.5 251.115 276.623 229.146 282.889 204.381L220.844 188.683ZM202.747 231.382C195.524 241.338 188.057 247.34 180.625 250.828L207.819 308.764C226.541 299.976 242.025 286.23 254.55 268.965L202.747 231.382ZM180.625 250.828C172.103 254.829 162.51 257.003 151.39 257.003V321.003C171.226 321.003 190.189 317.039 207.819 308.764L180.625 250.828ZM129.373 249.348C137.901 249.348 148.652 247.85 158.562 241.543L124.202 187.549C126.274 186.23 128.016 185.693 128.907 185.485C129.766 185.284 130.004 185.348 129.373 185.348V249.348ZM157.506 242.187C166.119 237.162 172.685 230.027 177.163 221.711L120.813 191.369C121.13 190.779 121.664 189.967 122.485 189.103C123.315 188.23 124.267 187.483 125.258 186.905L157.506 242.187ZM176.241 223.311C179.929 217.318 182.751 210.845 184.95 204.25L124.234 184.011C123.23 187.023 122.317 188.823 121.735 189.769L176.241 223.311ZM184.95 204.25C186.683 199.049 188.165 193.568 189.433 187.862L126.957 173.979C126.09 177.88 125.169 181.206 124.234 184.011L184.95 204.25ZM189.433 187.862C190.777 181.814 191.73 175.776 192.125 169.839L128.267 165.582C128.129 167.651 127.748 170.419 126.957 173.978L189.433 187.862ZM192.001 171.244C192.737 164.614 192.912 157.506 191.824 150.435L128.568 160.167C128.548 160.037 128.597 160.287 128.597 161.005C128.597 161.716 128.55 162.758 128.392 164.176L192.001 171.244ZM191.824 150.435C190.253 140.22 185.284 129.692 175.439 122.035L136.147 172.554C133.906 170.811 132.019 168.597 130.656 166.119C129.333 163.713 128.785 161.578 128.568 160.166L191.824 150.435ZM176.865 123.212C165.786 113.518 152.318 112.492 144.985 112.492V176.492C145.716 176.492 145.032 176.577 143.459 176.169C141.883 175.76 138.387 174.585 134.721 171.377L176.865 123.212ZM144.985 112.492C136.771 112.492 127.737 113.937 119.065 118.273L147.686 175.516C145.42 176.649 144.125 176.492 144.985 176.492V112.492ZM119.065 118.273C111.211 122.199 104.597 127.856 99.49 134.878L151.249 172.521C150.879 173.03 150.364 173.611 149.697 174.178C149.028 174.747 148.334 175.192 147.687 175.516L119.065 118.273ZM98.3724 136.519C94.6319 142.397 91.9714 148.727 90.0225 154.963L151.109 174.053C151.829 171.749 152.371 170.873 152.367 170.879L98.3724 136.519ZM89.6935 156.088C87.9827 162.361 86.5804 168.064 85.5846 173.043L148.342 185.595C148.947 182.568 149.947 178.397 151.438 172.927L89.6935 156.088ZM85.6735 172.614C84.6149 177.554 83.6835 183.449 82.8301 189.992L146.293 198.269C147.04 192.536 147.71 188.556 148.253 186.024L85.6735 172.614ZM82.9967 188.87C81.8373 195.826 81.3259 203.559 82.5331 211.406L145.789 201.674C145.87 202.199 145.83 202.303 145.844 201.867C145.858 201.438 145.919 200.631 146.126 199.391L82.9967 188.87ZM82.5331 211.406C84.1047 221.621 89.0735 232.148 98.9182 239.805L138.21 189.287C140.451 191.029 142.338 193.244 143.701 195.722C145.024 198.128 145.572 200.263 145.789 201.674L82.5331 211.406ZM98.9183 239.805C109.364 247.93 121.304 249.348 129.373 249.348V185.348C128.94 185.348 129.646 185.295 131.099 185.672C132.6 186.061 135.292 187.017 138.21 189.287L98.9183 239.805ZM285.955 284.199L275.086 314.297L275.582 314.476L276.083 314.639L285.955 284.199ZM261.536 268.187L237.24 289.012L237.639 289.478L238.056 289.928L261.536 268.187ZM248.326 239.365L279.677 232.952L248.326 239.365ZM248.727 196.532L217.457 189.734L217.264 190.62L217.122 191.516L248.727 196.532ZM251.929 180.52L220.78 173.191L220.573 174.07L220.416 174.959L251.929 180.52ZM255.532 164.908L224.518 157.023L224.418 157.418L224.328 157.816L255.532 164.908ZM271.544 124.077L299.208 140.161L299.288 140.023L299.367 139.885L271.544 124.077ZM294.762 95.2547L274.419 70.5529L274.238 70.7023L274.059 70.8544L294.762 95.2547ZM324.785 78.4418L335.125 108.725L335.125 108.725L324.785 78.4418ZM395.239 78.4418L382.068 107.606L382.068 107.606L395.239 78.4418ZM415.254 92.8528L391.036 113.769L432.255 161.496L446.435 100.048L415.254 92.8528ZM416.455 87.6488L447.636 94.8443L447.804 94.1123L447.939 93.3732L416.455 87.6488ZM420.858 80.043L400.868 55.0552L400.22 55.5741L399.599 56.1259L420.858 80.043ZM503.722 80.043L478.122 99.243L478.845 100.208L479.639 101.115L503.722 80.043ZM505.723 87.6488L537.025 94.2987L537.123 93.8373L537.207 93.3733L505.723 87.6488ZM466.093 274.192L434.792 267.542L434.694 268.003L434.609 268.467L466.093 274.192ZM461.289 281.798L441.299 256.81L440.651 257.329L440.03 257.88L461.289 281.798ZM378.026 281.798L352.426 300.998L353.149 301.962L353.943 302.87L378.026 281.798ZM376.424 274.192L345.155 267.394L345.038 267.929L344.941 268.467L376.424 274.192ZM378.426 264.985L409.696 271.782L430.774 174.819L357.019 241.199L378.426 264.985ZM352.406 282.598L366.031 311.552L366.21 311.468L366.387 311.382L352.406 282.598ZM382.429 206.54L355.176 189.769L354.692 190.555L354.254 191.369L382.429 206.54ZM387.633 194.13L418.466 202.695L418.533 202.452L418.597 202.208L387.633 194.13ZM391.236 179.319L422.525 186.024L422.571 185.81L422.614 185.595L391.236 179.319ZM393.638 164.508L362.186 158.61L362.039 159.394L361.931 160.184L393.638 164.508ZM393.638 153.699L362.765 162.119L362.765 162.119L393.638 153.699ZM388.434 146.894L370.683 173.52L371.317 173.942L371.97 174.334L388.434 146.894ZM366.016 147.295L382.14 174.935L382.14 174.935L366.016 147.295ZM358.411 155.301L386.586 170.472L386.586 170.472L358.411 155.301ZM353.207 167.71L322.849 157.591L322.539 158.519L322.287 159.465L353.207 167.71ZM347.602 194.13L315.883 189.901L315.837 190.248L315.798 190.597L347.602 194.13ZM347.202 206.54L315.296 208.994L315.389 210.205L315.574 211.406L347.202 206.54ZM317.98 257.003C309.506 257.003 302.196 255.826 295.827 253.76L276.083 314.639C289.463 318.978 303.503 321.003 317.98 321.003V257.003ZM296.824 254.102C291.828 252.298 288.071 249.745 285.017 246.446L238.056 289.928C248.345 301.04 260.868 309.162 275.086 314.297L296.824 254.102ZM285.833 247.362C283.659 244.826 281.225 240.521 279.677 232.952L216.975 245.778C220.231 261.694 226.604 276.604 237.24 289.012L285.833 247.362ZM279.677 232.952C278.295 226.196 278.032 216.034 280.331 201.549L217.122 191.516C214.084 210.656 213.554 229.049 216.975 245.778L279.677 232.952ZM279.996 203.33C281.39 196.917 282.548 191.149 283.442 186.081L220.416 174.959C219.709 178.964 218.732 183.871 217.457 189.734L279.996 203.33ZM283.078 187.849C284.169 183.215 285.389 177.929 286.736 172L224.328 157.816C223.006 163.63 221.824 168.752 220.78 173.191L283.078 187.849ZM286.545 172.793C289.974 159.306 294.317 148.574 299.208 140.161L243.88 107.993C235.428 122.53 229.096 139.02 224.518 157.023L286.545 172.793ZM299.367 139.885C304.494 130.861 309.955 124.33 315.465 119.655L274.059 70.8544C261.955 81.124 251.937 93.8082 243.721 108.268L299.367 139.885ZM315.104 119.956C321.257 114.889 327.888 111.196 335.125 108.725L314.444 48.1586C299.799 53.1595 286.414 60.6752 274.419 70.5529L315.104 119.956ZM335.125 108.725C342.467 106.218 350.688 104.838 360.012 104.838V40.8375C344.249 40.8375 328.986 43.1931 314.444 48.1586L335.125 108.725ZM360.012 104.838C373.351 104.838 379.822 106.591 382.068 107.606L408.41 49.2779C394.11 42.82 377.096 40.8375 360.012 40.8375V104.838ZM382.068 107.606C386.819 109.751 389.479 111.966 391.036 113.769L439.472 71.937C430.888 61.997 420.205 54.6049 408.41 49.2779L382.068 107.606ZM446.435 100.048L447.636 94.8443L385.274 80.4534L384.074 85.6574L446.435 100.048ZM447.939 93.3732C447.558 95.4661 446.798 97.5948 445.65 99.5789C444.516 101.538 443.223 102.978 442.118 103.96L399.599 56.1259C392.291 62.6216 386.886 71.395 384.971 81.9245L447.939 93.3732ZM440.849 105.031C439.946 105.753 438.456 106.744 436.353 107.545C434.196 108.367 431.775 108.841 429.265 108.841V44.8406C417.906 44.8406 408.236 49.161 400.868 55.0552L440.849 105.031ZM429.265 108.841H496.917V44.8406H429.265V108.841ZM496.917 108.841C494.473 108.841 490.991 108.382 487.194 106.595C483.296 104.761 480.248 102.078 478.122 99.243L529.322 60.8431C521.012 49.7636 508.762 44.8406 496.917 44.8406V108.841ZM479.639 101.115C477.59 98.7731 475.703 95.5888 474.677 91.6895C473.665 87.8424 473.785 84.426 474.24 81.9244L537.207 93.3733C539.381 81.4184 536.468 68.872 527.804 58.9708L479.639 101.115ZM474.422 80.999L434.792 267.542L497.394 280.842L537.025 94.2987L474.422 80.999ZM434.609 268.467C435.08 265.878 436.057 263.391 437.436 261.207C438.78 259.079 440.238 257.658 441.299 256.81L481.28 306.785C489.046 300.573 495.462 291.547 497.577 279.916L434.609 268.467ZM440.03 257.88C441.271 256.777 443.119 255.481 445.602 254.488C448.129 253.477 450.769 253 453.283 253V317C464.823 317 474.889 312.523 482.549 305.715L440.03 257.88ZM453.283 253H385.231V317H453.283V253ZM385.231 253C387.716 253 390.88 253.471 394.224 254.957C397.597 256.456 400.23 258.579 402.108 260.725L353.943 302.87C362.125 312.22 373.435 317 385.231 317V253ZM403.626 262.598C405.54 265.15 407.014 268.262 407.738 271.703C408.444 275.058 408.271 277.918 407.908 279.916L344.941 268.467C343.021 279.023 344.819 290.855 352.426 300.998L403.626 262.598ZM407.694 280.989L409.696 271.782L347.156 258.187L345.155 267.394L407.694 280.989ZM357.019 241.199C351.158 246.474 344.969 250.635 338.425 253.814L366.387 311.382C378.524 305.487 389.681 297.906 399.833 288.77L357.019 241.199ZM338.78 253.644C335.278 255.292 328.845 257.003 317.98 257.003V321.003C334.868 321.003 351.387 318.444 366.031 311.552L338.78 253.644ZM362.414 249.348C371.152 249.348 381.374 247.771 390.947 242.187L358.699 186.905C361.868 185.057 363.816 185.348 362.414 185.348V249.348ZM390.947 242.187C399.561 237.162 406.126 230.027 410.604 221.711L354.254 191.369C354.572 190.779 355.106 189.967 355.926 189.103C356.756 188.23 357.708 187.483 358.699 186.905L390.947 242.187ZM409.682 223.311C413.694 216.792 416.501 209.768 418.466 202.695L356.8 185.566C356.096 188.1 355.434 189.349 355.176 189.769L409.682 223.311ZM418.597 202.208C420.25 195.869 421.583 190.42 422.525 186.024L359.946 172.614C359.287 175.69 358.218 180.116 356.669 186.053L418.597 202.208ZM422.614 185.595C423.588 180.728 424.49 175.093 425.344 168.831L361.931 160.184C361.184 165.665 360.485 169.904 359.857 173.043L422.614 185.595ZM425.089 170.405C426.427 163.274 427.008 154.44 424.51 145.28L362.765 162.119C362.295 160.394 362.238 159.14 362.238 158.603C362.238 158.072 362.293 158.038 362.186 158.61L425.089 170.405ZM424.51 145.28C421.484 134.184 414.462 125.193 404.897 119.454L371.97 174.334C370.153 173.244 368.115 171.586 366.317 169.235C364.51 166.872 363.381 164.378 362.765 162.119L424.51 145.28ZM406.184 120.269C396.311 113.687 385.554 112.492 378.026 112.492V176.492C378.497 176.492 378 176.542 376.835 176.273C375.653 176.001 373.349 175.297 370.683 173.52L406.184 120.269ZM378.026 112.492C369.193 112.492 359.232 114.206 349.893 119.654L382.14 174.935C379.206 176.647 377.251 176.492 378.026 176.492V112.492ZM349.893 119.654C341.279 124.678 334.714 131.813 330.235 140.129L386.586 170.472C386.268 171.062 385.734 171.873 384.913 172.737C384.083 173.611 383.131 174.357 382.14 174.935L349.893 119.654ZM330.235 140.129C327.291 145.598 324.876 151.508 322.849 157.591L383.564 177.829C384.739 174.305 385.794 171.942 386.586 170.472L330.235 140.129ZM322.287 159.465C321.085 163.971 319.913 168.816 318.766 173.978L381.242 187.862C382.23 183.417 383.193 179.455 384.126 175.955L322.287 159.465ZM318.766 173.978C317.541 179.493 316.561 184.817 315.883 189.901L379.322 198.36C379.711 195.438 380.333 191.954 381.242 187.862L318.766 173.978ZM315.798 190.597C315.122 196.684 314.83 202.929 315.296 208.994L379.108 204.086C379.041 203.212 379.015 201.184 379.407 197.664L315.798 190.597ZM315.574 211.406C317.146 221.621 322.114 232.148 331.959 239.805L371.251 189.287C373.492 191.029 375.379 193.244 376.742 195.722C378.065 198.128 378.613 200.263 378.83 201.674L315.574 211.406ZM331.959 239.805C342.405 247.93 354.345 249.348 362.414 249.348V185.348C361.981 185.348 362.687 185.295 364.14 185.672C365.641 186.061 368.333 187.017 371.251 189.287L331.959 239.805ZM522.199 284.199L511.33 314.297L511.825 314.476L512.326 314.639L522.199 284.199ZM497.78 268.187L473.484 289.012L473.883 289.478L474.299 289.928L497.78 268.187ZM484.57 239.365L515.921 232.952L484.57 239.365ZM484.97 196.532L453.7 189.734L453.508 190.62L453.366 191.516L484.97 196.532ZM488.172 180.52L457.023 173.191L456.816 174.07L456.659 174.959L488.172 180.52ZM491.775 164.908L460.762 157.023L460.661 157.418L460.571 157.816L491.775 164.908ZM507.387 124.077L479.565 108.268L479.504 108.375L479.445 108.481L507.387 124.077ZM530.605 95.2547L509.902 70.8544L509.902 70.8544L530.605 95.2547ZM623.476 78.0415L612.607 108.139L613.103 108.318L613.604 108.481L623.476 78.0415ZM645.893 91.6519L621.675 112.568L663.925 161.489L677.21 98.2285L645.893 91.6519ZM662.706 11.5906L694.023 18.1671L694.112 17.7422L694.19 17.315L662.706 11.5906ZM667.109 3.98477L647.119 -21.003L646.471 -20.4841L645.85 -19.9323L667.109 3.98477ZM756.378 3.98477L730.778 23.1847L731.501 24.1494L732.295 25.0569L756.378 3.98477ZM758.379 11.5906L789.675 18.2695L789.776 17.7937L789.863 17.315L758.379 11.5906ZM702.336 274.192L671.041 267.513L670.94 267.989L670.853 268.467L702.336 274.192ZM697.533 281.798L677.543 256.81L676.894 257.329L676.273 257.88L697.533 281.798ZM614.269 281.798L588.669 300.998L589.393 301.962L590.187 302.87L614.269 281.798ZM612.668 274.192L581.398 267.394L581.282 267.929L581.184 268.467L612.668 274.192ZM614.669 264.985L645.939 271.782L667.018 174.819L593.262 241.199L614.669 264.985ZM588.649 282.598L602.275 311.552L602.453 311.468L602.63 311.382L588.649 282.598ZM618.672 206.54L591.419 189.769L590.935 190.555L590.497 191.369L618.672 206.54ZM623.876 194.13L654.709 202.695L654.776 202.452L654.84 202.208L623.876 194.13ZM627.479 179.319L658.769 186.024L658.815 185.81L658.858 185.595L627.479 179.319ZM629.881 164.508L598.429 158.61L598.282 159.394L598.174 160.184L629.881 164.508ZM629.881 153.699L599.009 162.119L599.009 162.119L629.881 153.699ZM624.677 146.894L606.927 173.52L607.56 173.942L608.213 174.334L624.677 146.894ZM602.26 147.295L618.384 174.935L618.384 174.935L602.26 147.295ZM594.654 155.301L622.829 170.472L622.829 170.472L594.654 155.301ZM589.45 167.71L559.092 157.591L558.783 158.519L558.531 159.465L589.45 167.71ZM583.846 194.13L552.126 189.901L552.08 190.248L552.041 190.597L583.846 194.13ZM583.445 206.54L551.54 208.994L551.633 210.205L551.818 211.406L583.445 206.54ZM554.223 257.003C545.749 257.003 538.439 255.826 532.071 253.76L512.326 314.639C525.707 318.978 539.746 321.003 554.223 321.003V257.003ZM533.067 254.102C528.071 252.298 524.315 249.745 521.26 246.446L474.299 289.928C484.588 301.04 497.111 309.162 511.33 314.297L533.067 254.102ZM522.076 247.362C519.902 244.826 517.469 240.521 515.921 232.952L453.219 245.778C456.474 261.694 462.848 276.604 473.484 289.012L522.076 247.362ZM515.921 232.952C514.539 226.196 514.275 216.034 516.574 201.549L453.366 191.516C450.328 210.656 449.797 229.049 453.219 245.778L515.921 232.952ZM516.24 203.33C517.634 196.917 518.791 191.149 519.686 186.081L456.659 174.959C455.953 178.964 454.975 183.871 453.7 189.734L516.24 203.33ZM519.322 187.849C520.412 183.215 521.632 177.929 522.979 172L460.571 157.816C459.25 163.63 458.068 168.752 457.023 173.191L519.322 187.849ZM522.789 172.793C526.261 159.134 530.553 148.23 535.329 139.672L479.445 108.481C471.411 122.874 465.295 139.192 460.762 157.023L522.789 172.793ZM535.21 139.885C540.337 130.861 545.798 124.33 551.308 119.655L509.902 70.8544C497.798 81.124 487.781 93.8082 479.565 108.268L535.21 139.885ZM551.308 119.655C557.319 114.555 563.603 110.942 570.239 108.56L548.615 48.3236C534.435 53.4141 521.504 61.0099 509.902 70.8544L551.308 119.655ZM570.239 108.56C577.048 106.116 584.321 104.838 592.252 104.838V40.8375C577.232 40.8375 562.622 43.2955 548.615 48.3236L570.239 108.56ZM592.252 104.838C600.115 104.838 606.809 106.045 612.607 108.139L634.345 47.9438C620.929 43.0991 606.807 40.8375 592.252 40.8375V104.838ZM613.604 108.481C619.74 110.471 621.511 112.378 621.675 112.568L670.112 70.7361C660.135 59.1838 646.961 52.0173 633.348 47.6024L613.604 108.481ZM677.21 98.2285L694.023 18.1671L631.389 5.01404L614.576 85.0754L677.21 98.2285ZM694.19 17.315C693.809 19.4079 693.05 21.5366 691.901 23.5206C690.767 25.4794 689.474 26.9201 688.369 27.9019L645.85 -19.9323C638.542 -13.4367 633.137 -4.66321 631.222 5.86624L694.19 17.315ZM687.1 28.9725C686.197 29.695 684.707 30.6857 682.605 31.4865C680.447 32.3084 678.026 32.7823 675.516 32.7823V-31.2177C664.157 -31.2177 654.487 -26.8972 647.119 -21.003L687.1 28.9725ZM675.516 32.7823H749.573V-31.2177H675.516V32.7823ZM749.573 32.7823C747.129 32.7823 743.647 32.3239 739.85 30.5371C735.952 28.7027 732.904 26.0201 730.778 23.1847L781.978 -15.2152C773.668 -26.2947 761.418 -31.2177 749.573 -31.2177V32.7823ZM732.295 25.0569C730.246 22.7148 728.359 19.5305 727.333 15.6312C726.321 11.7842 726.441 8.36779 726.896 5.86616L789.863 17.315C792.037 5.36014 789.124 -7.18621 780.46 -17.0874L732.295 25.0569ZM727.084 4.91173L671.041 267.513L733.632 280.871L789.675 18.2695L727.084 4.91173ZM670.853 268.467C671.323 265.878 672.301 263.391 673.68 261.207C675.024 259.079 676.482 257.658 677.543 256.81L717.523 306.785C725.289 300.573 731.706 291.547 733.82 279.916L670.853 268.467ZM676.273 257.88C677.514 256.777 679.362 255.481 681.845 254.488C684.372 253.477 687.012 253 689.527 253V317C701.066 317 711.132 312.523 718.792 305.715L676.273 257.88ZM689.527 253H621.475V317H689.527V253ZM621.475 253C623.959 253 627.123 253.471 630.468 254.957C633.841 256.456 636.473 258.579 638.351 260.725L590.187 302.87C598.368 312.22 609.678 317 621.475 317V253ZM639.869 262.598C641.783 265.15 643.257 268.262 643.981 271.703C644.688 275.058 644.515 277.918 644.152 279.916L581.184 268.467C579.265 279.023 581.062 290.855 588.669 300.998L639.869 262.598ZM643.937 280.989L645.939 271.782L583.4 258.187L581.398 267.394L643.937 280.989ZM593.262 241.199C587.402 246.474 581.212 250.635 574.668 253.814L602.63 311.382C614.767 305.487 625.925 297.906 636.076 288.77L593.262 241.199ZM575.024 253.644C571.521 255.292 565.089 257.003 554.223 257.003V321.003C571.112 321.003 587.631 318.444 602.275 311.552L575.024 253.644ZM598.657 249.348C607.396 249.348 617.617 247.771 627.19 242.187L594.943 186.905C598.111 185.057 600.06 185.348 598.657 185.348V249.348ZM627.19 242.187C635.804 237.162 642.369 230.027 646.847 221.711L590.497 191.369C590.815 190.779 591.349 189.967 592.17 189.103C593 188.23 593.952 187.483 594.943 186.905L627.19 242.187ZM645.925 223.311C649.937 216.792 652.744 209.768 654.709 202.695L593.044 185.566C592.34 188.1 591.677 189.349 591.419 189.769L645.925 223.311ZM654.84 202.208C656.494 195.869 657.827 190.42 658.769 186.024L596.189 172.614C595.53 175.69 594.461 180.116 592.913 186.053L654.84 202.208ZM658.858 185.595C659.831 180.728 660.734 175.093 661.588 168.831L598.174 160.184C597.427 165.665 596.728 169.904 596.101 173.043L658.858 185.595ZM661.333 170.405C662.67 163.274 663.252 154.44 660.753 145.28L599.009 162.119C598.538 160.394 598.481 159.14 598.481 158.603C598.481 158.072 598.536 158.038 598.429 158.61L661.333 170.405ZM660.753 145.28C657.727 134.184 650.705 125.193 641.141 119.454L608.213 174.334C606.397 173.244 604.358 171.586 602.56 169.235C600.753 166.872 599.624 164.378 599.009 162.119L660.753 145.28ZM642.427 120.269C632.555 113.687 621.797 112.492 614.269 112.492V176.492C614.741 176.492 614.243 176.542 613.078 176.273C611.897 176.001 609.593 175.297 606.927 173.52L642.427 120.269ZM614.269 112.492C605.437 112.492 595.475 114.206 586.136 119.654L618.384 174.935C615.449 176.647 613.494 176.492 614.269 176.492V112.492ZM586.136 119.654C577.522 124.678 570.957 131.813 566.479 140.129L622.829 170.472C622.511 171.062 621.977 171.873 621.157 172.737C620.327 173.611 619.375 174.357 618.384 174.935L586.136 119.654ZM566.479 140.129C563.535 145.598 561.12 151.508 559.092 157.591L619.808 177.829C620.983 174.305 622.037 171.942 622.829 170.472L566.479 140.129ZM558.531 159.465C557.329 163.971 556.157 168.816 555.01 173.978L617.486 187.862C618.473 183.417 619.436 179.455 620.37 175.955L558.531 159.465ZM555.01 173.978C553.784 179.493 552.804 184.817 552.126 189.901L615.565 198.36C615.955 195.438 616.576 191.954 617.486 187.862L555.01 173.978ZM552.041 190.597C551.365 196.684 551.073 202.929 551.54 208.994L615.351 204.086C615.284 203.212 615.259 201.184 615.65 197.664L552.041 190.597ZM551.818 211.406C553.389 221.621 558.358 232.148 568.203 239.805L607.495 189.287C609.735 191.029 611.622 193.244 612.985 195.722C614.309 198.128 614.856 200.263 615.073 201.674L551.818 211.406ZM568.203 239.805C578.649 247.93 590.588 249.348 598.657 249.348V185.348C598.225 185.348 598.931 185.295 600.383 185.672C601.884 186.061 604.577 187.017 607.495 189.287L568.203 239.805ZM758.833 284.199L747.964 314.297L748.46 314.476L748.961 314.639L758.833 284.199ZM734.414 268.187L710.118 289.012L710.517 289.478L710.934 289.928L734.414 268.187ZM721.204 239.365L752.555 232.952L721.204 239.365ZM721.604 196.532L690.335 189.734L690.142 190.62L690 191.516L721.604 196.532ZM724.807 180.52L693.657 173.191L693.451 174.07L693.294 174.959L724.807 180.52ZM728.41 164.908L697.396 157.023L697.296 157.418L697.205 157.816L728.41 164.908ZM744.422 124.077L772.086 140.161L772.166 140.023L772.244 139.885L744.422 124.077ZM767.64 95.2547L747.297 70.5529L747.116 70.7023L746.936 70.8544L767.64 95.2547ZM797.663 78.4418L808.003 108.725L808.003 108.725L797.663 78.4418ZM868.117 78.4418L854.946 107.606L854.946 107.606L868.117 78.4418ZM888.132 92.8528L863.914 113.769L905.132 161.496L919.312 100.048L888.132 92.8528ZM889.333 87.6488L920.513 94.8443L920.682 94.1123L920.817 93.3732L889.333 87.6488ZM893.736 80.043L873.746 55.0552L873.097 55.5741L872.477 56.1259L893.736 80.043ZM976.6 80.043L951 99.243L951.723 100.208L952.517 101.115L976.6 80.043ZM978.601 87.6488L1009.9 94.2987L1010 93.8373L1010.08 93.3733L978.601 87.6488ZM938.971 274.192L907.669 267.542L907.571 268.003L907.487 268.467L938.971 274.192ZM934.167 281.798L914.177 256.81L913.528 257.329L912.907 257.88L934.167 281.798ZM850.903 281.798L825.303 300.998L826.027 301.962L826.821 302.87L850.903 281.798ZM849.302 274.192L818.032 267.394L817.916 267.929L817.818 268.467L849.302 274.192ZM851.304 264.985L882.573 271.782L903.652 174.819L829.897 241.199L851.304 264.985ZM825.284 282.598L838.909 311.552L839.087 311.468L839.265 311.382L825.284 282.598ZM855.307 206.54L828.054 189.769L827.57 190.555L827.132 191.369L855.307 206.54ZM860.511 194.13L891.343 202.695L891.411 202.452L891.474 202.208L860.511 194.13ZM864.113 179.319L895.403 186.024L895.449 185.81L895.492 185.595L864.113 179.319ZM866.515 164.508L835.063 158.61L834.916 159.394L834.809 160.184L866.515 164.508ZM866.515 153.699L835.643 162.119L835.643 162.119L866.515 153.699ZM861.311 146.894L843.561 173.52L844.195 173.942L844.847 174.334L861.311 146.894ZM838.894 147.295L855.018 174.935L855.018 174.935L838.894 147.295ZM831.288 155.301L859.463 170.472L859.463 170.472L831.288 155.301ZM826.084 167.71L795.726 157.591L795.417 158.519L795.165 159.465L826.084 167.71ZM820.48 194.13L788.761 189.901L788.714 190.248L788.676 190.597L820.48 194.13ZM820.08 206.54L788.174 208.994L788.267 210.205L788.452 211.406L820.08 206.54ZM790.857 257.003C782.383 257.003 775.073 255.826 768.705 253.76L748.961 314.639C762.341 318.978 776.38 321.003 790.857 321.003V257.003ZM769.701 254.102C764.706 252.298 760.949 249.745 757.894 246.446L710.934 289.928C721.223 301.04 733.745 309.162 747.964 314.297L769.701 254.102ZM758.71 247.362C756.537 244.826 754.103 240.521 752.555 232.952L689.853 245.778C693.109 261.694 699.482 276.604 710.118 289.012L758.71 247.362ZM752.555 232.952C751.173 226.196 750.909 216.034 753.209 201.549L690 191.516C686.962 210.656 686.431 229.049 689.853 245.778L752.555 232.952ZM752.874 203.33C754.268 196.917 755.425 191.149 756.32 186.081L693.294 174.959C692.587 178.964 691.609 183.871 690.335 189.734L752.874 203.33ZM755.956 187.849C757.047 183.215 758.266 177.929 759.614 172L697.205 157.816C695.884 163.63 694.702 168.752 693.657 173.191L755.956 187.849ZM759.423 172.793C762.852 159.306 767.195 148.574 772.086 140.161L716.758 107.993C708.305 122.53 701.973 139.02 697.396 157.023L759.423 172.793ZM772.244 139.885C777.372 130.861 782.833 124.33 788.343 119.655L746.936 70.8544C734.833 81.124 724.815 93.8082 716.599 108.268L772.244 139.885ZM787.982 119.956C794.135 114.889 800.765 111.196 808.003 108.725L787.322 48.1586C772.676 53.1595 759.291 60.6752 747.297 70.5529L787.982 119.956ZM808.003 108.725C815.345 106.218 823.566 104.838 832.89 104.838V40.8375C817.127 40.8375 801.864 43.1931 787.322 48.1586L808.003 108.725ZM832.89 104.838C846.228 104.838 852.699 106.591 854.946 107.606L881.287 49.2779C866.988 42.82 849.974 40.8375 832.89 40.8375V104.838ZM854.946 107.606C859.696 109.751 862.357 111.966 863.914 113.769L912.35 71.937C903.766 61.997 893.083 54.6049 881.287 49.2779L854.946 107.606ZM919.312 100.048L920.513 94.8443L858.152 80.4534L856.951 85.6574L919.312 100.048ZM920.817 93.3732C920.436 95.4661 919.676 97.5948 918.528 99.5789C917.394 101.538 916.1 102.978 914.996 103.96L872.477 56.1259C865.169 62.6216 859.763 71.395 857.849 81.9245L920.817 93.3732ZM913.726 105.031C912.823 105.753 911.333 106.744 909.231 107.545C907.074 108.367 904.652 108.841 902.143 108.841V44.8406C890.783 44.8406 881.114 49.161 873.746 55.0552L913.726 105.031ZM902.143 108.841H969.794V44.8406H902.143V108.841ZM969.794 108.841C967.351 108.841 963.869 108.382 960.072 106.595C956.174 104.761 953.126 102.078 951 99.243L1002.2 60.8431C993.89 49.7636 981.64 44.8406 969.794 44.8406V108.841ZM952.517 101.115C950.468 98.7731 948.581 95.5888 947.555 91.6895C946.542 87.8424 946.662 84.426 947.117 81.9244L1010.08 93.3733C1012.26 81.4184 1009.35 68.872 1000.68 58.9708L952.517 101.115ZM947.3 80.999L907.669 267.542L970.272 280.842L1009.9 94.2987L947.3 80.999ZM907.487 268.467C907.958 265.878 908.935 263.391 910.314 261.207C911.658 259.079 913.116 257.658 914.177 256.81L954.157 306.785C961.923 300.573 968.34 291.547 970.455 279.916L907.487 268.467ZM912.907 257.88C914.149 256.777 915.997 255.481 918.48 254.488C921.007 253.477 923.647 253 926.161 253V317C937.701 317 947.767 312.523 955.427 305.715L912.907 257.88ZM926.161 253H858.109V317H926.161V253ZM858.109 253C860.593 253 863.758 253.471 867.102 254.957C870.475 256.456 873.108 258.579 874.986 260.725L826.821 302.87C835.003 312.22 846.312 317 858.109 317V253ZM876.503 262.598C878.418 265.15 879.891 268.262 880.616 271.703C881.322 275.058 881.149 277.918 880.786 279.916L817.818 268.467C815.899 279.023 817.696 290.855 825.303 300.998L876.503 262.598ZM880.572 280.989L882.573 271.782L820.034 258.187L818.032 267.394L880.572 280.989ZM829.897 241.199C824.036 246.474 817.847 250.635 811.303 253.814L839.265 311.382C851.402 305.487 862.559 297.906 872.711 288.77L829.897 241.199ZM811.658 253.644C808.155 255.292 801.723 257.003 790.857 257.003V321.003C807.746 321.003 824.265 318.444 838.909 311.552L811.658 253.644ZM835.291 249.348C844.03 249.348 854.251 247.771 863.825 242.187L831.577 186.905C834.746 185.057 836.694 185.348 835.291 185.348V249.348ZM863.825 242.187C872.439 237.162 879.004 230.027 883.482 221.711L827.132 191.369C827.449 190.779 827.983 189.967 828.804 189.103C829.634 188.23 830.586 187.483 831.577 186.905L863.825 242.187ZM882.56 223.311C886.572 216.792 889.379 209.768 891.343 202.695L829.678 185.566C828.974 188.1 828.312 189.349 828.054 189.769L882.56 223.311ZM891.474 202.208C893.128 195.869 894.461 190.42 895.403 186.024L832.824 172.614C832.165 175.69 831.096 180.116 829.547 186.053L891.474 202.208ZM895.492 185.595C896.465 180.728 897.368 175.093 898.222 168.831L834.809 160.184C834.061 165.665 833.363 169.904 832.735 173.043L895.492 185.595ZM897.967 170.405C899.304 163.274 899.886 154.44 897.388 145.28L835.643 162.119C835.172 160.394 835.116 159.14 835.116 158.603C835.116 158.072 835.171 158.038 835.063 158.61L897.967 170.405ZM897.388 145.28C894.362 134.184 887.34 125.193 877.775 119.454L844.847 174.334C843.031 173.244 840.993 171.586 839.194 169.235C837.388 166.872 836.259 164.378 835.643 162.119L897.388 145.28ZM879.062 120.269C869.189 113.687 858.432 112.492 850.903 112.492V176.492C851.375 176.492 850.877 176.542 849.712 176.273C848.531 176.001 846.227 175.297 843.561 173.52L879.062 120.269ZM850.903 112.492C842.071 112.492 832.11 114.206 822.77 119.654L855.018 174.935C852.084 176.647 850.128 176.492 850.903 176.492V112.492ZM822.77 119.654C814.157 124.678 807.591 131.813 803.113 140.129L859.463 170.472C859.146 171.062 858.612 171.873 857.791 172.737C856.961 173.611 856.009 174.357 855.018 174.935L822.77 119.654ZM803.113 140.129C800.169 145.598 797.754 151.508 795.726 157.591L856.442 177.829C857.617 174.305 858.672 171.942 859.463 170.472L803.113 140.129ZM795.165 159.465C793.963 163.971 792.791 168.816 791.644 173.978L854.12 187.862C855.108 183.417 856.071 179.455 857.004 175.955L795.165 159.465ZM791.644 173.978C790.418 179.493 789.439 184.817 788.761 189.901L852.199 198.36C852.589 195.438 853.21 191.954 854.12 187.862L791.644 173.978ZM788.676 190.597C787.999 196.684 787.707 202.929 788.174 208.994L851.985 204.086C851.918 203.212 851.893 201.184 852.284 197.664L788.676 190.597ZM788.452 211.406C790.023 221.621 794.992 232.148 804.837 239.805L844.129 189.287C846.37 191.029 848.257 193.244 849.62 195.722C850.943 198.128 851.491 200.263 851.708 201.674L788.452 211.406ZM804.837 239.805C815.283 247.93 827.223 249.348 835.291 249.348V185.348C834.859 185.348 835.565 185.295 837.017 185.672C838.519 186.061 841.211 187.017 844.129 189.287L804.837 239.805ZM949.041 281.798L974.641 262.598L973.917 261.633L973.123 260.725L949.041 281.798ZM947.039 274.192L915.738 267.542L915.64 268.003L915.556 268.467L947.039 274.192ZM986.67 87.6488L1017.97 94.2987L1018.07 93.8373L1018.15 93.3732L986.67 87.6488ZM991.473 80.043L1011.46 105.031L1011.46 105.031L991.473 80.043ZM1074.34 87.6488L1105.64 94.289L1105.74 93.8324L1105.82 93.3732L1074.34 87.6488ZM1071.53 100.859L1040.23 94.2188L1017.83 199.817L1094.16 123.486L1071.53 100.859ZM1085.55 88.4495L1105.54 113.437L1105.91 113.14L1106.27 112.832L1085.55 88.4495ZM1105.16 77.2409L1093.81 47.3209L1093.81 47.321L1105.16 77.2409ZM1170.41 82.0446L1152.11 108.297L1152.56 108.612L1153.03 108.911L1170.41 82.0446ZM1189.63 105.663L1159.7 116.987L1178.45 166.545L1213.58 126.88L1189.63 105.663ZM1217.25 82.4449L1233.82 109.821L1234.08 109.663L1234.33 109.5L1217.25 82.4449ZM1291.3 82.0446L1274.73 109.421L1274.89 109.515L1275.05 109.608L1291.3 82.0446ZM1312.92 110.867L1282.32 120.234L1282.41 120.517L1282.5 120.799L1312.92 110.867ZM1312.52 162.106L1281.24 155.374L1281.23 155.387L1281.23 155.401L1312.52 162.106ZM1288.5 274.192L1257.21 267.487L1257.11 267.976L1257.02 268.467L1288.5 274.192ZM1283.7 281.798L1263.71 256.81L1263.06 257.329L1262.44 257.88L1283.7 281.798ZM1198.03 281.798L1172.43 300.998L1173.16 301.962L1173.95 302.87L1198.03 281.798ZM1196.43 274.192L1165.14 267.479L1165.04 267.972L1164.95 268.467L1196.43 274.192ZM1220.05 164.107L1251.34 170.82L1251.42 170.413L1251.5 170.005L1220.05 164.107ZM1220.05 153.299L1188.56 159.023L1188.81 160.384L1189.18 161.719L1220.05 153.299ZM1216.05 146.894L1195.22 171.19L1197.05 172.756L1199.09 174.03L1216.05 146.894ZM1199.23 146.894L1213.54 175.516L1214.64 174.966L1215.7 174.334L1199.23 146.894ZM1192.43 153.299L1165.43 136.119L1165.43 136.119L1192.43 153.299ZM1188.42 164.107L1219.71 170.82L1219.8 170.413L1219.88 170.005L1188.42 164.107ZM1164.81 274.192L1133.52 267.479L1133.41 267.972L1133.32 268.467L1164.81 274.192ZM1160 281.798L1140.01 256.81L1139.36 257.329L1138.74 257.88L1160 281.798ZM1074.34 281.798L1048.74 300.998L1049.46 301.962L1050.25 302.87L1074.34 281.798ZM1072.74 274.192L1041.45 267.479L1041.34 267.972L1041.25 268.467L1072.74 274.192ZM1096.35 164.107L1127.64 170.82L1127.73 170.413L1127.81 170.005L1096.35 164.107ZM1096.35 153.299L1064.87 159.023L1065.12 160.384L1065.48 161.719L1096.35 153.299ZM1092.35 146.894L1071.53 171.19L1073.35 172.756L1075.39 174.03L1092.35 146.894ZM1075.14 146.894L1059.81 118.802L1059.24 119.116L1058.67 119.454L1075.14 146.894ZM1068.33 153.699L1094.55 172.05L1094.95 171.473L1095.33 170.879L1068.33 153.699ZM1064.33 164.107L1095.62 170.82L1095.7 170.413L1095.78 170.005L1064.33 164.107ZM1040.71 274.192L1009.42 267.479L1009.32 267.972L1009.23 268.467L1040.71 274.192ZM1035.91 281.798L1015.92 256.81L1015.27 257.329L1014.65 257.88L1035.91 281.798ZM955.846 253C958.289 253 961.772 253.458 965.569 255.245C969.467 257.08 972.514 259.762 974.641 262.598L923.441 300.998C931.751 312.077 944.001 317 955.846 317V253ZM973.123 260.725C975.173 263.068 977.06 266.252 978.086 270.151C979.098 273.998 978.978 277.414 978.523 279.916L915.556 268.467C913.382 280.422 916.295 292.969 924.959 302.87L973.123 260.725ZM978.341 280.842L1017.97 94.2987L955.368 80.999L915.738 267.542L978.341 280.842ZM1018.15 93.3732C1017.68 95.9627 1016.71 98.45 1015.33 100.633C1013.98 102.762 1012.52 104.182 1011.46 105.031L971.483 55.0552C963.717 61.268 957.301 70.2932 955.186 81.9245L1018.15 93.3732ZM1011.46 105.031C1010.56 105.753 1009.07 106.744 1006.97 107.545C1004.81 108.367 1002.39 108.841 999.88 108.841V44.8406C988.521 44.8406 978.851 49.161 971.483 55.0552L1011.46 105.031ZM999.88 108.841H1065.93V44.8406H999.88V108.841ZM1065.93 108.841C1063.49 108.841 1060 108.382 1056.21 106.595C1052.31 104.761 1049.26 102.078 1047.14 99.243L1098.34 60.843C1090.03 49.7636 1077.78 44.8406 1065.93 44.8406V108.841ZM1047.14 99.243C1045.22 96.6906 1043.75 93.5787 1043.02 90.1381C1042.32 86.7826 1042.49 83.9225 1042.85 81.9245L1105.82 93.3732C1107.74 82.8179 1105.94 70.9856 1098.34 60.843L1047.14 99.243ZM1043.03 81.0087L1040.23 94.2188L1102.84 107.499L1105.64 94.289L1043.03 81.0087ZM1094.16 123.486C1097.18 120.468 1100.94 117.115 1105.54 113.437L1065.56 63.4617C1059.48 68.3237 1053.9 73.2438 1048.91 78.2316L1094.16 123.486ZM1106.27 112.832C1108.37 111.049 1111.58 109.03 1116.51 107.161L1093.81 47.321C1083.26 51.3234 1073.4 56.7763 1064.82 64.0674L1106.27 112.832ZM1116.51 107.161C1119.66 105.964 1124.94 104.838 1133.18 104.838V40.8375C1119.54 40.8375 1106.14 42.6464 1093.81 47.3209L1116.51 107.161ZM1133.18 104.838C1145.69 104.838 1150.72 107.327 1152.11 108.297L1188.71 55.7918C1172.49 44.4865 1152.7 40.8375 1133.18 40.8375V104.838ZM1153.03 108.911C1156.51 111.167 1158.44 113.66 1159.7 116.987L1219.55 94.3381C1213.34 77.917 1202.46 64.6646 1187.79 55.1783L1153.03 108.911ZM1213.58 126.88C1219.83 119.825 1226.57 114.204 1233.82 109.821L1200.68 55.0689C1187.64 62.962 1175.97 72.8192 1165.67 84.4455L1213.58 126.88ZM1234.33 109.5C1238.5 106.867 1244.48 104.838 1253.67 104.838V40.8375C1234.58 40.8375 1216.27 45.2132 1200.16 55.3892L1234.33 109.5ZM1253.67 104.838C1264.28 104.838 1270.74 107.003 1274.73 109.421L1307.87 54.6686C1291.59 44.8103 1272.95 40.8375 1253.67 40.8375V104.838ZM1275.05 109.608C1277.65 111.144 1280.33 113.718 1282.32 120.234L1343.52 101.5C1337.51 81.8619 1325.77 65.2208 1307.56 54.4808L1275.05 109.608ZM1282.5 120.799C1284.29 126.268 1285.2 136.965 1281.24 155.374L1343.8 168.838C1348.92 145.081 1350.09 121.619 1343.34 100.934L1282.5 120.799ZM1281.23 155.401L1257.21 267.487L1319.79 280.897L1343.81 168.811L1281.23 155.401ZM1257.02 268.467C1257.49 265.878 1258.47 263.391 1259.84 261.207C1261.19 259.079 1262.65 257.659 1263.71 256.81L1303.69 306.785C1311.45 300.572 1317.87 291.547 1319.98 279.916L1257.02 268.467ZM1262.44 257.88C1263.68 256.777 1265.53 255.481 1268.01 254.488C1270.54 253.477 1273.18 253 1275.69 253V317C1287.23 317 1297.3 312.524 1304.96 305.715L1262.44 257.88ZM1275.69 253H1205.24V317H1275.69V253ZM1205.24 253C1207.72 253 1210.89 253.471 1214.23 254.957C1217.6 256.456 1220.24 258.579 1222.11 260.725L1173.95 302.87C1182.13 312.22 1193.44 317 1205.24 317V253ZM1223.63 262.598C1225.55 265.15 1227.02 268.262 1227.74 271.703C1228.45 275.058 1228.28 277.918 1227.91 279.916L1164.95 268.467C1163.03 279.023 1164.82 290.855 1172.43 300.998L1223.63 262.598ZM1227.72 280.904L1251.34 170.82L1188.76 157.395L1165.14 267.479L1227.72 280.904ZM1251.5 170.005C1252.84 162.873 1253.42 154.04 1250.92 144.879L1189.18 161.719C1188.71 159.994 1188.65 158.74 1188.65 158.203C1188.65 157.672 1188.7 157.637 1188.6 158.21L1251.5 170.005ZM1251.53 147.575C1249.71 137.566 1244.2 126.753 1233.01 119.758L1199.09 174.03C1196.03 172.122 1193.42 169.509 1191.51 166.456C1189.67 163.515 1188.89 160.819 1188.56 159.023L1251.53 147.575ZM1236.87 122.598C1227.22 114.324 1216.05 112.492 1208.04 112.492V176.492C1206.97 176.492 1201.14 176.262 1195.22 171.19L1236.87 122.598ZM1208.04 112.492C1199.21 112.492 1190.56 114.78 1182.77 119.454L1215.7 174.334C1214.58 175.006 1213.28 175.577 1211.86 175.965C1210.44 176.352 1209.13 176.492 1208.04 176.492V112.492ZM1184.92 118.273C1176.26 122.605 1169.89 129.114 1165.43 136.119L1219.42 170.479C1218.7 171.613 1216.87 173.852 1213.54 175.516L1184.92 118.273ZM1165.43 136.119C1160.9 143.236 1158.34 150.891 1156.97 158.21L1219.88 170.005C1219.99 169.42 1220.07 169.221 1220.03 169.317C1219.99 169.421 1219.82 169.851 1219.42 170.479L1165.43 136.119ZM1157.14 157.395L1133.52 267.479L1196.09 280.904L1219.71 170.82L1157.14 157.395ZM1133.32 268.467C1133.79 265.878 1134.77 263.391 1136.15 261.207C1137.49 259.079 1138.95 257.659 1140.01 256.81L1179.99 306.785C1187.76 300.572 1194.18 291.547 1196.29 279.916L1133.32 268.467ZM1138.74 257.88C1139.98 256.777 1141.83 255.481 1144.32 254.488C1146.84 253.477 1149.48 253 1152 253V317C1163.54 317 1173.6 312.524 1181.26 305.715L1138.74 257.88ZM1152 253H1081.54V317H1152V253ZM1081.54 253C1084.03 253 1087.19 253.471 1090.54 254.957C1093.91 256.456 1096.54 258.579 1098.42 260.725L1050.25 302.87C1058.44 312.22 1069.75 317 1081.54 317V253ZM1099.94 262.598C1101.85 265.15 1103.32 268.262 1104.05 271.703C1104.76 275.058 1104.58 277.918 1104.22 279.916L1041.25 268.467C1039.33 279.023 1041.13 290.855 1048.74 300.998L1099.94 262.598ZM1104.02 280.904L1127.64 170.82L1065.07 157.395L1041.45 267.479L1104.02 280.904ZM1127.81 170.005C1129.14 162.873 1129.72 154.04 1127.23 144.879L1065.48 161.719C1065.01 159.994 1064.95 158.74 1064.95 158.203C1064.95 157.672 1065.01 157.637 1064.9 158.21L1127.81 170.005ZM1127.84 147.575C1126.02 137.566 1120.5 126.753 1109.31 119.758L1075.39 174.03C1072.34 172.122 1069.73 169.509 1067.82 166.456C1065.98 163.515 1065.2 160.819 1064.87 159.023L1127.84 147.575ZM1113.18 122.598C1103.52 114.324 1092.35 112.492 1084.34 112.492V176.492C1083.28 176.492 1077.44 176.262 1071.53 171.19L1113.18 122.598ZM1084.34 112.492C1075.55 112.492 1067.24 114.754 1059.81 118.802L1090.46 174.987C1088.91 175.832 1086.74 176.492 1084.34 176.492V112.492ZM1058.67 119.454C1051.26 123.9 1045.55 129.893 1041.34 136.519L1095.33 170.879C1094.85 171.635 1093.67 173.091 1091.6 174.334L1058.67 119.454ZM1042.12 135.349C1036.92 142.773 1034.25 150.882 1032.88 158.21L1095.78 170.005C1095.88 169.467 1095.93 169.441 1095.8 169.79C1095.66 170.149 1095.3 170.979 1094.55 172.05L1042.12 135.349ZM1033.04 157.395L1009.42 267.479L1072 280.904L1095.62 170.82L1033.04 157.395ZM1009.23 268.467C1009.7 265.878 1010.68 263.391 1012.05 261.207C1013.4 259.079 1014.86 257.659 1015.92 256.81L1055.9 306.785C1063.66 300.573 1070.08 291.547 1072.2 279.916L1009.23 268.467ZM1014.65 257.88C1015.89 256.777 1017.74 255.481 1020.22 254.488C1022.75 253.477 1025.39 253 1027.9 253V317C1039.44 317 1049.51 312.523 1057.17 305.715L1014.65 257.88ZM1027.9 253H955.846V317H1027.9V253Z" fill="black" mask="url(#path-1-outside-1_235_198)"/>
</svg>
