<svg width="1837" height="372" viewBox="0 0 1837 372" fill="none" xmlns="http://www.w3.org/2000/svg">
<mask id="path-1-outside-1_116_43" maskUnits="userSpaceOnUse" x="-28" y="-29" width="1893" height="429" fill="black">
<rect fill="white" x="-28" y="-29" width="1893" height="429"/>
<path d="M110.536 371.154C94.0432 371.154 79.0968 368.577 65.6967 363.423C52.6401 357.926 41.3015 350.023 31.6808 339.715C22.4038 329.064 15.1883 316.351 10.0344 301.576C4.8805 286.458 1.95995 269.278 1.27276 250.037C0.929171 243.165 0.757375 237.152 0.757375 231.998C0.757375 226.501 0.929171 220.488 1.27276 213.96C1.95995 195.405 4.8805 178.741 10.0344 163.967C15.1883 149.192 22.4038 136.479 31.6808 125.828C40.9579 115.176 52.2965 107.102 65.6967 101.604C79.0968 95.7632 94.0432 92.8426 110.536 92.8426C127.715 92.8426 142.49 95.7632 154.859 101.604C167.229 107.102 177.708 114.317 186.298 123.251V12.957C186.298 9.17744 187.501 6.08511 189.906 3.67996C192.311 1.27479 195.403 0.0722032 199.183 0.0722032H262.061C265.497 0.0722032 268.417 1.27479 270.822 3.67996C273.571 6.08511 274.946 9.17744 274.946 12.957V353.115C274.946 356.895 273.571 359.987 270.822 362.392C268.417 364.797 265.497 366 262.061 366H203.822C200.042 366 196.95 364.797 194.544 362.392C192.139 359.987 190.937 356.895 190.937 353.115V336.623C182.69 346.587 172.039 354.833 158.982 361.361C145.926 367.89 129.777 371.154 110.536 371.154ZM138.367 302.091C150.049 302.091 159.154 299.686 165.683 294.876C172.554 289.722 177.537 283.194 180.629 275.291C184.065 267.388 185.955 258.799 186.298 249.522C186.642 242.65 186.814 236.121 186.814 229.937C186.814 223.752 186.642 217.396 186.298 210.867C185.955 202.277 184.065 194.375 180.629 187.159C177.193 179.6 172.039 173.587 165.167 169.121C158.295 164.31 149.362 161.905 138.367 161.905C127.028 161.905 117.923 164.31 111.051 169.121C104.523 173.931 99.8843 180.459 97.1355 188.705C94.3868 196.952 92.6688 206.057 91.9816 216.021C90.9508 226.673 90.9508 237.324 91.9816 247.975C92.6688 257.94 94.3868 267.045 97.1355 275.291C99.8843 283.537 104.523 290.066 111.051 294.876C117.923 299.686 127.028 302.091 138.367 302.091ZM380.013 371.154C361.459 371.154 344.794 367.718 330.02 360.846C315.589 353.631 304.079 344.01 295.489 331.984C286.899 319.958 282.604 306.386 282.604 291.268C282.604 266.873 292.568 247.632 312.497 233.544C332.425 219.113 358.882 209.321 391.867 204.167L456.291 194.375V187.159C456.291 174.79 453.714 165.341 448.56 158.813C443.406 152.284 433.957 149.02 420.213 149.02C410.593 149.02 402.69 150.91 396.505 154.69C390.664 158.469 386.026 163.623 382.59 170.151C379.497 174.618 375.203 176.851 369.705 176.851H311.981C308.202 176.851 305.281 175.821 303.22 173.759C301.158 171.354 300.299 168.605 300.643 165.513C300.643 159.328 302.876 152.284 307.343 144.382C312.153 136.135 319.368 128.061 328.989 120.158C338.61 112.256 350.979 105.727 366.097 100.573C381.215 95.4196 399.426 92.8426 420.729 92.8426C443.062 92.8426 462.132 95.4196 477.937 100.573C493.743 105.727 506.456 112.943 516.076 122.22C526.04 131.497 533.428 142.492 538.238 155.205C543.048 167.574 545.453 181.318 545.453 196.436V353.115C545.453 356.895 544.079 359.987 541.33 362.392C538.925 364.797 536.005 366 532.569 366H472.783C469.004 366 465.911 364.797 463.506 362.392C461.101 359.987 459.898 356.895 459.898 353.115V335.077C455.432 341.605 449.419 347.618 441.86 353.115C434.301 358.613 425.367 362.908 415.059 366C405.095 369.436 393.413 371.154 380.013 371.154ZM404.236 312.399C414.2 312.399 423.134 310.338 431.037 306.215C439.283 301.748 445.639 295.048 450.106 286.114C454.916 276.837 457.322 265.327 457.322 251.583V244.368L413.513 252.099C397.364 254.847 385.51 259.142 377.951 264.983C370.736 270.481 367.128 277.009 367.128 284.568C367.128 290.409 368.846 295.391 372.282 299.515C375.718 303.638 380.185 306.902 385.682 309.307C391.18 311.369 397.364 312.399 404.236 312.399ZM647.936 371.154C629.382 371.154 612.717 367.718 597.943 360.846C583.512 353.631 572.001 344.01 563.412 331.984C554.822 319.958 550.527 306.386 550.527 291.268C550.527 266.873 560.491 247.632 580.42 233.544C600.348 219.113 626.805 209.321 659.79 204.167L724.214 194.375V187.159C724.214 174.79 721.637 165.341 716.483 158.813C711.329 152.284 701.88 149.02 688.136 149.02C678.516 149.02 670.613 150.91 664.428 154.69C658.587 158.469 653.949 163.623 650.513 170.151C647.42 174.618 643.125 176.851 637.628 176.851H579.904C576.125 176.851 573.204 175.821 571.142 173.759C569.081 171.354 568.222 168.605 568.566 165.513C568.566 159.328 570.799 152.284 575.266 144.382C580.076 136.135 587.291 128.061 596.912 120.158C606.533 112.256 618.902 105.727 634.02 100.573C649.138 95.4196 667.349 92.8426 688.652 92.8426C710.985 92.8426 730.055 95.4196 745.86 100.573C761.665 105.727 774.378 112.943 783.999 122.22C793.963 131.497 801.351 142.492 806.161 155.205C810.971 167.574 813.376 181.318 813.376 196.436V353.115C813.376 356.895 812.002 359.987 809.253 362.392C806.848 364.797 803.928 366 800.492 366H740.706C736.927 366 733.834 364.797 731.429 362.392C729.024 359.987 727.821 356.895 727.821 353.115V335.077C723.355 341.605 717.342 347.618 709.783 353.115C702.224 358.613 693.29 362.908 682.982 366C673.018 369.436 661.336 371.154 647.936 371.154ZM672.159 312.399C682.123 312.399 691.057 310.338 698.96 306.215C707.206 301.748 713.562 295.048 718.029 286.114C722.839 276.837 725.244 265.327 725.244 251.583V244.368L681.436 252.099C665.287 254.847 653.433 259.142 645.874 264.983C638.659 270.481 635.051 277.009 635.051 284.568C635.051 290.409 636.769 295.391 640.205 299.515C643.641 303.638 648.108 306.902 653.605 309.307C659.103 311.369 665.287 312.399 672.159 312.399ZM915.859 371.154C897.305 371.154 880.64 367.718 865.866 360.846C851.435 353.631 839.924 344.01 831.335 331.984C822.745 319.958 818.45 306.386 818.45 291.268C818.45 266.873 828.414 247.632 848.342 233.544C868.271 219.113 894.728 209.321 927.713 204.167L992.137 194.375V187.159C992.137 174.79 989.56 165.341 984.406 158.813C979.252 152.284 969.803 149.02 956.059 149.02C946.439 149.02 938.536 150.91 932.351 154.69C926.51 158.469 921.872 163.623 918.436 170.151C915.343 174.618 911.048 176.851 905.551 176.851H847.827C844.047 176.851 841.127 175.821 839.065 173.759C837.004 171.354 836.145 168.605 836.488 165.513C836.488 159.328 838.722 152.284 843.189 144.382C847.999 136.135 855.214 128.061 864.835 120.158C874.456 112.256 886.825 105.727 901.943 100.573C917.061 95.4196 935.272 92.8426 956.575 92.8426C978.908 92.8426 997.978 95.4196 1013.78 100.573C1029.59 105.727 1042.3 112.943 1051.92 122.22C1061.89 131.497 1069.27 142.492 1074.08 155.205C1078.89 167.574 1081.3 181.318 1081.3 196.436V353.115C1081.3 356.895 1079.92 359.987 1077.18 362.392C1074.77 364.797 1071.85 366 1068.41 366H1008.63C1004.85 366 1001.76 364.797 999.352 362.392C996.947 359.987 995.744 356.895 995.744 353.115V335.077C991.278 341.605 985.265 347.618 977.706 353.115C970.147 358.613 961.213 362.908 950.905 366C940.941 369.436 929.259 371.154 915.859 371.154ZM940.082 312.399C950.046 312.399 958.98 310.338 966.882 306.215C975.129 301.748 981.485 295.048 985.952 286.114C990.762 276.837 993.167 265.327 993.167 251.583V244.368L949.359 252.099C933.21 254.847 921.356 259.142 913.797 264.983C906.582 270.481 902.974 277.009 902.974 284.568C902.974 290.409 904.692 295.391 908.128 299.515C911.564 303.638 916.03 306.902 921.528 309.307C927.025 311.369 933.21 312.399 940.082 312.399ZM1183.78 371.154C1165.23 371.154 1148.56 367.718 1133.79 360.846C1119.36 353.631 1107.85 344.01 1099.26 331.984C1090.67 319.958 1086.37 306.386 1086.37 291.268C1086.37 266.873 1096.34 247.632 1116.27 233.544C1136.19 219.113 1162.65 209.321 1195.64 204.167L1260.06 194.375V187.159C1260.06 174.79 1257.48 165.341 1252.33 158.813C1247.17 152.284 1237.73 149.02 1223.98 149.02C1214.36 149.02 1206.46 150.91 1200.27 154.69C1194.43 158.469 1189.79 163.623 1186.36 170.151C1183.27 174.618 1178.97 176.851 1173.47 176.851H1115.75C1111.97 176.851 1109.05 175.821 1106.99 173.759C1104.93 171.354 1104.07 168.605 1104.41 165.513C1104.41 159.328 1106.64 152.284 1111.11 144.382C1115.92 136.135 1123.14 128.061 1132.76 120.158C1142.38 112.256 1154.75 105.727 1169.87 100.573C1184.98 95.4196 1203.19 92.8426 1224.5 92.8426C1246.83 92.8426 1265.9 95.4196 1281.71 100.573C1297.51 105.727 1310.22 112.943 1319.84 122.22C1329.81 131.497 1337.2 142.492 1342.01 155.205C1346.82 167.574 1349.22 181.318 1349.22 196.436V353.115C1349.22 356.895 1347.85 359.987 1345.1 362.392C1342.69 364.797 1339.77 366 1336.34 366H1276.55C1272.77 366 1269.68 364.797 1267.28 362.392C1264.87 359.987 1263.67 356.895 1263.67 353.115V335.077C1259.2 341.605 1253.19 347.618 1245.63 353.115C1238.07 358.613 1229.14 362.908 1218.83 366C1208.86 369.436 1197.18 371.154 1183.78 371.154ZM1208.01 312.399C1217.97 312.399 1226.9 310.338 1234.81 306.215C1243.05 301.748 1249.41 295.048 1253.87 286.114C1258.69 276.837 1261.09 265.327 1261.09 251.583V244.368L1217.28 252.099C1201.13 254.847 1189.28 259.142 1181.72 264.983C1174.5 270.481 1170.9 277.009 1170.9 284.568C1170.9 290.409 1172.61 295.391 1176.05 299.515C1179.49 303.638 1183.95 306.902 1189.45 309.307C1194.95 311.369 1201.13 312.399 1208.01 312.399ZM1451.7 371.154C1433.15 371.154 1416.49 367.718 1401.71 360.846C1387.28 353.631 1375.77 344.01 1367.18 331.984C1358.59 319.958 1354.3 306.386 1354.3 291.268C1354.3 266.873 1364.26 247.632 1384.19 233.544C1404.12 219.113 1430.57 209.321 1463.56 204.167L1527.98 194.375V187.159C1527.98 174.79 1525.41 165.341 1520.25 158.813C1515.1 152.284 1505.65 149.02 1491.91 149.02C1482.28 149.02 1474.38 150.91 1468.2 154.69C1462.36 158.469 1457.72 163.623 1454.28 170.151C1451.19 174.618 1446.89 176.851 1441.4 176.851H1383.67C1379.89 176.851 1376.97 175.821 1374.91 173.759C1372.85 171.354 1371.99 168.605 1372.33 165.513C1372.33 159.328 1374.57 152.284 1379.03 144.382C1383.84 136.135 1391.06 128.061 1400.68 120.158C1410.3 112.256 1422.67 105.727 1437.79 100.573C1452.91 95.4196 1471.12 92.8426 1492.42 92.8426C1514.75 92.8426 1533.82 95.4196 1549.63 100.573C1565.43 105.727 1578.15 112.943 1587.77 122.22C1597.73 131.497 1605.12 142.492 1609.93 155.205C1614.74 167.574 1617.15 181.318 1617.15 196.436V353.115C1617.15 356.895 1615.77 359.987 1613.02 362.392C1610.62 364.797 1607.7 366 1604.26 366H1544.47C1540.7 366 1537.6 364.797 1535.2 362.392C1532.79 359.987 1531.59 356.895 1531.59 353.115V335.077C1527.12 341.605 1521.11 347.618 1513.55 353.115C1505.99 358.613 1497.06 362.908 1486.75 366C1476.79 369.436 1465.1 371.154 1451.7 371.154ZM1475.93 312.399C1485.89 312.399 1494.83 310.338 1502.73 306.215C1510.97 301.748 1517.33 295.048 1521.8 286.114C1526.61 276.837 1529.01 265.327 1529.01 251.583V244.368L1485.2 252.099C1469.06 254.847 1457.2 259.142 1449.64 264.983C1442.43 270.481 1438.82 277.009 1438.82 284.568C1438.82 290.409 1440.54 295.391 1443.97 299.515C1447.41 303.638 1451.88 306.902 1457.37 309.307C1462.87 311.369 1469.06 312.399 1475.93 312.399ZM1652.11 366C1648.33 366 1645.24 364.797 1642.83 362.392C1640.43 359.987 1639.23 356.895 1639.23 353.115V110.881C1639.23 107.445 1640.43 104.525 1642.83 102.12C1645.24 99.3709 1648.33 97.9965 1652.11 97.9965H1711.38C1715.16 97.9965 1718.25 99.3709 1720.66 102.12C1723.06 104.525 1724.27 107.445 1724.27 110.881V131.497C1733.54 120.846 1744.54 112.599 1757.25 106.758C1770.31 100.917 1784.91 97.9965 1801.06 97.9965H1823.74C1827.17 97.9965 1830.09 99.1991 1832.5 101.604C1835.25 104.009 1836.62 107.102 1836.62 110.881V163.967C1836.62 167.403 1835.25 170.495 1832.5 173.244C1830.09 175.649 1827.17 176.851 1823.74 176.851H1773.74C1759.66 176.851 1748.66 180.803 1740.76 188.705C1733.2 196.264 1729.42 207.088 1729.42 221.175V353.115C1729.42 356.895 1728.05 359.987 1725.3 362.392C1722.89 364.797 1719.8 366 1716.02 366H1652.11Z"/>
</mask>
<path d="M110.536 371.154C94.0432 371.154 79.0968 368.577 65.6967 363.423C52.6401 357.926 41.3015 350.023 31.6808 339.715C22.4038 329.064 15.1883 316.351 10.0344 301.576C4.8805 286.458 1.95995 269.278 1.27276 250.037C0.929171 243.165 0.757375 237.152 0.757375 231.998C0.757375 226.501 0.929171 220.488 1.27276 213.96C1.95995 195.405 4.8805 178.741 10.0344 163.967C15.1883 149.192 22.4038 136.479 31.6808 125.828C40.9579 115.176 52.2965 107.102 65.6967 101.604C79.0968 95.7632 94.0432 92.8426 110.536 92.8426C127.715 92.8426 142.49 95.7632 154.859 101.604C167.229 107.102 177.708 114.317 186.298 123.251V12.957C186.298 9.17744 187.501 6.08511 189.906 3.67996C192.311 1.27479 195.403 0.0722032 199.183 0.0722032H262.061C265.497 0.0722032 268.417 1.27479 270.822 3.67996C273.571 6.08511 274.946 9.17744 274.946 12.957V353.115C274.946 356.895 273.571 359.987 270.822 362.392C268.417 364.797 265.497 366 262.061 366H203.822C200.042 366 196.95 364.797 194.544 362.392C192.139 359.987 190.937 356.895 190.937 353.115V336.623C182.69 346.587 172.039 354.833 158.982 361.361C145.926 367.89 129.777 371.154 110.536 371.154ZM138.367 302.091C150.049 302.091 159.154 299.686 165.683 294.876C172.554 289.722 177.537 283.194 180.629 275.291C184.065 267.388 185.955 258.799 186.298 249.522C186.642 242.65 186.814 236.121 186.814 229.937C186.814 223.752 186.642 217.396 186.298 210.867C185.955 202.277 184.065 194.375 180.629 187.159C177.193 179.6 172.039 173.587 165.167 169.121C158.295 164.31 149.362 161.905 138.367 161.905C127.028 161.905 117.923 164.31 111.051 169.121C104.523 173.931 99.8843 180.459 97.1355 188.705C94.3868 196.952 92.6688 206.057 91.9816 216.021C90.9508 226.673 90.9508 237.324 91.9816 247.975C92.6688 257.94 94.3868 267.045 97.1355 275.291C99.8843 283.537 104.523 290.066 111.051 294.876C117.923 299.686 127.028 302.091 138.367 302.091ZM380.013 371.154C361.459 371.154 344.794 367.718 330.02 360.846C315.589 353.631 304.079 344.01 295.489 331.984C286.899 319.958 282.604 306.386 282.604 291.268C282.604 266.873 292.568 247.632 312.497 233.544C332.425 219.113 358.882 209.321 391.867 204.167L456.291 194.375V187.159C456.291 174.79 453.714 165.341 448.56 158.813C443.406 152.284 433.957 149.02 420.213 149.02C410.593 149.02 402.69 150.91 396.505 154.69C390.664 158.469 386.026 163.623 382.59 170.151C379.497 174.618 375.203 176.851 369.705 176.851H311.981C308.202 176.851 305.281 175.821 303.22 173.759C301.158 171.354 300.299 168.605 300.643 165.513C300.643 159.328 302.876 152.284 307.343 144.382C312.153 136.135 319.368 128.061 328.989 120.158C338.61 112.256 350.979 105.727 366.097 100.573C381.215 95.4196 399.426 92.8426 420.729 92.8426C443.062 92.8426 462.132 95.4196 477.937 100.573C493.743 105.727 506.456 112.943 516.076 122.22C526.04 131.497 533.428 142.492 538.238 155.205C543.048 167.574 545.453 181.318 545.453 196.436V353.115C545.453 356.895 544.079 359.987 541.33 362.392C538.925 364.797 536.005 366 532.569 366H472.783C469.004 366 465.911 364.797 463.506 362.392C461.101 359.987 459.898 356.895 459.898 353.115V335.077C455.432 341.605 449.419 347.618 441.86 353.115C434.301 358.613 425.367 362.908 415.059 366C405.095 369.436 393.413 371.154 380.013 371.154ZM404.236 312.399C414.2 312.399 423.134 310.338 431.037 306.215C439.283 301.748 445.639 295.048 450.106 286.114C454.916 276.837 457.322 265.327 457.322 251.583V244.368L413.513 252.099C397.364 254.847 385.51 259.142 377.951 264.983C370.736 270.481 367.128 277.009 367.128 284.568C367.128 290.409 368.846 295.391 372.282 299.515C375.718 303.638 380.185 306.902 385.682 309.307C391.18 311.369 397.364 312.399 404.236 312.399ZM647.936 371.154C629.382 371.154 612.717 367.718 597.943 360.846C583.512 353.631 572.001 344.01 563.412 331.984C554.822 319.958 550.527 306.386 550.527 291.268C550.527 266.873 560.491 247.632 580.42 233.544C600.348 219.113 626.805 209.321 659.79 204.167L724.214 194.375V187.159C724.214 174.79 721.637 165.341 716.483 158.813C711.329 152.284 701.88 149.02 688.136 149.02C678.516 149.02 670.613 150.91 664.428 154.69C658.587 158.469 653.949 163.623 650.513 170.151C647.42 174.618 643.125 176.851 637.628 176.851H579.904C576.125 176.851 573.204 175.821 571.142 173.759C569.081 171.354 568.222 168.605 568.566 165.513C568.566 159.328 570.799 152.284 575.266 144.382C580.076 136.135 587.291 128.061 596.912 120.158C606.533 112.256 618.902 105.727 634.02 100.573C649.138 95.4196 667.349 92.8426 688.652 92.8426C710.985 92.8426 730.055 95.4196 745.86 100.573C761.665 105.727 774.378 112.943 783.999 122.22C793.963 131.497 801.351 142.492 806.161 155.205C810.971 167.574 813.376 181.318 813.376 196.436V353.115C813.376 356.895 812.002 359.987 809.253 362.392C806.848 364.797 803.928 366 800.492 366H740.706C736.927 366 733.834 364.797 731.429 362.392C729.024 359.987 727.821 356.895 727.821 353.115V335.077C723.355 341.605 717.342 347.618 709.783 353.115C702.224 358.613 693.29 362.908 682.982 366C673.018 369.436 661.336 371.154 647.936 371.154ZM672.159 312.399C682.123 312.399 691.057 310.338 698.96 306.215C707.206 301.748 713.562 295.048 718.029 286.114C722.839 276.837 725.244 265.327 725.244 251.583V244.368L681.436 252.099C665.287 254.847 653.433 259.142 645.874 264.983C638.659 270.481 635.051 277.009 635.051 284.568C635.051 290.409 636.769 295.391 640.205 299.515C643.641 303.638 648.108 306.902 653.605 309.307C659.103 311.369 665.287 312.399 672.159 312.399ZM915.859 371.154C897.305 371.154 880.64 367.718 865.866 360.846C851.435 353.631 839.924 344.01 831.335 331.984C822.745 319.958 818.45 306.386 818.45 291.268C818.45 266.873 828.414 247.632 848.342 233.544C868.271 219.113 894.728 209.321 927.713 204.167L992.137 194.375V187.159C992.137 174.79 989.56 165.341 984.406 158.813C979.252 152.284 969.803 149.02 956.059 149.02C946.439 149.02 938.536 150.91 932.351 154.69C926.51 158.469 921.872 163.623 918.436 170.151C915.343 174.618 911.048 176.851 905.551 176.851H847.827C844.047 176.851 841.127 175.821 839.065 173.759C837.004 171.354 836.145 168.605 836.488 165.513C836.488 159.328 838.722 152.284 843.189 144.382C847.999 136.135 855.214 128.061 864.835 120.158C874.456 112.256 886.825 105.727 901.943 100.573C917.061 95.4196 935.272 92.8426 956.575 92.8426C978.908 92.8426 997.978 95.4196 1013.78 100.573C1029.59 105.727 1042.3 112.943 1051.92 122.22C1061.89 131.497 1069.27 142.492 1074.08 155.205C1078.89 167.574 1081.3 181.318 1081.3 196.436V353.115C1081.3 356.895 1079.92 359.987 1077.18 362.392C1074.77 364.797 1071.85 366 1068.41 366H1008.63C1004.85 366 1001.76 364.797 999.352 362.392C996.947 359.987 995.744 356.895 995.744 353.115V335.077C991.278 341.605 985.265 347.618 977.706 353.115C970.147 358.613 961.213 362.908 950.905 366C940.941 369.436 929.259 371.154 915.859 371.154ZM940.082 312.399C950.046 312.399 958.98 310.338 966.882 306.215C975.129 301.748 981.485 295.048 985.952 286.114C990.762 276.837 993.167 265.327 993.167 251.583V244.368L949.359 252.099C933.21 254.847 921.356 259.142 913.797 264.983C906.582 270.481 902.974 277.009 902.974 284.568C902.974 290.409 904.692 295.391 908.128 299.515C911.564 303.638 916.03 306.902 921.528 309.307C927.025 311.369 933.21 312.399 940.082 312.399ZM1183.78 371.154C1165.23 371.154 1148.56 367.718 1133.79 360.846C1119.36 353.631 1107.85 344.01 1099.26 331.984C1090.67 319.958 1086.37 306.386 1086.37 291.268C1086.37 266.873 1096.34 247.632 1116.27 233.544C1136.19 219.113 1162.65 209.321 1195.64 204.167L1260.06 194.375V187.159C1260.06 174.79 1257.48 165.341 1252.33 158.813C1247.17 152.284 1237.73 149.02 1223.98 149.02C1214.36 149.02 1206.46 150.91 1200.27 154.69C1194.43 158.469 1189.79 163.623 1186.36 170.151C1183.27 174.618 1178.97 176.851 1173.47 176.851H1115.75C1111.97 176.851 1109.05 175.821 1106.99 173.759C1104.93 171.354 1104.07 168.605 1104.41 165.513C1104.41 159.328 1106.64 152.284 1111.11 144.382C1115.92 136.135 1123.14 128.061 1132.76 120.158C1142.38 112.256 1154.75 105.727 1169.87 100.573C1184.98 95.4196 1203.19 92.8426 1224.5 92.8426C1246.83 92.8426 1265.9 95.4196 1281.71 100.573C1297.51 105.727 1310.22 112.943 1319.84 122.22C1329.81 131.497 1337.2 142.492 1342.01 155.205C1346.82 167.574 1349.22 181.318 1349.22 196.436V353.115C1349.22 356.895 1347.85 359.987 1345.1 362.392C1342.69 364.797 1339.77 366 1336.34 366H1276.55C1272.77 366 1269.68 364.797 1267.28 362.392C1264.87 359.987 1263.67 356.895 1263.67 353.115V335.077C1259.2 341.605 1253.19 347.618 1245.63 353.115C1238.07 358.613 1229.14 362.908 1218.83 366C1208.86 369.436 1197.18 371.154 1183.78 371.154ZM1208.01 312.399C1217.97 312.399 1226.9 310.338 1234.81 306.215C1243.05 301.748 1249.41 295.048 1253.87 286.114C1258.69 276.837 1261.09 265.327 1261.09 251.583V244.368L1217.28 252.099C1201.13 254.847 1189.28 259.142 1181.72 264.983C1174.5 270.481 1170.9 277.009 1170.9 284.568C1170.9 290.409 1172.61 295.391 1176.05 299.515C1179.49 303.638 1183.95 306.902 1189.45 309.307C1194.95 311.369 1201.13 312.399 1208.01 312.399ZM1451.7 371.154C1433.15 371.154 1416.49 367.718 1401.71 360.846C1387.28 353.631 1375.77 344.01 1367.18 331.984C1358.59 319.958 1354.3 306.386 1354.3 291.268C1354.3 266.873 1364.26 247.632 1384.19 233.544C1404.12 219.113 1430.57 209.321 1463.56 204.167L1527.98 194.375V187.159C1527.98 174.79 1525.41 165.341 1520.25 158.813C1515.1 152.284 1505.65 149.02 1491.91 149.02C1482.28 149.02 1474.38 150.91 1468.2 154.69C1462.36 158.469 1457.72 163.623 1454.28 170.151C1451.19 174.618 1446.89 176.851 1441.4 176.851H1383.67C1379.89 176.851 1376.97 175.821 1374.91 173.759C1372.85 171.354 1371.99 168.605 1372.33 165.513C1372.33 159.328 1374.57 152.284 1379.03 144.382C1383.84 136.135 1391.06 128.061 1400.68 120.158C1410.3 112.256 1422.67 105.727 1437.79 100.573C1452.91 95.4196 1471.12 92.8426 1492.42 92.8426C1514.75 92.8426 1533.82 95.4196 1549.63 100.573C1565.43 105.727 1578.15 112.943 1587.77 122.22C1597.73 131.497 1605.12 142.492 1609.93 155.205C1614.74 167.574 1617.15 181.318 1617.15 196.436V353.115C1617.15 356.895 1615.77 359.987 1613.02 362.392C1610.62 364.797 1607.7 366 1604.26 366H1544.47C1540.7 366 1537.6 364.797 1535.2 362.392C1532.79 359.987 1531.59 356.895 1531.59 353.115V335.077C1527.12 341.605 1521.11 347.618 1513.55 353.115C1505.99 358.613 1497.06 362.908 1486.75 366C1476.79 369.436 1465.1 371.154 1451.7 371.154ZM1475.93 312.399C1485.89 312.399 1494.83 310.338 1502.73 306.215C1510.97 301.748 1517.33 295.048 1521.8 286.114C1526.61 276.837 1529.01 265.327 1529.01 251.583V244.368L1485.2 252.099C1469.06 254.847 1457.2 259.142 1449.64 264.983C1442.43 270.481 1438.82 277.009 1438.82 284.568C1438.82 290.409 1440.54 295.391 1443.97 299.515C1447.41 303.638 1451.88 306.902 1457.37 309.307C1462.87 311.369 1469.06 312.399 1475.93 312.399ZM1652.11 366C1648.33 366 1645.24 364.797 1642.83 362.392C1640.43 359.987 1639.23 356.895 1639.23 353.115V110.881C1639.23 107.445 1640.43 104.525 1642.83 102.12C1645.24 99.3709 1648.33 97.9965 1652.11 97.9965H1711.38C1715.16 97.9965 1718.25 99.3709 1720.66 102.12C1723.06 104.525 1724.27 107.445 1724.27 110.881V131.497C1733.54 120.846 1744.54 112.599 1757.25 106.758C1770.31 100.917 1784.91 97.9965 1801.06 97.9965H1823.74C1827.17 97.9965 1830.09 99.1991 1832.5 101.604C1835.25 104.009 1836.62 107.102 1836.62 110.881V163.967C1836.62 167.403 1835.25 170.495 1832.5 173.244C1830.09 175.649 1827.17 176.851 1823.74 176.851H1773.74C1759.66 176.851 1748.66 180.803 1740.76 188.705C1733.2 196.264 1729.42 207.088 1729.42 221.175V353.115C1729.42 356.895 1728.05 359.987 1725.3 362.392C1722.89 364.797 1719.8 366 1716.02 366H1652.11Z" fill="url(#paint0_linear_116_43)"/>
<path d="M65.6967 363.423L54.705 389.528L55.1142 389.701L55.5287 389.86L65.6967 363.423ZM31.6808 339.715L10.3216 358.318L10.6415 358.686L10.9738 359.042L31.6808 339.715ZM10.0344 301.576L-16.7753 310.716L-16.7429 310.811L-16.7099 310.905L10.0344 301.576ZM1.27276 250.037L29.5795 249.026L29.5723 248.824L29.5622 248.622L1.27276 250.037ZM1.27276 213.96L29.5584 215.448L29.57 215.228L29.5782 215.008L1.27276 213.96ZM10.0344 163.967L-16.7099 154.637H-16.7099L10.0344 163.967ZM31.6808 125.828L10.3216 107.224L10.3216 107.224L31.6808 125.828ZM65.6967 101.604L76.4475 127.81L76.7325 127.693L77.0149 127.57L65.6967 101.604ZM154.859 101.604L142.764 127.217L143.058 127.356L143.356 127.488L154.859 101.604ZM186.298 123.251L165.881 142.883L214.623 193.575V123.251H186.298ZM189.906 3.67996L209.935 23.7087L209.935 23.7086L189.906 3.67996ZM270.822 3.67996L250.794 23.7085L251.461 24.3755L252.17 24.9966L270.822 3.67996ZM270.822 362.392L252.17 341.076L251.461 341.697L250.794 342.364L270.822 362.392ZM190.937 336.623H219.262V257.97L169.115 318.564L190.937 336.623ZM158.982 361.361L146.315 336.027L158.982 361.361ZM165.683 294.876L182.485 317.679L182.581 317.608L182.677 317.536L165.683 294.876ZM180.629 275.291L154.653 263.997L154.443 264.48L154.252 264.97L180.629 275.291ZM186.298 249.522L158.009 248.107L158 248.29L157.993 248.473L186.298 249.522ZM186.298 210.867L157.996 211.999L158.003 212.178L158.013 212.356L186.298 210.867ZM180.629 187.159L154.843 198.88L154.947 199.11L155.056 199.337L180.629 187.159ZM165.167 169.121L148.924 192.325L149.323 192.604L149.73 192.869L165.167 169.121ZM111.051 169.121L94.8079 145.916L94.5259 146.113L94.2488 146.317L111.051 169.121ZM97.1355 188.705L124.007 197.663V197.662L97.1355 188.705ZM91.9816 216.021L120.175 218.749L120.212 218.36L120.239 217.97L91.9816 216.021ZM91.9816 247.975L120.239 246.027L120.212 245.636L120.175 245.247L91.9816 247.975ZM97.1355 275.291L124.007 266.334L97.1355 275.291ZM111.051 294.876L94.2488 317.679L94.5259 317.883L94.8079 318.081L111.051 294.876ZM110.536 342.829C97.0089 342.829 85.5753 340.721 75.8647 336.986L55.5287 389.86C72.6184 396.433 91.0774 399.479 110.536 399.479V342.829ZM76.6883 337.318C67.2938 333.362 59.2707 327.763 52.3878 320.389L10.9738 359.042C23.3323 372.283 37.9864 382.489 54.705 389.528L76.6883 337.318ZM53.0401 321.112C46.3749 313.459 40.8726 303.982 36.7787 292.247L-16.7099 310.905C-10.4959 328.719 -1.56727 344.668 10.3216 358.318L53.0401 321.112ZM36.8441 292.436C32.7453 280.413 30.1874 266.048 29.5795 249.026L-27.034 251.048C-26.2675 272.509 -22.9843 292.503 -16.7753 310.716L36.8441 292.436ZM29.5622 248.622C29.235 242.077 29.0822 236.555 29.0822 231.998H-27.5674C-27.5674 237.75 -27.3766 244.253 -27.0167 251.451L29.5622 248.622ZM29.0822 231.998C29.0822 227.079 29.2362 221.57 29.5584 215.448L-27.0129 212.471C-27.3779 219.406 -27.5674 225.922 -27.5674 231.998H29.0822ZM29.5782 215.008C30.1797 198.766 32.7097 184.96 36.7787 173.296L-16.7099 154.637C-22.9487 172.522 -26.2598 192.045 -27.0326 212.911L29.5782 215.008ZM36.7787 173.296C40.8726 161.56 46.3749 152.083 53.0401 144.431L10.3216 107.224C-1.56727 120.875 -10.4959 136.824 -16.7099 154.637L36.7787 173.296ZM53.0401 144.431C59.3457 137.191 67.0197 131.677 76.4475 127.81L54.9458 75.3991C37.5733 82.5262 22.5701 93.1614 10.3216 107.224L53.0401 144.431ZM77.0149 127.57C86.4138 123.473 97.4388 121.167 110.536 121.167V64.5178C90.6476 64.5178 71.7799 68.0538 54.3785 75.6391L77.0149 127.57ZM110.536 121.167C124.573 121.167 135.017 123.558 142.764 127.217L166.954 75.9916C149.963 67.9682 130.858 64.5178 110.536 64.5178V121.167ZM143.356 127.488C152.688 131.635 160.055 136.824 165.881 142.883L206.716 103.619C195.362 91.8104 181.77 82.5682 166.363 75.7207L143.356 127.488ZM214.623 123.251V12.957H157.973V123.251H214.623ZM214.623 12.957C214.623 14.0951 214.435 15.9197 213.599 18.0693C212.74 20.2771 211.438 22.2057 209.935 23.7087L169.877 -16.3488C161.546 -8.01795 157.973 2.58008 157.973 12.957H214.623ZM209.935 23.7086C208.432 25.2116 206.503 26.5144 204.295 27.373C202.146 28.2089 200.321 28.397 199.183 28.397V-28.2526C188.806 -28.2526 178.208 -24.6795 169.877 -16.3487L209.935 23.7086ZM199.183 28.397H262.061V-28.2526H199.183V28.397ZM262.061 28.397C260.406 28.397 258.294 28.0923 256.043 27.1654C253.787 26.2363 252.03 24.9448 250.794 23.7085L290.851 -16.3486C283.074 -24.1261 272.923 -28.2526 262.061 -28.2526V28.397ZM252.17 24.9966C250.7 23.71 249.143 21.8091 248.031 19.3069C246.93 16.8295 246.621 14.5656 246.621 12.957H303.27C303.27 1.33411 298.61 -9.64293 289.474 -17.6367L252.17 24.9966ZM246.621 12.957V353.115H303.27V12.957H246.621ZM246.621 353.115C246.621 351.507 246.93 349.243 248.031 346.765C249.143 344.263 250.7 342.362 252.17 341.076L289.474 383.709C298.61 375.715 303.27 364.738 303.27 353.115H246.621ZM250.794 342.364C252.03 341.127 253.787 339.836 256.043 338.907C258.294 337.98 260.406 337.675 262.061 337.675V394.325C272.923 394.325 283.074 390.198 290.851 382.421L250.794 342.364ZM262.061 337.675H203.822V394.325H262.061V337.675ZM203.822 337.675C204.96 337.675 206.784 337.863 208.934 338.699C211.142 339.558 213.07 340.861 214.573 342.364L174.516 382.421C182.847 390.752 193.445 394.325 203.822 394.325V337.675ZM214.573 342.364C216.076 343.867 217.379 345.795 218.238 348.003C219.073 350.153 219.262 351.977 219.262 353.115H162.612C162.612 363.492 166.185 374.09 174.516 382.421L214.573 342.364ZM219.262 353.115V336.623H162.612V353.115H219.262ZM169.115 318.564C163.686 325.125 156.301 331.034 146.315 336.027L171.65 386.696C187.777 378.632 201.695 368.049 212.758 354.682L169.115 318.564ZM146.315 336.027C138.238 340.065 126.722 342.829 110.536 342.829V399.479C132.832 399.479 153.613 395.714 171.65 386.696L146.315 336.027ZM138.367 330.416C153.529 330.416 169.364 327.347 182.485 317.679L148.88 272.073C148.878 272.075 148.846 272.098 148.778 272.138C148.709 272.178 148.597 272.239 148.433 272.315C148.105 272.467 147.556 272.682 146.724 272.902C145.017 273.353 142.325 273.767 138.367 273.767V330.416ZM182.677 317.536C193.709 309.262 201.97 298.483 207.006 285.613L154.252 264.97C153.103 267.904 151.4 270.182 148.688 272.216L182.677 317.536ZM206.605 286.585C211.555 275.199 214.139 263.103 214.604 250.57L157.993 248.473C157.77 254.494 156.575 259.578 154.653 263.997L206.605 286.585ZM214.588 250.936C214.952 243.645 215.138 236.642 215.138 229.937H158.489C158.489 235.601 158.331 241.655 158.009 248.107L214.588 250.936ZM215.138 229.937C215.138 223.228 214.952 216.375 214.584 209.378L158.013 212.356C158.332 218.416 158.489 224.276 158.489 229.937H215.138ZM214.6 209.735C214.115 197.61 211.407 185.912 206.202 174.981L155.056 199.337C156.723 202.838 157.794 206.945 157.996 211.999L214.6 209.735ZM206.415 175.438C200.777 163.034 192.063 152.82 180.604 145.372L149.73 192.869C152.015 194.354 153.609 196.166 154.843 198.88L206.415 175.438ZM181.41 145.916C168.496 136.876 153.383 133.58 138.367 133.58V190.23C145.34 190.23 148.095 191.745 148.924 192.325L181.41 145.916ZM138.367 133.58C123.221 133.58 107.854 136.783 94.8079 145.916L127.294 192.325C127.992 191.837 130.836 190.23 138.367 190.23V133.58ZM94.2488 146.317C82.6715 154.848 74.7206 166.379 70.2643 179.748L124.007 197.662C125.048 194.539 126.374 193.014 127.853 191.924L94.2488 146.317ZM70.2643 179.748C66.657 190.57 64.5517 202.069 63.7239 214.072L120.239 217.97C120.786 210.044 122.117 203.333 124.007 197.663L70.2643 179.748ZM63.7885 213.293C62.5821 225.759 62.5821 238.238 63.7885 250.704L120.175 245.247C119.32 236.41 119.32 227.586 120.175 218.749L63.7885 213.293ZM63.7239 249.924C64.5517 261.927 66.657 273.426 70.2643 284.248L124.007 266.334C122.117 260.663 120.786 253.952 120.239 246.027L63.7239 249.924ZM70.2643 284.248C74.7206 297.617 82.6715 309.148 94.2488 317.679L127.853 272.073C126.374 270.983 125.048 269.458 124.007 266.334L70.2643 284.248ZM94.8079 318.081C107.854 327.213 123.221 330.416 138.367 330.416V273.767C130.836 273.767 127.992 272.16 127.294 271.671L94.8079 318.081ZM330.02 360.846L317.353 386.181L317.711 386.36L318.074 386.529L330.02 360.846ZM295.489 331.984L272.44 348.448L295.489 331.984ZM312.497 233.544L328.847 256.674L328.979 256.581L329.109 256.486L312.497 233.544ZM391.867 204.167L387.61 176.164L387.552 176.173L387.494 176.182L391.867 204.167ZM456.291 194.375L460.547 222.378L484.616 218.719V194.375H456.291ZM448.56 158.813L470.792 141.261L448.56 158.813ZM396.505 154.69L381.735 130.521L381.424 130.711L381.118 130.909L396.505 154.69ZM382.59 170.151L405.878 186.274L406.855 184.863L407.655 183.343L382.59 170.151ZM303.22 173.759L281.714 192.193L282.422 193.019L283.191 193.788L303.22 173.759ZM300.643 165.513L328.794 168.641L328.967 167.082V165.513H300.643ZM307.343 144.382L282.876 130.11L282.779 130.276L282.684 130.444L307.343 144.382ZM328.989 120.158L311.01 98.271V98.271L328.989 120.158ZM366.097 100.573L356.958 73.7638L356.958 73.7638L366.097 100.573ZM477.937 100.573L486.719 73.6443L486.718 73.6442L477.937 100.573ZM516.076 122.22L496.415 142.609L496.594 142.782L496.775 142.951L516.076 122.22ZM538.238 155.205L511.746 165.229L511.792 165.35L511.839 165.471L538.238 155.205ZM541.33 362.392L522.678 341.076L521.969 341.697L521.302 342.364L541.33 362.392ZM459.898 335.077H488.223V243.518L436.522 319.082L459.898 335.077ZM441.86 353.115L425.2 330.208L441.86 353.115ZM415.059 366L406.92 338.87L406.37 339.035L405.826 339.223L415.059 366ZM431.037 306.215L444.139 331.327L444.334 331.225L444.527 331.12L431.037 306.215ZM450.106 286.114L424.961 273.076L424.865 273.261L424.772 273.447L450.106 286.114ZM457.322 244.368H485.646V210.607L452.399 216.474L457.322 244.368ZM413.513 252.099L418.266 280.022L418.351 280.007L418.436 279.992L413.513 252.099ZM377.951 264.983L395.117 287.514L395.194 287.455L395.27 287.396L377.951 264.983ZM372.282 299.515L350.522 317.648L350.522 317.648L372.282 299.515ZM385.682 309.307L374.329 335.257L375.025 335.561L375.737 335.828L385.682 309.307ZM380.013 342.829C365.013 342.829 352.511 340.069 341.965 335.163L318.074 386.529C337.077 395.367 357.905 399.479 380.013 399.479V342.829ZM342.687 335.512C332.001 330.169 324.201 323.45 318.538 315.521L272.44 348.448C283.956 364.57 299.177 377.093 317.353 386.181L342.687 335.512ZM318.538 315.521C313.462 308.416 310.929 300.628 310.929 291.268H254.279C254.279 312.145 260.335 331.501 272.44 348.448L318.538 315.521ZM310.929 291.268C310.929 276.074 316.424 265.455 328.847 256.674L296.147 210.415C268.712 229.809 254.279 257.672 254.279 291.268H310.929ZM329.109 256.486C344.356 245.445 366.174 236.85 396.24 232.152L387.494 176.182C351.589 181.792 320.494 192.782 295.884 210.603L329.109 256.486ZM396.123 232.17L460.547 222.378L452.034 166.372L387.61 176.164L396.123 232.17ZM484.616 194.375V187.159H427.966V194.375H484.616ZM484.616 187.159C484.616 171.398 481.408 154.709 470.792 141.261L426.328 176.364C426.019 175.973 427.966 178.182 427.966 187.159H484.616ZM470.792 141.261C457.565 124.508 437.05 120.695 420.213 120.695V177.345C425.032 177.345 427.493 177.941 428.359 178.241C429.008 178.465 427.733 178.143 426.328 176.364L470.792 141.261ZM420.213 120.695C407.041 120.695 393.598 123.271 381.735 130.521L411.275 178.859C411.782 178.549 414.144 177.345 420.213 177.345V120.695ZM381.118 130.909C370.948 137.489 363.083 146.398 357.525 156.959L407.655 183.343C408.968 180.848 410.38 179.449 411.893 178.47L381.118 130.909ZM359.301 154.029C360.053 152.942 361.562 151.305 363.982 150.046C366.389 148.794 368.527 148.527 369.705 148.527V205.176C384.364 205.176 397.42 198.491 405.878 186.274L359.301 154.029ZM369.705 148.527H311.981V205.176H369.705V148.527ZM311.981 148.527C312.619 148.527 314.232 148.609 316.383 149.368C318.657 150.171 321.104 151.586 323.248 153.73L283.191 193.788C292.008 202.605 303.012 205.176 311.981 205.176V148.527ZM324.725 155.326C325.945 156.748 327.238 158.799 328.065 161.445C328.895 164.104 329.02 166.609 328.794 168.641L272.491 162.385C271.263 173.433 274.651 183.953 281.714 192.193L324.725 155.326ZM328.967 165.513C328.967 165.827 328.913 165.428 329.318 164.153C329.726 162.865 330.523 160.935 332.001 158.319L282.684 130.444C276.862 140.746 272.318 152.683 272.318 165.513H328.967ZM331.809 158.654C334.498 154.044 339.196 148.43 346.968 142.046L311.01 98.271C299.541 107.692 289.808 118.227 282.876 130.11L331.809 158.654ZM346.968 142.046C353.336 136.815 362.469 131.736 375.237 127.383L356.958 73.7638C339.489 79.7189 323.884 87.6965 311.01 98.271L346.968 142.046ZM375.237 127.383C386.615 123.504 401.563 121.167 420.729 121.167V64.5178C397.289 64.5178 375.816 67.3348 356.958 73.7638L375.237 127.383ZM420.729 121.167C441.036 121.167 456.97 123.529 469.156 127.503L486.718 73.6442C467.293 67.31 445.089 64.5178 420.729 64.5178V121.167ZM469.156 127.503C481.857 131.644 490.538 136.943 496.415 142.609L535.737 101.83C522.373 88.9429 505.628 79.8104 486.719 73.6443L469.156 127.503ZM496.775 142.951C503.556 149.264 508.48 156.597 511.746 165.229L564.73 145.181C558.375 128.387 548.525 113.73 535.377 101.489L496.775 142.951ZM511.839 165.471C515.212 174.145 517.129 184.346 517.129 196.436H573.778C573.778 178.29 570.884 161.004 564.637 144.939L511.839 165.471ZM517.129 196.436V353.115H573.778V196.436H517.129ZM517.129 353.115C517.129 351.507 517.438 349.243 518.539 346.765C519.651 344.263 521.208 342.362 522.678 341.076L559.982 383.709C569.118 375.715 573.778 364.738 573.778 353.115H517.129ZM521.302 342.364C522.538 341.127 524.295 339.836 526.551 338.907C528.802 337.98 530.914 337.675 532.569 337.675V394.325C543.431 394.325 553.582 390.198 561.359 382.421L521.302 342.364ZM532.569 337.675H472.783V394.325H532.569V337.675ZM472.783 337.675C473.921 337.675 475.746 337.863 477.896 338.699C480.103 339.558 482.032 340.861 483.535 342.364L443.478 382.421C451.808 390.752 462.406 394.325 472.783 394.325V337.675ZM483.535 342.364C485.038 343.867 486.341 345.795 487.199 348.003C488.035 350.153 488.223 351.977 488.223 353.115H431.574C431.574 363.492 435.147 374.09 443.478 382.421L483.535 342.364ZM488.223 353.115V335.077H431.574V353.115H488.223ZM436.522 319.082C434.181 322.504 430.606 326.277 425.2 330.208L458.52 376.023C468.232 368.959 476.683 360.706 483.275 351.071L436.522 319.082ZM425.2 330.208C420.581 333.567 414.625 336.558 406.92 338.87L423.199 393.13C436.109 389.257 448.02 383.658 458.52 376.023L425.2 330.208ZM405.826 339.223C399.514 341.399 391.083 342.829 380.013 342.829V399.479C395.743 399.479 410.677 397.473 424.293 392.777L405.826 339.223ZM404.236 340.724C418.217 340.724 431.734 337.799 444.139 331.327L417.934 281.102C414.534 282.876 410.183 284.074 404.236 284.074V340.724ZM444.527 331.12C458.223 323.702 468.553 312.556 475.441 298.782L424.772 273.447C422.725 277.54 420.342 279.794 417.546 281.309L444.527 331.12ZM475.252 299.153C482.704 284.78 485.646 268.487 485.646 251.583H428.997C428.997 262.166 427.129 268.895 424.961 273.076L475.252 299.153ZM485.646 251.583V244.368H428.997V251.583H485.646ZM452.399 216.474L408.591 224.205L418.436 279.992L462.244 272.261L452.399 216.474ZM408.76 224.175C390.882 227.218 373.62 232.535 360.632 242.57L395.27 287.396C397.401 285.75 403.846 282.476 418.266 280.022L408.76 224.175ZM360.785 242.453C348.115 252.107 338.803 266.359 338.803 284.568H395.453C395.453 284.955 395.404 285.495 395.244 286.119C395.083 286.746 394.855 287.287 394.625 287.703C394.163 288.539 393.976 288.384 395.117 287.514L360.785 242.453ZM338.803 284.568C338.803 296.408 342.459 307.972 350.522 317.648L394.042 281.381C394.481 281.908 394.913 282.636 395.194 283.452C395.464 284.235 395.453 284.685 395.453 284.568H338.803ZM350.522 317.648C357.091 325.53 365.284 331.3 374.329 335.257L397.035 283.357C395.086 282.504 394.345 281.745 394.042 281.381L350.522 317.648ZM375.737 335.828C384.906 339.267 394.536 340.724 404.236 340.724V284.074C400.193 284.074 397.453 283.47 395.628 282.786L375.737 335.828ZM597.943 360.846L585.276 386.181L585.634 386.36L585.997 386.529L597.943 360.846ZM563.412 331.984L540.363 348.448L563.412 331.984ZM580.419 233.544L596.77 256.674L596.901 256.581L597.032 256.486L580.419 233.544ZM659.79 204.167L655.533 176.164L655.475 176.173L655.417 176.182L659.79 204.167ZM724.214 194.375L728.47 222.378L752.538 218.719V194.375H724.214ZM716.483 158.813L738.714 141.261L716.483 158.813ZM664.428 154.69L649.658 130.521L649.347 130.711L649.041 130.909L664.428 154.69ZM650.513 170.151L673.801 186.274L674.778 184.863L675.578 183.343L650.513 170.151ZM571.142 173.759L549.637 192.193L550.345 193.019L551.114 193.788L571.142 173.759ZM568.565 165.513L596.717 168.641L596.89 167.082V165.513H568.565ZM575.266 144.382L550.799 130.11L550.702 130.276L550.607 130.444L575.266 144.382ZM596.912 120.158L578.933 98.271V98.271L596.912 120.158ZM634.02 100.573L624.881 73.7638L624.88 73.7638L634.02 100.573ZM745.86 100.573L754.641 73.6443L754.641 73.6442L745.86 100.573ZM783.999 122.22L764.338 142.609L764.516 142.782L764.698 142.951L783.999 122.22ZM806.161 155.205L779.669 165.229L779.715 165.35L779.762 165.471L806.161 155.205ZM809.253 362.392L790.601 341.076L789.891 341.697L789.224 342.364L809.253 362.392ZM727.821 335.077H756.146V243.518L704.445 319.082L727.821 335.077ZM709.783 353.115L693.123 330.208L709.783 353.115ZM682.982 366L674.843 338.87L674.292 339.035L673.749 339.223L682.982 366ZM698.959 306.215L712.062 331.327L712.257 331.225L712.45 331.12L698.959 306.215ZM718.029 286.114L692.883 273.076L692.788 273.261L692.695 273.447L718.029 286.114ZM725.244 244.368H753.569V210.607L720.322 216.474L725.244 244.368ZM681.436 252.099L686.189 280.022L686.274 280.007L686.359 279.992L681.436 252.099ZM645.874 264.983L663.04 287.514L663.117 287.455L663.193 287.396L645.874 264.983ZM640.205 299.515L618.445 317.648V317.648L640.205 299.515ZM653.605 309.307L642.252 335.257L642.948 335.561L643.66 335.828L653.605 309.307ZM647.936 342.829C632.936 342.829 620.434 340.069 609.888 335.163L585.997 386.529C605 395.367 625.828 399.479 647.936 399.479V342.829ZM610.61 335.512C599.924 330.169 592.124 323.45 586.46 315.521L540.363 348.448C551.879 364.57 567.1 377.093 585.276 386.181L610.61 335.512ZM586.46 315.521C581.385 308.416 578.852 300.628 578.852 291.268H522.202C522.202 312.145 528.258 331.501 540.363 348.448L586.46 315.521ZM578.852 291.268C578.852 276.074 584.347 265.455 596.77 256.674L564.069 210.415C536.635 229.809 522.202 257.672 522.202 291.268H578.852ZM597.032 256.486C612.279 245.445 634.097 236.85 664.162 232.152L655.417 176.182C619.512 181.792 588.417 192.782 563.807 210.603L597.032 256.486ZM664.046 232.17L728.47 222.378L719.957 166.372L655.533 176.164L664.046 232.17ZM752.538 194.375V187.159H695.889V194.375H752.538ZM752.538 187.159C752.538 171.398 749.331 154.709 738.714 141.261L694.251 176.364C693.942 175.973 695.889 178.182 695.889 187.159H752.538ZM738.714 141.261C725.488 124.508 704.973 120.695 688.136 120.695V177.345C692.955 177.345 695.416 177.941 696.282 178.241C696.93 178.465 695.656 178.143 694.251 176.364L738.714 141.261ZM688.136 120.695C674.964 120.695 661.521 123.271 649.658 130.521L679.198 178.859C679.705 178.549 682.067 177.345 688.136 177.345V120.695ZM649.041 130.909C638.871 137.489 631.006 146.398 625.448 156.959L675.578 183.343C676.891 180.848 678.303 179.449 679.816 178.47L649.041 130.909ZM627.224 154.029C627.976 152.942 629.485 151.305 631.905 150.046C634.312 148.794 636.45 148.527 637.628 148.527V205.176C652.287 205.176 665.343 198.491 673.801 186.274L627.224 154.029ZM637.628 148.527H579.904V205.176H637.628V148.527ZM579.904 148.527C580.542 148.527 582.155 148.609 584.306 149.368C586.58 150.171 589.026 151.586 591.171 153.73L551.114 193.788C559.931 202.605 570.935 205.176 579.904 205.176V148.527ZM592.648 155.326C593.868 156.748 595.16 158.799 595.988 161.445C596.818 164.104 596.943 166.609 596.717 168.641L540.414 162.385C539.186 173.433 542.574 183.953 549.637 192.193L592.648 155.326ZM596.89 165.513C596.89 165.827 596.836 165.428 597.241 164.153C597.649 162.865 598.446 160.935 599.924 158.319L550.607 130.444C544.785 140.746 540.241 152.683 540.241 165.513H596.89ZM599.732 158.654C602.421 154.044 607.119 148.43 614.891 142.046L578.933 98.271C567.464 107.692 557.731 118.227 550.799 130.11L599.732 158.654ZM614.891 142.046C621.259 136.815 630.392 131.736 643.16 127.383L624.88 73.7638C607.412 79.7189 591.807 87.6965 578.933 98.271L614.891 142.046ZM643.16 127.383C654.538 123.504 669.486 121.167 688.652 121.167V64.5178C665.212 64.5178 643.739 67.3348 624.881 73.7638L643.16 127.383ZM688.652 121.167C708.959 121.167 724.893 123.529 737.079 127.503L754.641 73.6442C735.216 67.31 713.012 64.5178 688.652 64.5178V121.167ZM737.079 127.503C749.78 131.644 758.461 136.943 764.338 142.609L803.66 101.83C790.295 88.9429 773.551 79.8104 754.641 73.6443L737.079 127.503ZM764.698 142.951C771.479 149.264 776.403 156.597 779.669 165.229L832.653 145.181C826.298 128.387 816.447 113.73 803.3 101.489L764.698 142.951ZM779.762 165.471C783.135 174.145 785.052 184.346 785.052 196.436H841.701C841.701 178.29 838.807 161.004 832.56 144.939L779.762 165.471ZM785.052 196.436V353.115H841.701V196.436H785.052ZM785.052 353.115C785.052 351.507 785.361 349.243 786.462 346.765C787.574 344.263 789.131 342.362 790.601 341.076L827.905 383.709C837.041 375.715 841.701 364.738 841.701 353.115H785.052ZM789.224 342.364C790.461 341.127 792.218 339.836 794.474 338.907C796.725 337.98 798.837 337.675 800.492 337.675V394.325C811.354 394.325 821.505 390.198 829.282 382.421L789.224 342.364ZM800.492 337.675H740.706V394.325H800.492V337.675ZM740.706 337.675C741.844 337.675 743.669 337.863 745.818 338.699C748.026 339.558 749.955 340.861 751.458 342.364L711.4 382.421C719.731 390.752 730.329 394.325 740.706 394.325V337.675ZM751.458 342.364C752.961 343.867 754.264 345.795 755.122 348.003C755.958 350.153 756.146 351.977 756.146 353.115H699.497C699.497 363.492 703.07 374.09 711.4 382.421L751.458 342.364ZM756.146 353.115V335.077H699.497V353.115H756.146ZM704.445 319.082C702.104 322.504 698.529 326.277 693.123 330.208L726.443 376.023C736.155 368.959 744.606 360.706 751.198 351.071L704.445 319.082ZM693.123 330.208C688.504 333.567 682.548 336.558 674.843 338.87L691.121 393.13C704.032 389.257 715.943 383.658 726.443 376.023L693.123 330.208ZM673.749 339.223C667.437 341.399 659.006 342.829 647.936 342.829V399.479C663.666 399.479 678.6 397.473 692.216 392.777L673.749 339.223ZM672.159 340.724C686.14 340.724 699.657 337.799 712.062 331.327L685.857 281.102C682.457 282.876 678.106 284.074 672.159 284.074V340.724ZM712.45 331.12C726.146 323.702 736.476 312.556 743.363 298.782L692.695 273.447C690.648 277.54 688.265 279.794 685.469 281.309L712.45 331.12ZM743.174 299.153C750.627 284.78 753.569 268.487 753.569 251.583H696.92C696.92 262.166 695.052 268.895 692.883 273.076L743.174 299.153ZM753.569 251.583V244.368H696.92V251.583H753.569ZM720.322 216.474L676.514 224.205L686.359 279.992L730.167 272.261L720.322 216.474ZM676.683 224.175C658.805 227.218 641.543 232.535 628.555 242.57L663.193 287.396C665.324 285.75 671.769 282.476 686.189 280.022L676.683 224.175ZM628.708 242.453C616.038 252.107 606.726 266.359 606.726 284.568H663.376C663.376 284.955 663.327 285.495 663.167 286.119C663.006 286.746 662.778 287.287 662.548 287.703C662.086 288.539 661.899 288.384 663.04 287.514L628.708 242.453ZM606.726 284.568C606.726 296.408 610.382 307.972 618.445 317.648L661.965 281.381C662.404 281.908 662.836 282.636 663.117 283.452C663.387 284.235 663.376 284.685 663.376 284.568H606.726ZM618.445 317.648C625.014 325.53 633.207 331.3 642.252 335.257L664.958 283.357C663.009 282.504 662.268 281.745 661.965 281.381L618.445 317.648ZM643.66 335.828C652.829 339.267 662.459 340.724 672.159 340.724V284.074C668.116 284.074 665.376 283.47 663.551 282.786L643.66 335.828ZM865.866 360.846L853.198 386.181L853.557 386.36L853.92 386.529L865.866 360.846ZM831.335 331.984L808.286 348.448L831.335 331.984ZM848.342 233.544L864.693 256.674L864.824 256.581L864.955 256.486L848.342 233.544ZM927.713 204.167L923.456 176.164L923.398 176.173L923.34 176.182L927.713 204.167ZM992.137 194.375L996.393 222.378L1020.46 218.719V194.375H992.137ZM984.406 158.813L1006.64 141.261L984.406 158.813ZM932.351 154.69L917.581 130.521L917.27 130.711L916.964 130.909L932.351 154.69ZM918.436 170.151L941.724 186.274L942.701 184.863L943.501 183.343L918.436 170.151ZM839.065 173.759L817.56 192.193L818.268 193.019L819.037 193.788L839.065 173.759ZM836.488 165.513L864.64 168.641L864.813 167.082V165.513H836.488ZM843.189 144.382L818.722 130.11L818.625 130.276L818.53 130.444L843.189 144.382ZM864.835 120.158L846.856 98.271V98.271L864.835 120.158ZM901.943 100.573L892.803 73.7638L892.803 73.7638L901.943 100.573ZM1013.78 100.573L1022.56 73.6443V73.6442L1013.78 100.573ZM1051.92 122.22L1032.26 142.609L1032.44 142.782L1032.62 142.951L1051.92 122.22ZM1074.08 155.205L1047.59 165.229L1047.64 165.35L1047.68 165.471L1074.08 155.205ZM1077.18 362.392L1058.52 341.076L1057.81 341.697L1057.15 342.364L1077.18 362.392ZM995.744 335.077H1024.07V243.518L972.368 319.082L995.744 335.077ZM977.706 353.115L961.046 330.208L977.706 353.115ZM950.905 366L942.766 338.87L942.215 339.035L941.672 339.223L950.905 366ZM966.882 306.215L979.984 331.327L980.18 331.225L980.373 331.12L966.882 306.215ZM985.952 286.114L960.806 273.076L960.711 273.261L960.617 273.447L985.952 286.114ZM993.167 244.368H1021.49V210.607L988.245 216.474L993.167 244.368ZM949.359 252.099L954.112 280.022L954.197 280.007L954.282 279.992L949.359 252.099ZM913.797 264.983L930.963 287.514L931.04 287.455L931.116 287.396L913.797 264.983ZM908.128 299.515L886.368 317.648V317.648L908.128 299.515ZM921.528 309.307L910.175 335.257L910.871 335.561L911.582 335.828L921.528 309.307ZM915.859 342.829C900.859 342.829 888.357 340.069 877.811 335.163L853.92 386.529C872.923 395.367 893.75 399.479 915.859 399.479V342.829ZM878.533 335.512C867.847 330.169 860.047 323.45 854.383 315.521L808.286 348.448C819.802 364.57 835.023 377.093 853.198 386.181L878.533 335.512ZM854.383 315.521C849.308 308.416 846.775 300.628 846.775 291.268H790.125C790.125 312.145 796.181 331.501 808.286 348.448L854.383 315.521ZM846.775 291.268C846.775 276.074 852.27 265.455 864.693 256.674L831.992 210.415C804.558 229.809 790.125 257.672 790.125 291.268H846.775ZM864.955 256.486C880.202 245.445 902.02 236.85 932.085 232.152L923.34 176.182C887.435 181.792 856.34 192.782 831.73 210.603L864.955 256.486ZM931.969 232.17L996.393 222.378L987.88 166.372L923.456 176.164L931.969 232.17ZM1020.46 194.375V187.159H963.812V194.375H1020.46ZM1020.46 187.159C1020.46 171.398 1017.25 154.709 1006.64 141.261L962.174 176.364C961.865 175.973 963.812 178.182 963.812 187.159H1020.46ZM1006.64 141.261C993.411 124.508 972.896 120.695 956.059 120.695V177.345C960.878 177.345 963.339 177.941 964.205 178.241C964.853 178.465 963.579 178.143 962.174 176.364L1006.64 141.261ZM956.059 120.695C942.887 120.695 929.444 123.271 917.581 130.521L947.121 178.859C947.628 178.549 949.99 177.345 956.059 177.345V120.695ZM916.964 130.909C906.794 137.489 898.929 146.398 893.37 156.959L943.501 183.343C944.814 180.848 946.226 179.449 947.739 178.47L916.964 130.909ZM895.147 154.029C895.899 152.942 897.408 151.305 899.827 150.046C902.235 148.794 904.373 148.527 905.551 148.527V205.176C920.21 205.176 933.266 198.491 941.724 186.274L895.147 154.029ZM905.551 148.527H847.827V205.176H905.551V148.527ZM847.827 148.527C848.465 148.527 850.078 148.609 852.229 149.368C854.503 150.171 856.949 151.586 859.094 153.73L819.037 193.788C827.854 202.605 838.858 205.176 847.827 205.176V148.527ZM860.571 155.326C861.79 156.748 863.083 158.799 863.91 161.445C864.741 164.104 864.866 166.609 864.64 168.641L808.337 162.385C807.109 173.433 810.497 183.953 817.56 192.193L860.571 155.326ZM864.813 165.513C864.813 165.827 864.759 165.428 865.164 164.153C865.572 162.865 866.369 160.935 867.847 158.319L818.53 130.444C812.708 140.746 808.164 152.683 808.164 165.513H864.813ZM867.655 158.654C870.344 154.044 875.042 148.43 882.814 142.046L846.856 98.271C835.387 107.692 825.654 118.227 818.722 130.11L867.655 158.654ZM882.814 142.046C889.182 136.815 898.315 131.736 911.083 127.383L892.803 73.7638C875.335 79.7189 859.729 87.6965 846.856 98.271L882.814 142.046ZM911.083 127.383C922.461 123.504 937.409 121.167 956.575 121.167V64.5178C933.135 64.5178 911.662 67.3348 892.803 73.7638L911.083 127.383ZM956.575 121.167C976.882 121.167 992.816 123.529 1005 127.503L1022.56 73.6442C1003.14 67.31 980.935 64.5178 956.575 64.5178V121.167ZM1005 127.503C1017.7 131.644 1026.38 136.943 1032.26 142.609L1071.58 101.83C1058.22 88.9429 1041.47 79.8104 1022.56 73.6443L1005 127.503ZM1032.62 142.951C1039.4 149.264 1044.33 156.597 1047.59 165.229L1100.58 145.181C1094.22 128.387 1084.37 113.73 1071.22 101.489L1032.62 142.951ZM1047.68 165.471C1051.06 174.145 1052.97 184.346 1052.97 196.436H1109.62C1109.62 178.29 1106.73 161.004 1100.48 144.939L1047.68 165.471ZM1052.97 196.436V353.115H1109.62V196.436H1052.97ZM1052.97 353.115C1052.97 351.507 1053.28 349.243 1054.39 346.765C1055.5 344.263 1057.05 342.362 1058.52 341.076L1095.83 383.709C1104.96 375.715 1109.62 364.738 1109.62 353.115H1052.97ZM1057.15 342.364C1058.38 341.127 1060.14 339.836 1062.4 338.907C1064.65 337.98 1066.76 337.675 1068.41 337.675V394.325C1079.28 394.325 1089.43 390.198 1097.2 382.421L1057.15 342.364ZM1068.41 337.675H1008.63V394.325H1068.41V337.675ZM1008.63 337.675C1009.77 337.675 1011.59 337.863 1013.74 338.699C1015.95 339.558 1017.88 340.861 1019.38 342.364L979.323 382.421C987.654 390.752 998.252 394.325 1008.63 394.325V337.675ZM1019.38 342.364C1020.88 343.867 1022.19 345.795 1023.05 348.003C1023.88 350.153 1024.07 351.977 1024.07 353.115H967.419C967.419 363.492 970.993 374.09 979.323 382.421L1019.38 342.364ZM1024.07 353.115V335.077H967.419V353.115H1024.07ZM972.368 319.082C970.027 322.504 966.451 326.277 961.046 330.208L994.365 376.023C1004.08 368.959 1012.53 360.706 1019.12 351.071L972.368 319.082ZM961.046 330.208C956.427 333.567 950.471 336.558 942.766 338.87L959.044 393.13C971.955 389.257 983.866 383.658 994.365 376.023L961.046 330.208ZM941.672 339.223C935.359 341.399 926.929 342.829 915.859 342.829V399.479C931.589 399.479 946.523 397.473 960.139 392.777L941.672 339.223ZM940.082 340.724C954.063 340.724 967.58 337.799 979.984 331.327L953.78 281.102C950.38 282.876 946.029 284.074 940.082 284.074V340.724ZM980.373 331.12C994.069 323.702 1004.4 312.556 1011.29 298.782L960.617 273.447C958.571 277.54 956.188 279.794 953.392 281.309L980.373 331.12ZM1011.1 299.153C1018.55 284.78 1021.49 268.487 1021.49 251.583H964.843C964.843 262.166 962.974 268.895 960.806 273.076L1011.1 299.153ZM1021.49 251.583V244.368H964.843V251.583H1021.49ZM988.245 216.474L944.437 224.205L954.282 279.992L998.09 272.261L988.245 216.474ZM944.606 224.175C926.728 227.218 909.465 232.535 896.478 242.57L931.116 287.396C933.247 285.75 939.692 282.476 954.112 280.022L944.606 224.175ZM896.631 242.453C883.961 252.107 874.649 266.359 874.649 284.568H931.299C931.299 284.955 931.25 285.495 931.09 286.119C930.929 286.746 930.701 287.287 930.471 287.703C930.009 288.539 929.822 288.384 930.963 287.514L896.631 242.453ZM874.649 284.568C874.649 296.408 878.305 307.972 886.368 317.648L929.888 281.381C930.326 281.908 930.759 282.636 931.04 283.452C931.31 284.235 931.299 284.685 931.299 284.568H874.649ZM886.368 317.648C892.937 325.53 901.129 331.3 910.175 335.257L932.881 283.357C930.932 282.504 930.191 281.745 929.888 281.381L886.368 317.648ZM911.582 335.828C920.752 339.267 930.382 340.724 940.082 340.724V284.074C936.039 284.074 933.299 283.47 931.474 282.786L911.582 335.828ZM1133.79 360.846L1121.12 386.181L1121.48 386.36L1121.84 386.529L1133.79 360.846ZM1099.26 331.984L1076.21 348.448L1099.26 331.984ZM1116.27 233.544L1132.62 256.674L1132.75 256.581L1132.88 256.486L1116.27 233.544ZM1195.64 204.167L1191.38 176.164L1191.32 176.173L1191.26 176.182L1195.64 204.167ZM1260.06 194.375L1264.32 222.378L1288.38 218.719V194.375H1260.06ZM1252.33 158.813L1274.56 141.261L1252.33 158.813ZM1200.27 154.69L1185.5 130.521L1185.19 130.711L1184.89 130.909L1200.27 154.69ZM1186.36 170.151L1209.65 186.274L1210.62 184.863L1211.42 183.343L1186.36 170.151ZM1106.99 173.759L1085.48 192.193L1086.19 193.019L1086.96 193.788L1106.99 173.759ZM1104.41 165.513L1132.56 168.641L1132.74 167.082V165.513H1104.41ZM1111.11 144.382L1086.65 130.11L1086.55 130.276L1086.45 130.444L1111.11 144.382ZM1132.76 120.158L1114.78 98.271V98.271L1132.76 120.158ZM1169.87 100.573L1160.73 73.7638V73.7638L1169.87 100.573ZM1281.71 100.573L1290.49 73.6443V73.6442L1281.71 100.573ZM1319.84 122.22L1300.18 142.609L1300.36 142.782L1300.54 142.951L1319.84 122.22ZM1342.01 155.205L1315.52 165.229L1315.56 165.35L1315.61 165.471L1342.01 155.205ZM1345.1 362.392L1326.45 341.076L1325.74 341.697L1325.07 342.364L1345.1 362.392ZM1263.67 335.077H1291.99V243.518L1240.29 319.082L1263.67 335.077ZM1245.63 353.115L1228.97 330.208L1245.63 353.115ZM1218.83 366L1210.69 338.87L1210.14 339.035L1209.59 339.223L1218.83 366ZM1234.81 306.215L1247.91 331.327L1248.1 331.225L1248.3 331.12L1234.81 306.215ZM1253.87 286.114L1228.73 273.076L1228.63 273.261L1228.54 273.447L1253.87 286.114ZM1261.09 244.368H1289.42V210.607L1256.17 216.474L1261.09 244.368ZM1217.28 252.099L1222.03 280.022L1222.12 280.007L1222.2 279.992L1217.28 252.099ZM1181.72 264.983L1198.89 287.514L1198.96 287.455L1199.04 287.396L1181.72 264.983ZM1176.05 299.515L1154.29 317.648V317.648L1176.05 299.515ZM1189.45 309.307L1178.1 335.257L1178.79 335.561L1179.51 335.828L1189.45 309.307ZM1183.78 342.829C1168.78 342.829 1156.28 340.069 1145.73 335.163L1121.84 386.529C1140.85 395.367 1161.67 399.479 1183.78 399.479V342.829ZM1146.46 335.512C1135.77 330.169 1127.97 323.45 1122.31 315.521L1076.21 348.448C1087.72 364.57 1102.95 377.093 1121.12 386.181L1146.46 335.512ZM1122.31 315.521C1117.23 308.416 1114.7 300.628 1114.7 291.268H1058.05C1058.05 312.145 1064.1 331.501 1076.21 348.448L1122.31 315.521ZM1114.7 291.268C1114.7 276.074 1120.19 265.455 1132.62 256.674L1099.92 210.415C1072.48 229.809 1058.05 257.672 1058.05 291.268H1114.7ZM1132.88 256.486C1148.12 245.445 1169.94 236.85 1200.01 232.152L1191.26 176.182C1155.36 181.792 1124.26 192.782 1099.65 210.603L1132.88 256.486ZM1199.89 232.17L1264.32 222.378L1255.8 166.372L1191.38 176.164L1199.89 232.17ZM1288.38 194.375V187.159H1231.73V194.375H1288.38ZM1288.38 187.159C1288.38 171.398 1285.18 154.709 1274.56 141.261L1230.1 176.364C1229.79 175.973 1231.73 178.182 1231.73 187.159H1288.38ZM1274.56 141.261C1261.33 124.508 1240.82 120.695 1223.98 120.695V177.345C1228.8 177.345 1231.26 177.941 1232.13 178.241C1232.78 178.465 1231.5 178.143 1230.1 176.364L1274.56 141.261ZM1223.98 120.695C1210.81 120.695 1197.37 123.271 1185.5 130.521L1215.04 178.859C1215.55 178.549 1217.91 177.345 1223.98 177.345V120.695ZM1184.89 130.909C1174.72 137.489 1166.85 146.398 1161.29 156.959L1211.42 183.343C1212.74 180.848 1214.15 179.449 1215.66 178.47L1184.89 130.909ZM1163.07 154.029C1163.82 152.942 1165.33 151.305 1167.75 150.046C1170.16 148.794 1172.3 148.527 1173.47 148.527V205.176C1188.13 205.176 1201.19 198.491 1209.65 186.274L1163.07 154.029ZM1173.47 148.527H1115.75V205.176H1173.47V148.527ZM1115.75 148.527C1116.39 148.527 1118 148.609 1120.15 149.368C1122.43 150.171 1124.87 151.586 1127.02 153.73L1086.96 193.788C1095.78 202.605 1106.78 205.176 1115.75 205.176V148.527ZM1128.49 155.326C1129.71 156.748 1131.01 158.799 1131.83 161.445C1132.66 164.104 1132.79 166.609 1132.56 168.641L1076.26 162.385C1075.03 173.433 1078.42 183.953 1085.48 192.193L1128.49 155.326ZM1132.74 165.513C1132.74 165.827 1132.68 165.428 1133.09 164.153C1133.49 162.865 1134.29 160.935 1135.77 158.319L1086.45 130.444C1080.63 140.746 1076.09 152.683 1076.09 165.513H1132.74ZM1135.58 158.654C1138.27 154.044 1142.97 148.43 1150.74 142.046L1114.78 98.271C1103.31 107.692 1093.58 118.227 1086.65 130.11L1135.58 158.654ZM1150.74 142.046C1157.1 136.815 1166.24 131.736 1179.01 127.383L1160.73 73.7638C1143.26 79.7189 1127.65 87.6965 1114.78 98.271L1150.74 142.046ZM1179.01 127.383C1190.38 123.504 1205.33 121.167 1224.5 121.167V64.5178C1201.06 64.5178 1179.58 67.3348 1160.73 73.7638L1179.01 127.383ZM1224.5 121.167C1244.8 121.167 1260.74 123.529 1272.92 127.503L1290.49 73.6442C1271.06 67.31 1248.86 64.5178 1224.5 64.5178V121.167ZM1272.92 127.503C1285.63 131.644 1294.31 136.943 1300.18 142.609L1339.51 101.83C1326.14 88.9429 1309.4 79.8104 1290.49 73.6443L1272.92 127.503ZM1300.54 142.951C1307.33 149.264 1312.25 156.597 1315.52 165.229L1368.5 145.181C1362.14 128.387 1352.29 113.73 1339.15 101.489L1300.54 142.951ZM1315.61 165.471C1318.98 174.145 1320.9 184.346 1320.9 196.436H1377.55C1377.55 178.29 1374.65 161.004 1368.41 144.939L1315.61 165.471ZM1320.9 196.436V353.115H1377.55V196.436H1320.9ZM1320.9 353.115C1320.9 351.507 1321.21 349.243 1322.31 346.765C1323.42 344.263 1324.98 342.362 1326.45 341.076L1363.75 383.709C1372.89 375.715 1377.55 364.738 1377.55 353.115H1320.9ZM1325.07 342.364C1326.31 341.127 1328.06 339.836 1330.32 338.907C1332.57 337.98 1334.68 337.675 1336.34 337.675V394.325C1347.2 394.325 1357.35 390.198 1365.13 382.421L1325.07 342.364ZM1336.34 337.675H1276.55V394.325H1336.34V337.675ZM1276.55 337.675C1277.69 337.675 1279.51 337.863 1281.66 338.699C1283.87 339.558 1285.8 340.861 1287.3 342.364L1247.25 382.421C1255.58 390.752 1266.18 394.325 1276.55 394.325V337.675ZM1287.3 342.364C1288.81 343.867 1290.11 345.795 1290.97 348.003C1291.8 350.153 1291.99 351.977 1291.99 353.115H1235.34C1235.34 363.492 1238.92 374.09 1247.25 382.421L1287.3 342.364ZM1291.99 353.115V335.077H1235.34V353.115H1291.99ZM1240.29 319.082C1237.95 322.504 1234.37 326.277 1228.97 330.208L1262.29 376.023C1272 368.959 1280.45 360.706 1287.04 351.071L1240.29 319.082ZM1228.97 330.208C1224.35 333.567 1218.39 336.558 1210.69 338.87L1226.97 393.13C1239.88 389.257 1251.79 383.658 1262.29 376.023L1228.97 330.208ZM1209.59 339.223C1203.28 341.399 1194.85 342.829 1183.78 342.829V399.479C1199.51 399.479 1214.45 397.473 1228.06 392.777L1209.59 339.223ZM1208.01 340.724C1221.99 340.724 1235.5 337.799 1247.91 331.327L1221.7 281.102C1218.3 282.876 1213.95 284.074 1208.01 284.074V340.724ZM1248.3 331.12C1261.99 323.702 1272.32 312.556 1279.21 298.782L1228.54 273.447C1226.49 277.54 1224.11 279.794 1221.31 281.309L1248.3 331.12ZM1279.02 299.153C1286.47 284.78 1289.42 268.487 1289.42 251.583H1232.77C1232.77 262.166 1230.9 268.895 1228.73 273.076L1279.02 299.153ZM1289.42 251.583V244.368H1232.77V251.583H1289.42ZM1256.17 216.474L1212.36 224.205L1222.2 279.992L1266.01 272.261L1256.17 216.474ZM1212.53 224.175C1194.65 227.218 1177.39 232.535 1164.4 242.57L1199.04 287.396C1201.17 285.75 1207.62 282.476 1222.03 280.022L1212.53 224.175ZM1164.55 242.453C1151.88 252.107 1142.57 266.359 1142.57 284.568H1199.22C1199.22 284.955 1199.17 285.495 1199.01 286.119C1198.85 286.746 1198.62 287.287 1198.39 287.703C1197.93 288.539 1197.74 288.384 1198.89 287.514L1164.55 242.453ZM1142.57 284.568C1142.57 296.408 1146.23 307.972 1154.29 317.648L1197.81 281.381C1198.25 281.908 1198.68 282.636 1198.96 283.452C1199.23 284.235 1199.22 284.685 1199.22 284.568H1142.57ZM1154.29 317.648C1160.86 325.53 1169.05 331.3 1178.1 335.257L1200.8 283.357C1198.85 282.504 1198.11 281.745 1197.81 281.381L1154.29 317.648ZM1179.51 335.828C1188.67 339.267 1198.3 340.724 1208.01 340.724V284.074C1203.96 284.074 1201.22 283.47 1199.4 282.786L1179.51 335.828ZM1401.71 360.846L1389.04 386.181L1389.4 386.36L1389.77 386.529L1401.71 360.846ZM1367.18 331.984L1344.13 348.448L1367.18 331.984ZM1384.19 233.544L1400.54 256.674L1400.67 256.581L1400.8 256.486L1384.19 233.544ZM1463.56 204.167L1459.3 176.164L1459.24 176.173L1459.19 176.182L1463.56 204.167ZM1527.98 194.375L1532.24 222.378L1556.31 218.719V194.375H1527.98ZM1520.25 158.813L1542.48 141.261L1520.25 158.813ZM1468.2 154.69L1453.43 130.521L1453.12 130.711L1452.81 130.909L1468.2 154.69ZM1454.28 170.151L1477.57 186.274L1478.55 184.863L1479.35 183.343L1454.28 170.151ZM1374.91 173.759L1353.41 192.193L1354.11 193.019L1354.88 193.788L1374.91 173.759ZM1372.33 165.513L1400.49 168.641L1400.66 167.082V165.513H1372.33ZM1379.03 144.382L1354.57 130.11L1354.47 130.276L1354.38 130.444L1379.03 144.382ZM1400.68 120.158L1382.7 98.271V98.271L1400.68 120.158ZM1437.79 100.573L1428.65 73.7638V73.7638L1437.79 100.573ZM1549.63 100.573L1558.41 73.6443V73.6442L1549.63 100.573ZM1587.77 122.22L1568.11 142.609L1568.29 142.782L1568.47 142.951L1587.77 122.22ZM1609.93 155.205L1583.44 165.229L1583.48 165.35L1583.53 165.471L1609.93 155.205ZM1613.02 362.392L1594.37 341.076L1593.66 341.697L1592.99 342.364L1613.02 362.392ZM1531.59 335.077H1559.91V243.518L1508.21 319.082L1531.59 335.077ZM1513.55 353.115L1496.89 330.208L1513.55 353.115ZM1486.75 366L1478.61 338.87L1478.06 339.035L1477.52 339.223L1486.75 366ZM1502.73 306.215L1515.83 331.327L1516.03 331.225L1516.22 331.12L1502.73 306.215ZM1521.8 286.114L1496.65 273.076L1496.56 273.261L1496.46 273.447L1521.8 286.114ZM1529.01 244.368H1557.34V210.607L1524.09 216.474L1529.01 244.368ZM1485.2 252.099L1489.96 280.022L1490.04 280.007L1490.13 279.992L1485.2 252.099ZM1449.64 264.983L1466.81 287.514L1466.89 287.455L1466.96 287.396L1449.64 264.983ZM1443.97 299.515L1422.21 317.648V317.648L1443.97 299.515ZM1457.37 309.307L1446.02 335.257L1446.72 335.561L1447.43 335.828L1457.37 309.307ZM1451.7 342.829C1436.7 342.829 1424.2 340.069 1413.66 335.163L1389.77 386.529C1408.77 395.367 1429.6 399.479 1451.7 399.479V342.829ZM1414.38 335.512C1403.69 330.169 1395.89 323.45 1390.23 315.521L1344.13 348.448C1355.65 364.57 1370.87 377.093 1389.04 386.181L1414.38 335.512ZM1390.23 315.521C1385.15 308.416 1382.62 300.628 1382.62 291.268H1325.97C1325.97 312.145 1332.03 331.501 1344.13 348.448L1390.23 315.521ZM1382.62 291.268C1382.62 276.074 1388.12 265.455 1400.54 256.674L1367.84 210.415C1340.4 229.809 1325.97 257.672 1325.97 291.268H1382.62ZM1400.8 256.486C1416.05 245.445 1437.87 236.85 1467.93 232.152L1459.19 176.182C1423.28 181.792 1392.19 192.782 1367.58 210.603L1400.8 256.486ZM1467.81 232.17L1532.24 222.378L1523.73 166.372L1459.3 176.164L1467.81 232.17ZM1556.31 194.375V187.159H1499.66V194.375H1556.31ZM1556.31 187.159C1556.31 171.398 1553.1 154.709 1542.48 141.261L1498.02 176.364C1497.71 175.973 1499.66 178.182 1499.66 187.159H1556.31ZM1542.48 141.261C1529.26 124.508 1508.74 120.695 1491.91 120.695V177.345C1496.72 177.345 1499.18 177.941 1500.05 178.241C1500.7 178.465 1499.42 178.143 1498.02 176.364L1542.48 141.261ZM1491.91 120.695C1478.73 120.695 1465.29 123.271 1453.43 130.521L1482.97 178.859C1483.47 178.549 1485.84 177.345 1491.91 177.345V120.695ZM1452.81 130.909C1442.64 137.489 1434.77 146.398 1429.22 156.959L1479.35 183.343C1480.66 180.848 1482.07 179.449 1483.58 178.47L1452.81 130.909ZM1430.99 154.029C1431.75 152.942 1433.25 151.305 1435.67 150.046C1438.08 148.794 1440.22 148.527 1441.4 148.527V205.176C1456.06 205.176 1469.11 198.491 1477.57 186.274L1430.99 154.029ZM1441.4 148.527H1383.67V205.176H1441.4V148.527ZM1383.67 148.527C1384.31 148.527 1385.92 148.609 1388.07 149.368C1390.35 150.171 1392.8 151.586 1394.94 153.73L1354.88 193.788C1363.7 202.605 1374.7 205.176 1383.67 205.176V148.527ZM1396.42 155.326C1397.64 156.748 1398.93 158.799 1399.76 161.445C1400.59 164.104 1400.71 166.609 1400.49 168.641L1344.18 162.385C1342.96 173.433 1346.34 183.953 1353.41 192.193L1396.42 155.326ZM1400.66 165.513C1400.66 165.827 1400.6 165.428 1401.01 164.153C1401.42 162.865 1402.21 160.935 1403.69 158.319L1354.38 130.444C1348.55 140.746 1344.01 152.683 1344.01 165.513H1400.66ZM1403.5 158.654C1406.19 154.044 1410.89 148.43 1418.66 142.046L1382.7 98.271C1371.23 107.692 1361.5 118.227 1354.57 130.11L1403.5 158.654ZM1418.66 142.046C1425.03 136.815 1434.16 131.736 1446.93 127.383L1428.65 73.7638C1411.18 79.7189 1395.58 87.6965 1382.7 98.271L1418.66 142.046ZM1446.93 127.383C1458.31 123.504 1473.25 121.167 1492.42 121.167V64.5178C1468.98 64.5178 1447.51 67.3348 1428.65 73.7638L1446.93 127.383ZM1492.42 121.167C1512.73 121.167 1528.66 123.529 1540.85 127.503L1558.41 73.6442C1538.98 67.31 1516.78 64.5178 1492.42 64.5178V121.167ZM1540.85 127.503C1553.55 131.644 1562.23 136.943 1568.11 142.609L1607.43 101.83C1594.06 88.9429 1577.32 79.8104 1558.41 73.6443L1540.85 127.503ZM1568.47 142.951C1575.25 149.264 1580.17 156.597 1583.44 165.229L1636.42 145.181C1630.07 128.387 1620.22 113.73 1607.07 101.489L1568.47 142.951ZM1583.53 165.471C1586.9 174.145 1588.82 184.346 1588.82 196.436H1645.47C1645.47 178.29 1642.58 161.004 1636.33 144.939L1583.53 165.471ZM1588.82 196.436V353.115H1645.47V196.436H1588.82ZM1588.82 353.115C1588.82 351.507 1589.13 349.243 1590.23 346.765C1591.34 344.263 1592.9 342.362 1594.37 341.076L1631.67 383.709C1640.81 375.715 1645.47 364.738 1645.47 353.115H1588.82ZM1592.99 342.364C1594.23 341.127 1595.99 339.836 1598.24 338.907C1600.49 337.98 1602.61 337.675 1604.26 337.675V394.325C1615.12 394.325 1625.27 390.198 1633.05 382.421L1592.99 342.364ZM1604.26 337.675H1544.47V394.325H1604.26V337.675ZM1544.47 337.675C1545.61 337.675 1547.44 337.863 1549.59 338.699C1551.8 339.558 1553.72 340.861 1555.23 342.364L1515.17 382.421C1523.5 390.752 1534.1 394.325 1544.47 394.325V337.675ZM1555.23 342.364C1556.73 343.867 1558.03 345.795 1558.89 348.003C1559.73 350.153 1559.91 351.977 1559.91 353.115H1503.27C1503.27 363.492 1506.84 374.09 1515.17 382.421L1555.23 342.364ZM1559.91 353.115V335.077H1503.27V353.115H1559.91ZM1508.21 319.082C1505.87 322.504 1502.3 326.277 1496.89 330.208L1530.21 376.023C1539.92 368.959 1548.37 360.706 1554.97 351.071L1508.21 319.082ZM1496.89 330.208C1492.27 333.567 1486.32 336.558 1478.61 338.87L1494.89 393.13C1507.8 389.257 1519.71 383.658 1530.21 376.023L1496.89 330.208ZM1477.52 339.223C1471.21 341.399 1462.77 342.829 1451.7 342.829V399.479C1467.43 399.479 1482.37 397.473 1495.98 392.777L1477.52 339.223ZM1475.93 340.724C1489.91 340.724 1503.43 337.799 1515.83 331.327L1489.63 281.102C1486.23 282.876 1481.88 284.074 1475.93 284.074V340.724ZM1516.22 331.12C1529.92 323.702 1540.24 312.556 1547.13 298.782L1496.46 273.447C1494.42 277.54 1492.03 279.794 1489.24 281.309L1516.22 331.12ZM1546.94 299.153C1554.4 284.78 1557.34 268.487 1557.34 251.583H1500.69C1500.69 262.166 1498.82 268.895 1496.65 273.076L1546.94 299.153ZM1557.34 251.583V244.368H1500.69V251.583H1557.34ZM1524.09 216.474L1480.28 224.205L1490.13 279.992L1533.94 272.261L1524.09 216.474ZM1480.45 224.175C1462.57 227.218 1445.31 232.535 1432.32 242.57L1466.96 287.396C1469.09 285.75 1475.54 282.476 1489.96 280.022L1480.45 224.175ZM1432.48 242.453C1419.81 252.107 1410.49 266.359 1410.49 284.568H1467.14C1467.14 284.955 1467.1 285.495 1466.94 286.119C1466.78 286.746 1466.55 287.287 1466.32 287.703C1465.85 288.539 1465.67 288.384 1466.81 287.514L1432.48 242.453ZM1410.49 284.568C1410.49 296.408 1414.15 307.972 1422.21 317.648L1465.73 281.381C1466.17 281.908 1466.6 282.636 1466.89 283.452C1467.16 284.235 1467.14 284.685 1467.14 284.568H1410.49ZM1422.21 317.648C1428.78 325.53 1436.98 331.3 1446.02 335.257L1468.73 283.357C1466.78 282.504 1466.04 281.745 1465.73 281.381L1422.21 317.648ZM1447.43 335.828C1456.6 339.267 1466.23 340.724 1475.93 340.724V284.074C1471.88 284.074 1469.15 283.47 1467.32 282.786L1447.43 335.828ZM1642.83 362.392L1622.81 382.421L1642.83 362.392ZM1642.83 102.12L1662.86 122.148L1663.53 121.481L1664.15 120.772L1642.83 102.12ZM1720.66 102.12L1699.34 120.772L1699.96 121.481L1700.63 122.148L1720.66 102.12ZM1724.27 131.497H1695.94V207.145L1745.63 150.1L1724.27 131.497ZM1757.25 106.758L1745.68 80.9028L1745.55 80.9608L1745.43 81.0201L1757.25 106.758ZM1832.5 101.604L1812.47 121.633L1813.14 122.3L1813.85 122.921L1832.5 101.604ZM1740.76 188.705L1760.79 208.734V208.734L1740.76 188.705ZM1725.3 362.392L1706.64 341.076L1705.94 341.697L1705.27 342.364L1725.3 362.392ZM1652.11 337.675C1653.25 337.675 1655.07 337.863 1657.22 338.699C1659.43 339.558 1661.36 340.861 1662.86 342.364L1622.81 382.421C1631.14 390.752 1641.73 394.325 1652.11 394.325V337.675ZM1662.86 342.364C1664.37 343.867 1665.67 345.795 1666.53 348.003C1667.36 350.153 1667.55 351.977 1667.55 353.115H1610.9C1610.9 363.492 1614.47 374.09 1622.81 382.421L1662.86 342.364ZM1667.55 353.115V110.881H1610.9V353.115H1667.55ZM1667.55 110.881C1667.55 112.536 1667.25 114.648 1666.32 116.899C1665.39 119.155 1664.1 120.912 1662.86 122.148L1622.81 82.0911C1615.03 89.8684 1610.9 100.019 1610.9 110.881H1667.55ZM1664.15 120.772C1662.86 122.242 1660.96 123.799 1658.46 124.911C1655.98 126.012 1653.72 126.321 1652.11 126.321V69.6717C1640.49 69.6717 1629.51 74.3319 1621.52 83.4677L1664.15 120.772ZM1652.11 126.321H1711.38V69.6717H1652.11V126.321ZM1711.38 126.321C1709.77 126.321 1707.51 126.012 1705.03 124.911C1702.53 123.799 1700.63 122.242 1699.34 120.772L1741.97 83.4677C1733.98 74.3319 1723 69.6717 1711.38 69.6717V126.321ZM1700.63 122.148C1699.39 120.912 1698.1 119.155 1697.17 116.899C1696.25 114.648 1695.94 112.536 1695.94 110.881H1752.59C1752.59 100.019 1748.46 89.8684 1740.69 82.091L1700.63 122.148ZM1695.94 110.881V131.497H1752.59V110.881H1695.94ZM1745.63 150.1C1752.29 142.446 1760.05 136.645 1769.08 132.496L1745.43 81.0201C1729.03 88.5536 1714.79 99.2454 1702.91 112.894L1745.63 150.1ZM1768.82 132.614C1777.79 128.598 1788.38 126.321 1801.06 126.321V69.6717C1781.44 69.6717 1762.82 73.2359 1745.68 80.9028L1768.82 132.614ZM1801.06 126.321H1823.74V69.6717H1801.06V126.321ZM1823.74 126.321C1822.08 126.321 1819.97 126.017 1817.72 125.09C1815.46 124.161 1813.71 122.869 1812.47 121.633L1852.53 81.5757C1844.75 73.7982 1834.6 69.6717 1823.74 69.6717V126.321ZM1813.85 122.921C1812.38 121.634 1810.82 119.733 1809.71 117.231C1808.61 114.754 1808.3 112.49 1808.3 110.881H1864.95C1864.95 99.2585 1860.29 88.2814 1851.15 80.2876L1813.85 122.921ZM1808.3 110.881V163.967H1864.95V110.881H1808.3ZM1808.3 163.967C1808.3 161.784 1808.76 159.491 1809.71 157.359C1810.63 155.293 1811.75 153.938 1812.47 153.215L1852.53 193.272C1859.83 185.972 1864.95 175.926 1864.95 163.967H1808.3ZM1812.47 153.215C1813.71 151.979 1815.46 150.687 1817.72 149.758C1819.97 148.831 1822.08 148.527 1823.74 148.527V205.176C1834.6 205.176 1844.75 201.05 1852.53 193.272L1812.47 153.215ZM1823.74 148.527H1773.74V205.176H1823.74V148.527ZM1773.74 148.527C1754.21 148.527 1735.24 154.163 1720.73 168.677L1760.79 208.734C1762.08 207.442 1765.11 205.176 1773.74 205.176V148.527ZM1720.73 168.677C1706.33 183.074 1701.1 202.052 1701.1 221.175H1757.74C1757.74 212.123 1760.07 209.455 1760.79 208.734L1720.73 168.677ZM1701.1 221.175V353.115H1757.74V221.175H1701.1ZM1701.1 353.115C1701.1 351.507 1701.4 349.243 1702.51 346.765C1703.62 344.263 1705.17 342.362 1706.64 341.076L1743.95 383.709C1753.08 375.715 1757.74 364.738 1757.74 353.115H1701.1ZM1705.27 342.364C1706.77 340.861 1708.7 339.558 1710.91 338.699C1713.06 337.863 1714.88 337.675 1716.02 337.675V394.325C1726.4 394.325 1736.99 390.752 1745.33 382.421L1705.27 342.364ZM1716.02 337.675H1652.11V394.325H1716.02V337.675Z" fill="black" mask="url(#path-1-outside-1_116_43)"/>
<defs>
<linearGradient id="paint0_linear_116_43" x1="773.738" y1="112.179" x2="773.738" y2="406" gradientUnits="userSpaceOnUse">
<stop stop-color="white"/>
<stop offset="0.76"/>
<stop offset="1"/>
</linearGradient>
</defs>
</svg>
