<svg width="413" height="414" viewBox="0 0 413 414" fill="none" xmlns="http://www.w3.org/2000/svg">
<circle cx="206.5" cy="207" r="206.417" fill="#B1D501"/>
<path d="M86 251C132.833 312.5 247 398.6 329 251" stroke="black" stroke-width="18" stroke-linecap="round"/>
<path d="M183.401 145.496C183.401 167.352 180.52 187.087 175.896 201.315C173.582 208.436 170.854 214.106 167.885 217.97C164.902 221.852 161.833 223.721 158.836 223.721C155.839 223.721 152.77 221.852 149.787 217.97C146.819 214.106 144.09 208.436 141.776 201.315C137.152 187.087 134.271 167.352 134.271 145.496C134.271 123.64 137.152 103.904 141.776 89.6766C144.09 82.5557 146.819 76.8851 149.787 73.0215C152.77 69.1398 155.839 67.2709 158.836 67.2709C161.833 67.2709 164.902 69.1398 167.885 73.0215C170.854 76.8851 173.582 82.5557 175.896 89.6766C180.52 103.904 183.401 123.64 183.401 145.496Z" fill="black" stroke="black" stroke-width="2.54181"/>
<path d="M277.401 138.496C277.401 160.352 274.52 180.087 269.896 194.315C267.582 201.436 264.854 207.106 261.885 210.97C258.902 214.852 255.833 216.721 252.836 216.721C249.839 216.721 246.77 214.852 243.787 210.97C240.819 207.106 238.09 201.436 235.776 194.315C231.152 180.087 228.271 160.352 228.271 138.496C228.271 116.64 231.152 96.9043 235.776 82.6766C238.09 75.5557 240.819 69.8851 243.787 66.0215C246.77 62.1398 249.839 60.2709 252.836 60.2709C255.833 60.2709 258.902 62.1398 261.885 66.0215C264.854 69.8851 267.582 75.5557 269.896 82.6766C274.52 96.9043 277.401 116.64 277.401 138.496Z" fill="black" stroke="black" stroke-width="2.54181"/>
</svg>
