<svg width="364" height="210" viewBox="0 0 364 210" fill="none" xmlns="http://www.w3.org/2000/svg">
<path d="M79.6307 14.8389L72.257 22.1205L79.6307 14.8389C76.9756 12.1502 73.3543 10.6369 69.5756 10.6369H26.5737C14.9033 10.6369 8.26301 23.9824 15.3016 33.2913L58.9021 90.9559L12.7733 178.036C7.78764 187.448 14.6103 198.782 25.261 198.782H69.2979C73.6788 198.782 77.812 196.751 80.4877 193.282L149.848 103.355C154.166 97.756 153.682 89.8266 148.713 84.7951L79.6307 14.8389Z" fill="#137E6F" stroke="white" stroke-width="20.7262"/>
<path d="M178.283 14.8389L170.909 22.1205L178.283 14.8389C175.628 12.1502 172.007 10.6369 168.228 10.6369H125.226C113.556 10.6369 106.915 23.9824 113.954 33.2913L157.554 90.9559L111.426 178.036C106.44 187.448 113.263 198.782 123.913 198.782H167.95C172.331 198.782 176.464 196.751 179.14 193.282L248.5 103.355C252.819 97.756 252.334 89.8266 247.365 84.7951L178.283 14.8389Z" fill="#137E6F" stroke="white" stroke-width="20.7262"/>
<path d="M280.417 14.8389L273.044 22.1205L280.417 14.8389C277.762 12.1502 274.141 10.6369 270.362 10.6369H227.36C215.69 10.6369 209.05 23.9824 216.088 33.2913L259.689 90.9559L213.56 178.036C208.574 187.448 215.397 198.782 226.048 198.782H270.085C274.465 198.782 278.599 196.751 281.274 193.282L350.634 103.355C354.953 97.756 354.468 89.8266 349.5 84.7951L280.417 14.8389Z" fill="#137E6F" stroke="white" stroke-width="20.7262"/>
</svg>
