<svg width="555" height="574" viewBox="0 0 555 574" fill="none" xmlns="http://www.w3.org/2000/svg">
<g clip-path="url(#clip0_228_81)">
<rect width="555" height="574" rx="32" fill="#0A0A0A"/>
<path opacity="0.05" d="M596.734 -195.462L-324.604 777.379C-326.581 779.467 -330.096 778.162 -330.232 775.29L-377.83 -226.157M596.734 -195.462L147.722 -209.604M596.734 -195.462L627.429 -159.012C617.197 -171.162 646.997 -47.7427 848.049 543.134C1099.36 1281.73 738.698 742.651 458.607 859.676C244.618 949.082 -139.204 856.642 -327.597 791.887C-331.244 790.633 -329.901 785.453 -326.068 785.872L15.449 823.226M-377.83 -226.157L733.071 737.769C735.219 739.633 734.12 743.161 731.294 743.476L15.449 823.226M-377.83 -226.157L147.722 -209.604M15.449 823.226L147.722 -209.604" stroke="white" stroke-width="17.9469"/>
</g>
<defs>
<clipPath id="clip0_228_81">
<rect width="555" height="574" rx="32" fill="white"/>
</clipPath>
</defs>
</svg>
