<svg width="533" height="574" viewBox="0 0 533 574" fill="none" xmlns="http://www.w3.org/2000/svg">
<rect width="533" height="574" rx="32" fill="#0A0A0A"/>
<path d="M333.608 245.998C352.08 276.23 338.786 320.027 300.844 343.21C262.902 366.392 217.864 358.235 199.392 328.002C180.92 297.77 194.214 253.973 232.156 230.79C270.098 207.608 315.136 215.765 333.608 245.998Z" stroke="black" stroke-width="13"/>
<path d="M271.528 326.044C266.822 326.044 262.825 325.484 259.539 324.363C256.252 323.168 253.6 321.599 251.583 319.657C249.64 317.715 248.296 315.586 247.549 313.27C246.802 310.954 246.652 308.564 247.101 306.099C247.25 305.426 247.586 304.903 248.109 304.53C248.632 304.156 249.23 303.97 249.902 303.97H255.393C256.14 303.97 256.737 304.119 257.185 304.418C257.708 304.717 258.045 305.352 258.194 306.323C258.269 309.012 259.053 311.104 260.547 312.598C262.116 314.092 264.058 315.138 266.374 315.735C268.764 316.258 271.155 316.52 273.545 316.52C278.7 316.52 283.145 315.287 286.88 312.822C290.615 310.357 293.005 306.734 294.051 301.953C295.097 297.097 294.35 293.623 291.81 291.532C289.345 289.44 285.572 288.394 280.493 288.394H269.848C269.1 288.394 268.54 288.17 268.167 287.722C267.793 287.273 267.644 286.639 267.718 285.817L268.391 282.791C268.54 282.119 268.802 281.559 269.175 281.111C269.549 280.588 269.922 280.139 270.296 279.766L296.965 256.01H264.021C263.199 256.01 262.601 255.786 262.228 255.338C261.929 254.89 261.854 254.255 262.004 253.433L262.9 249.175C263.05 248.353 263.423 247.718 264.021 247.27C264.618 246.747 265.291 246.486 266.038 246.486H310.747C311.569 246.486 312.129 246.747 312.428 247.27C312.801 247.718 312.914 248.353 312.764 249.175L311.98 253.209C311.905 253.732 311.681 254.218 311.307 254.666C311.009 255.039 310.672 255.413 310.299 255.786L283.406 279.878L285.311 279.99C290.092 280.139 294.163 281.036 297.525 282.679C300.886 284.323 303.277 286.788 304.696 290.075C306.116 293.287 306.265 297.358 305.144 302.289C304.099 307.294 301.932 311.589 298.645 315.175C295.433 318.686 291.474 321.375 286.768 323.243C282.061 325.11 276.982 326.044 271.528 326.044Z" fill="black"/>
<path d="M213.607 192.681C213.981 192.382 214.541 192.233 215.288 192.233C216.558 192.233 217.23 192.793 217.305 193.914L217.977 200.301C218.052 201.197 217.791 201.944 217.193 202.542C216.595 203.14 215.811 203.476 214.84 203.55L203.41 204.671L210.246 212.066C210.619 212.44 210.806 212.963 210.806 213.635C210.806 214.756 210.358 215.615 209.461 216.212L203.074 220.134C202.776 220.358 202.327 220.47 201.73 220.47C200.609 220.47 199.899 219.91 199.601 218.79L197.248 208.705L189.964 219.574C189.516 220.246 188.806 220.583 187.835 220.583C187.237 220.583 186.789 220.433 186.49 220.134L181.896 216.212C181.523 215.914 181.336 215.465 181.336 214.868C181.336 213.897 181.859 212.963 182.905 212.066L192.765 204.671L181.896 203.55C181.299 203.476 180.776 203.289 180.327 202.99C179.954 202.617 179.767 202.131 179.767 201.533C179.767 201.16 179.879 200.749 180.103 200.301L183.465 193.914C183.689 193.466 184.063 193.092 184.585 192.793C185.108 192.42 185.669 192.233 186.266 192.233C186.789 192.233 187.237 192.382 187.611 192.681L196.015 198.396V187.415C196.015 186.593 196.314 185.846 196.911 185.174C197.509 184.427 198.256 184.053 199.152 184.053H205.876C206.473 184.053 206.922 184.24 207.22 184.613C207.594 184.987 207.781 185.435 207.781 185.958C207.781 186.481 207.669 186.966 207.444 187.415L202.626 198.396L213.607 192.681Z" fill="black"/>
<path d="M349.239 353.855C349.613 353.557 350.173 353.407 350.92 353.407C352.19 353.407 352.862 353.968 352.937 355.088L353.609 361.475C353.684 362.372 353.423 363.119 352.825 363.716C352.227 364.314 351.443 364.65 350.472 364.725L339.042 365.845L345.878 373.241C346.251 373.614 346.438 374.137 346.438 374.81C346.438 375.93 345.99 376.789 345.093 377.387L338.706 381.309C338.407 381.533 337.959 381.645 337.362 381.645C336.241 381.645 335.531 381.085 335.232 379.964L332.879 369.879L325.596 380.748C325.148 381.421 324.438 381.757 323.467 381.757C322.869 381.757 322.421 381.607 322.122 381.309L317.528 377.387C317.154 377.088 316.968 376.64 316.968 376.042C316.968 375.071 317.491 374.137 318.536 373.241L328.397 365.845L317.528 364.725C316.93 364.65 316.407 364.463 315.959 364.164C315.586 363.791 315.399 363.305 315.399 362.708C315.399 362.334 315.511 361.923 315.735 361.475L319.097 355.088C319.321 354.64 319.694 354.266 320.217 353.968C320.74 353.594 321.3 353.407 321.898 353.407C322.421 353.407 322.869 353.557 323.243 353.855L331.647 359.57V348.589C331.647 347.767 331.946 347.02 332.543 346.348C333.141 345.601 333.888 345.227 334.784 345.227H341.508C342.105 345.227 342.553 345.414 342.852 345.788C343.226 346.161 343.412 346.609 343.412 347.132C343.412 347.655 343.3 348.141 343.076 348.589L338.258 359.57L349.239 353.855Z" fill="black"/>
<path d="M405.662 268.855C406.035 268.557 406.595 268.407 407.342 268.407C408.612 268.407 409.285 268.968 409.359 270.088L410.032 276.475C410.106 277.372 409.845 278.119 409.247 278.716C408.65 279.314 407.865 279.65 406.894 279.725L395.465 280.845L402.3 288.241C402.673 288.614 402.86 289.137 402.86 289.81C402.86 290.93 402.412 291.789 401.516 292.387L395.129 296.309C394.83 296.533 394.381 296.645 393.784 296.645C392.663 296.645 391.954 296.085 391.655 294.964L389.302 284.879L382.018 295.748C381.57 296.421 380.86 296.757 379.889 296.757C379.292 296.757 378.843 296.607 378.545 296.309L373.95 292.387C373.577 292.088 373.39 291.64 373.39 291.042C373.39 290.071 373.913 289.137 374.959 288.241L384.82 280.845L373.95 279.725C373.353 279.65 372.83 279.463 372.382 279.164C372.008 278.791 371.821 278.305 371.821 277.708C371.821 277.334 371.933 276.923 372.157 276.475L375.519 270.088C375.743 269.64 376.117 269.266 376.64 268.968C377.163 268.594 377.723 268.407 378.32 268.407C378.843 268.407 379.292 268.557 379.665 268.855L388.069 274.57V263.589C388.069 262.767 388.368 262.02 388.966 261.348C389.563 260.601 390.31 260.227 391.207 260.227H397.93C398.527 260.227 398.976 260.414 399.275 260.788C399.648 261.161 399.835 261.609 399.835 262.132C399.835 262.655 399.723 263.141 399.499 263.589L394.68 274.57L405.662 268.855Z" fill="black"/>
<path d="M374.239 201.681C374.612 201.382 375.173 201.233 375.92 201.233C377.189 201.233 377.862 201.793 377.937 202.914L378.609 209.301C378.684 210.197 378.422 210.944 377.824 211.542C377.227 212.14 376.442 212.476 375.471 212.55L364.042 213.671L370.877 221.066C371.251 221.44 371.437 221.963 371.437 222.635C371.437 223.756 370.989 224.615 370.093 225.212L363.706 229.134C363.407 229.358 362.959 229.47 362.361 229.47C361.24 229.47 360.531 228.91 360.232 227.79L357.879 217.705L350.595 228.574C350.147 229.246 349.437 229.583 348.466 229.583C347.869 229.583 347.421 229.433 347.122 229.134L342.527 225.212C342.154 224.914 341.967 224.465 341.967 223.868C341.967 222.897 342.49 221.963 343.536 221.066L353.397 213.671L342.527 212.55C341.93 212.476 341.407 212.289 340.959 211.99C340.585 211.617 340.398 211.131 340.398 210.533C340.398 210.16 340.511 209.749 340.735 209.301L344.096 202.914C344.32 202.466 344.694 202.092 345.217 201.793C345.74 201.42 346.3 201.233 346.898 201.233C347.421 201.233 347.869 201.382 348.242 201.681L356.646 207.396V196.415C356.646 195.593 356.945 194.846 357.543 194.174C358.14 193.427 358.887 193.053 359.784 193.053H366.507C367.105 193.053 367.553 193.24 367.852 193.613C368.225 193.987 368.412 194.435 368.412 194.958C368.412 195.481 368.3 195.966 368.076 196.415L363.257 207.396L374.239 201.681Z" fill="black"/>
<path d="M170.249 259.855C170.622 259.557 171.183 259.407 171.93 259.407C173.2 259.407 173.872 259.968 173.947 261.088L174.619 267.475C174.694 268.372 174.432 269.119 173.835 269.716C173.237 270.314 172.453 270.65 171.482 270.725L160.052 271.845L166.887 279.241C167.261 279.614 167.448 280.137 167.448 280.81C167.448 281.93 166.999 282.789 166.103 283.387L159.716 287.309C159.417 287.533 158.969 287.645 158.371 287.645C157.251 287.645 156.541 287.085 156.242 285.964L153.889 275.879L146.606 286.748C146.157 287.421 145.448 287.757 144.477 287.757C143.879 287.757 143.431 287.607 143.132 287.309L138.538 283.387C138.164 283.088 137.977 282.64 137.977 282.042C137.977 281.071 138.5 280.137 139.546 279.241L149.407 271.845L138.538 270.725C137.94 270.65 137.417 270.463 136.969 270.164C136.595 269.791 136.409 269.305 136.409 268.708C136.409 268.334 136.521 267.923 136.745 267.475L140.107 261.088C140.331 260.64 140.704 260.266 141.227 259.968C141.75 259.594 142.31 259.407 142.908 259.407C143.431 259.407 143.879 259.557 144.252 259.855L152.657 265.57V254.589C152.657 253.767 152.955 253.02 153.553 252.348C154.151 251.601 154.898 251.227 155.794 251.227H162.517C163.115 251.227 163.563 251.414 163.862 251.788C164.235 252.161 164.422 252.609 164.422 253.132C164.422 253.655 164.31 254.141 164.086 254.589L159.268 265.57L170.249 259.855Z" fill="black"/>
<path d="M188.768 344.855C189.141 344.557 189.701 344.407 190.448 344.407C191.718 344.407 192.391 344.968 192.465 346.088L193.138 352.475C193.212 353.372 192.951 354.119 192.353 354.716C191.756 355.314 190.971 355.65 190 355.725L178.571 356.845L185.406 364.241C185.779 364.614 185.966 365.137 185.966 365.81C185.966 366.93 185.518 367.789 184.622 368.387L178.234 372.309C177.936 372.533 177.487 372.645 176.89 372.645C175.769 372.645 175.06 372.085 174.761 370.964L172.408 360.879L165.124 371.748C164.676 372.421 163.966 372.757 162.995 372.757C162.398 372.757 161.949 372.607 161.651 372.309L157.056 368.387C156.683 368.088 156.496 367.64 156.496 367.042C156.496 366.071 157.019 365.137 158.065 364.241L167.926 356.845L157.056 355.725C156.459 355.65 155.936 355.463 155.488 355.164C155.114 354.791 154.927 354.305 154.927 353.708C154.927 353.334 155.039 352.923 155.263 352.475L158.625 346.088C158.849 345.64 159.223 345.266 159.746 344.968C160.269 344.594 160.829 344.407 161.426 344.407C161.949 344.407 162.398 344.557 162.771 344.855L171.175 350.57V339.589C171.175 338.767 171.474 338.02 172.072 337.348C172.669 336.601 173.416 336.227 174.313 336.227H181.036C181.633 336.227 182.082 336.414 182.38 336.788C182.754 337.161 182.941 337.609 182.941 338.132C182.941 338.655 182.829 339.141 182.605 339.589L177.786 350.57L188.768 344.855Z" fill="black"/>
</svg>
