<svg width="795" height="574" viewBox="0 0 795 574" fill="none" xmlns="http://www.w3.org/2000/svg">
<rect width="795" height="574" rx="32" fill="#0A0A0A"/>
<path d="M98.9546 229.564V321.429H87.8303V239.432H41.5388V321.429H30.4145V229.564H98.9546ZM121.394 321.429V229.564H152.434C159.641 229.564 165.532 230.865 170.108 233.467C174.713 236.038 178.122 239.522 180.335 243.918C182.548 248.314 183.654 253.218 183.654 258.631C183.654 264.044 182.548 268.963 180.335 273.389C178.152 277.814 174.773 281.343 170.197 283.975C165.622 286.576 159.761 287.877 152.614 287.877H130.365V278.009H152.255C157.189 278.009 161.151 277.156 164.142 275.452C167.132 273.747 169.3 271.445 170.646 268.544C172.021 265.613 172.709 262.309 172.709 258.631C172.709 254.953 172.021 251.663 170.646 248.763C169.3 245.862 167.117 243.589 164.097 241.944C161.077 240.27 157.069 239.432 152.075 239.432H132.518V321.429H121.394ZM201.574 229.564H212.519V301.872H213.416L263.655 229.564H274.42V321.429H263.296V249.301H262.399L212.34 321.429H201.574V229.564ZM302.063 229.564L325.747 267.782H326.465L350.149 229.564H363.247L334.359 275.497L363.247 321.429H350.149L326.465 283.93H325.747L302.063 321.429H288.965L318.57 275.497L288.965 229.564H302.063ZM453.755 275.497C453.755 285.186 452.006 293.559 448.507 300.616C445.008 307.674 440.209 313.116 434.108 316.944C428.008 320.772 421.04 322.685 413.205 322.685C405.37 322.685 398.403 320.772 392.302 316.944C386.202 313.116 381.402 307.674 377.903 300.616C374.405 293.559 372.655 285.186 372.655 275.497C372.655 265.808 374.405 257.435 377.903 250.377C381.402 243.32 386.202 237.877 392.302 234.05C398.403 230.222 405.37 228.308 413.205 228.308C421.04 228.308 428.008 230.222 434.108 234.05C440.209 237.877 445.008 243.32 448.507 250.377C452.006 257.435 453.755 265.808 453.755 275.497ZM442.99 275.497C442.99 267.542 441.659 260.829 438.998 255.356C436.366 249.884 432.792 245.742 428.277 242.931C423.791 240.12 418.767 238.715 413.205 238.715C407.643 238.715 402.604 240.12 398.089 242.931C393.603 245.742 390.03 249.884 387.368 255.356C384.737 260.829 383.421 267.542 383.421 275.497C383.421 283.451 384.737 290.165 387.368 295.637C390.03 301.11 393.603 305.251 398.089 308.062C402.604 310.873 407.643 312.279 413.205 312.279C418.767 312.279 423.791 310.873 428.277 308.062C432.792 305.251 436.366 301.11 438.998 295.637C441.659 290.165 442.99 283.451 442.99 275.497ZM464.565 343.678V311.561H470.486C472.52 309.707 474.434 307.09 476.228 303.711C478.052 300.302 479.592 295.757 480.848 290.075C482.134 284.363 482.986 277.112 483.405 268.32L485.379 229.564H539.924V311.561H550.51V343.499H539.924V321.429H475.152V343.678H464.565ZM483.764 311.561H529.338V239.432H495.426L493.991 268.32C493.632 275.018 493.004 281.089 492.107 286.531C491.21 291.944 490.059 296.744 488.653 300.93C487.248 305.087 485.618 308.631 483.764 311.561ZM583.468 281.238L584.186 261.502L567.499 272.088L563.193 264.552L580.776 255.401L563.193 246.251L567.499 238.715L584.186 249.301L583.468 229.564H592.08L591.362 249.301L608.049 238.715L612.355 246.251L594.772 255.401L612.355 264.552L608.049 272.088L591.362 261.502L592.08 281.238H583.468ZM711.521 321.429V229.564H766.963V239.432H722.645V270.473H764.092V280.341H722.645V311.561H767.681V321.429H711.521Z" fill="white"/>
<path d="M625.453 239.432V229.564H694.352V239.432H665.465V321.429H654.34V239.432H625.453Z" fill="#B1D501"/>
<path d="M177.643 343.581V411.429H169.427V350.87H135.238V411.429H127.022V343.581H177.643ZM253.434 343.581H261.518V396.985H262.18L299.285 343.581H307.236V411.429H299.02V358.158H298.357L261.385 411.429H253.434V343.581ZM335.603 381.746L336.133 367.169L323.809 374.988L320.628 369.422L333.615 362.664L320.628 355.905L323.809 350.34L336.133 358.158L335.603 343.581H341.963L341.433 358.158L353.757 350.34L356.938 355.905L343.951 362.664L356.938 369.422L353.757 374.988L341.433 367.169L341.963 381.746H335.603ZM391.259 412.357C386.268 412.357 382.016 410.999 378.505 408.282C374.993 405.544 372.31 401.579 370.454 396.389C368.599 391.177 367.671 384.882 367.671 377.505C367.671 370.173 368.599 363.911 370.454 358.721C372.332 353.509 375.026 349.533 378.538 346.795C382.072 344.034 386.312 342.654 391.259 342.654C396.207 342.654 400.436 344.034 403.948 346.795C407.481 349.533 410.176 353.509 412.031 358.721C413.909 363.911 414.847 370.173 414.847 377.505C414.847 384.882 413.92 391.177 412.064 396.389C410.209 401.579 407.526 405.544 404.014 408.282C400.502 410.999 396.251 412.357 391.259 412.357ZM391.259 405.069C396.207 405.069 400.05 402.683 402.788 397.913C405.527 393.142 406.896 386.34 406.896 377.505C406.896 371.63 406.267 366.628 405.008 362.498C403.771 358.368 401.982 355.221 399.641 353.056C397.322 350.892 394.528 349.809 391.259 349.809C386.356 349.809 382.524 352.228 379.764 357.065C377.003 361.879 375.622 368.693 375.622 377.505C375.622 383.38 376.241 388.372 377.478 392.48C378.714 396.588 380.492 399.713 382.811 401.855C385.153 403.998 387.969 405.069 391.259 405.069ZM422.798 427.861V404.141H427.171C428.673 402.772 430.087 400.839 431.412 398.343C432.759 395.826 433.896 392.469 434.824 388.272C435.774 384.054 436.403 378.698 436.712 372.205L438.17 343.581H478.455V404.141H486.273V427.729H478.455V411.429H430.617V427.861H422.798ZM436.977 404.141H470.636V350.87H445.591L444.531 372.205C444.266 377.152 443.802 381.635 443.139 385.655C442.477 389.653 441.626 393.197 440.588 396.289C439.55 399.359 438.347 401.977 436.977 404.141ZM498.688 343.581H506.772V396.985H507.434L544.539 343.581H552.49V411.429H544.274V358.158H543.611L506.639 411.429H498.688V343.581ZM565.22 350.87V343.581H616.106V350.87H594.771V411.429H586.555V350.87H565.22ZM628.786 411.429V343.581H669.734V350.87H637.002V373.795H667.613V381.083H637.002V404.141H670.264V411.429H628.786Z" fill="white"/>
<path d="M194.216 411.429V343.581H217.142C222.464 343.581 226.815 344.542 230.194 346.463C233.596 348.363 236.113 350.936 237.748 354.183C239.382 357.429 240.199 361.051 240.199 365.049C240.199 369.046 239.382 372.68 237.748 375.948C236.135 379.217 233.64 381.823 230.261 383.767C226.881 385.688 222.553 386.649 217.274 386.649H200.842V379.361H217.009C220.653 379.361 223.58 378.731 225.788 377.472C227.997 376.213 229.598 374.513 230.592 372.37C231.608 370.206 232.116 367.765 232.116 365.049C232.116 362.332 231.608 359.903 230.592 357.76C229.598 355.618 227.986 353.94 225.755 352.725C223.524 351.488 220.565 350.87 216.876 350.87H202.432V411.429H194.216Z" fill="#137E6F"/>
<path d="M231.73 437.165V487H225.695V442.518H200.583V487H194.548V437.165H231.73ZM243.903 487V437.165H260.742C264.651 437.165 267.847 437.87 270.329 439.282C272.827 440.677 274.677 442.567 275.877 444.951C277.078 447.336 277.678 449.997 277.678 452.933C277.678 455.869 277.078 458.538 275.877 460.939C274.693 463.34 272.86 465.254 270.378 466.681C267.896 468.093 264.716 468.798 260.839 468.798H248.769V463.445H260.644C263.321 463.445 265.47 462.983 267.093 462.058C268.715 461.133 269.891 459.884 270.621 458.311C271.367 456.721 271.74 454.928 271.74 452.933C271.74 450.937 271.367 449.153 270.621 447.579C269.891 446.006 268.707 444.773 267.068 443.881C265.43 442.972 263.256 442.518 260.547 442.518H249.937V487H243.903ZM287.399 437.165H293.337V476.391H293.823L321.077 437.165H326.917V487H320.882V447.871H320.396L293.239 487H287.399V437.165ZM424.203 462.082C424.203 467.338 423.254 471.881 421.356 475.709C419.458 479.538 416.854 482.49 413.545 484.567C410.236 486.643 406.456 487.681 402.206 487.681C397.955 487.681 394.175 486.643 390.866 484.567C387.557 482.49 384.953 479.538 383.055 475.709C381.157 471.881 380.208 467.338 380.208 462.082C380.208 456.826 381.157 452.284 383.055 448.455C384.953 444.627 387.557 441.674 390.866 439.598C394.175 437.521 397.955 436.483 402.206 436.483C406.456 436.483 410.236 437.521 413.545 439.598C416.854 441.674 419.458 444.627 421.356 448.455C423.254 452.284 424.203 456.826 424.203 462.082ZM418.363 462.082C418.363 457.767 417.641 454.125 416.197 451.156C414.77 448.188 412.831 445.941 410.382 444.416C407.948 442.891 405.223 442.129 402.206 442.129C399.188 442.129 396.455 442.891 394.005 444.416C391.572 445.941 389.633 448.188 388.189 451.156C386.762 454.125 386.048 457.767 386.048 462.082C386.048 466.397 386.762 470.039 388.189 473.008C389.633 475.977 391.572 478.224 394.005 479.749C396.455 481.273 399.188 482.036 402.206 482.036C405.223 482.036 407.948 481.273 410.382 479.749C412.831 478.224 414.77 475.977 416.197 473.008C417.641 470.039 418.363 466.397 418.363 462.082ZM430.068 499.07V481.647H433.28C434.383 480.641 435.421 479.221 436.394 477.388C437.384 475.539 438.219 473.073 438.901 469.991C439.598 466.892 440.061 462.958 440.288 458.189L441.358 437.165H470.948V481.647H476.691V498.972H470.948V487H435.81V499.07H430.068ZM440.482 481.647H465.205V442.518H446.809L446.031 458.189C445.836 461.823 445.495 465.116 445.009 468.068C444.522 471.005 443.897 473.608 443.135 475.879C442.372 478.134 441.488 480.057 440.482 481.647ZM485.81 437.165H491.747V476.391H492.234L519.488 437.165H525.328V487H519.293V447.871H518.807L491.65 487H485.81V437.165ZM546.164 465.197L546.553 454.49L537.501 460.233L535.165 456.145L544.704 451.181L535.165 446.217L537.501 442.129L546.553 447.871L546.164 437.165H550.836L550.446 447.871L559.499 442.129L561.835 446.217L552.296 451.181L561.835 456.145L559.499 460.233L550.446 454.49L550.836 465.197H546.164ZM571.665 487V437.165H601.742V442.518H577.7V459.357H600.185V464.71H577.7V481.647H602.131V487H571.665Z" fill="white"/>
<path d="M341.913 437.165L354.761 457.897H355.15L367.998 437.165H375.104L359.433 462.082L375.104 487H367.998L355.15 466.657H354.761L341.913 487H334.807L350.868 462.082L334.807 437.165H341.913Z" fill="#137E6F"/>
<path d="M256.433 517.651V560H251.305V522.2H229.965V560H224.837V517.651H256.433ZM274.222 541.472L274.552 532.374L266.86 537.254L264.875 533.78L272.981 529.562L264.875 525.343L266.86 521.869L274.552 526.749L274.222 517.651H278.192L277.861 526.749L285.553 521.869L287.538 525.343L279.433 529.562L287.538 533.78L285.553 537.254L277.861 532.374L278.192 541.472H274.222ZM295.892 517.651H300.938V550.984H301.351L324.511 517.651H329.474V560H324.346V526.749H323.932L300.855 560H295.892V517.651ZM342.217 517.651L353.135 535.269H353.466L364.384 517.651H370.422L357.105 538.826L370.422 560H364.384L353.466 542.713H353.135L342.217 560H336.179L349.826 538.826L336.179 517.651H342.217ZM412.145 538.826C412.145 543.292 411.339 547.152 409.726 550.405C408.113 553.659 405.901 556.168 403.088 557.932C400.276 559.697 397.064 560.579 393.452 560.579C389.84 560.579 386.628 559.697 383.816 557.932C381.004 556.168 378.791 553.659 377.178 550.405C375.566 547.152 374.759 543.292 374.759 538.826C374.759 534.359 375.566 530.499 377.178 527.246C378.791 523.992 381.004 521.483 383.816 519.719C386.628 517.954 389.84 517.072 393.452 517.072C397.064 517.072 400.276 517.954 403.088 519.719C405.901 521.483 408.113 523.992 409.726 527.246C411.339 530.499 412.145 534.359 412.145 538.826ZM407.183 538.826C407.183 535.159 406.569 532.064 405.342 529.541C404.129 527.018 402.482 525.109 400.4 523.813C398.332 522.517 396.016 521.869 393.452 521.869C390.888 521.869 388.565 522.517 386.484 523.813C384.416 525.109 382.768 527.018 381.542 529.541C380.328 532.064 379.722 535.159 379.722 538.826C379.722 542.492 380.328 545.587 381.542 548.11C382.768 550.633 384.416 552.542 386.484 553.838C388.565 555.134 390.888 555.782 393.452 555.782C396.016 555.782 398.332 555.134 400.4 553.838C402.482 552.542 404.129 550.633 405.342 548.11C406.569 545.587 407.183 542.492 407.183 538.826ZM464.497 517.651H469.543V550.984H469.956L493.116 517.651H498.079V560H492.951V526.749H492.537L469.46 560H464.497V517.651ZM506.024 522.2V517.651H537.786V522.2H524.469V560H519.341V522.2H506.024ZM545.701 560V517.651H571.259V522.2H550.829V536.51H569.936V541.059H550.829V555.451H571.59V560H545.701Z" fill="white"/>
<path d="M417.129 570.256V555.451H419.858C420.796 554.596 421.678 553.39 422.505 551.832C423.346 550.261 424.056 548.165 424.635 545.546C425.228 542.913 425.621 539.57 425.814 535.517L426.723 517.651H451.868V555.451H456.748V570.174H451.868V560H422.009V570.256H417.129ZM425.979 555.451H446.988V522.2H431.355L430.694 535.517C430.528 538.605 430.239 541.403 429.825 543.912C429.412 546.408 428.881 548.62 428.233 550.55C427.585 552.466 426.834 554.1 425.979 555.451Z" fill="#B1D501"/>
</svg>
