<svg width="309" height="309" viewBox="0 0 309 309" fill="none" xmlns="http://www.w3.org/2000/svg">
<circle cx="154.417" cy="154.417" r="131.506" transform="rotate(11.1293 154.417 154.417)" fill="#137E6F"/>
<path d="M73.6802 167.104C95.3933 211.307 156.172 279.169 225.582 196.986" stroke="black" stroke-width="11.4677" stroke-linecap="round"/>
<path d="M147.541 113.13C144.853 126.792 140.625 138.775 135.985 147.1C133.663 151.267 131.26 154.476 128.929 156.526C126.587 158.586 124.439 159.376 122.565 159.008C120.692 158.639 119.003 157.094 117.616 154.3C116.235 151.52 115.227 147.64 114.656 142.904C113.515 133.441 114.141 120.75 116.829 107.088C119.517 93.4253 123.745 81.4429 128.385 73.1176C130.707 68.9509 133.11 65.7417 135.441 63.6915C137.783 61.6318 139.931 60.841 141.805 61.2095C143.678 61.5781 145.367 63.1237 146.754 65.9171C148.135 68.6973 149.143 72.5776 149.714 77.3135C150.855 86.7761 150.229 99.4671 147.541 113.13Z" fill="black" stroke="black" stroke-width="1.61937"/>
<path d="M207.163 120.313C204.475 133.976 200.247 145.958 195.607 154.284C193.284 158.45 190.882 161.66 188.551 163.71C186.209 165.769 184.06 166.56 182.187 166.192C180.314 165.823 178.625 164.277 177.238 161.484C175.857 158.704 174.849 154.824 174.278 150.088C173.137 140.625 173.763 127.934 176.451 114.272C179.138 100.609 183.366 88.6266 188.006 80.3013C190.329 76.1346 192.732 72.9254 195.063 70.8753C197.404 68.8155 199.553 68.0247 201.426 68.3932C203.3 68.7618 204.988 70.3075 206.376 73.1008C207.756 75.8811 208.764 79.7613 209.335 84.4972C210.476 93.9598 209.85 106.651 207.163 120.313Z" fill="black" stroke="black" stroke-width="1.61937"/>
</svg>
