<svg width="315" height="315" viewBox="0 0 315 315" fill="none" xmlns="http://www.w3.org/2000/svg">
<circle cx="157.092" cy="157.092" r="131.506" transform="rotate(12.6378 157.092 157.092)" fill="white"/>
<path d="M76.0498 167.649C96.5917 212.409 155.563 281.847 227.112 201.52" stroke="black" stroke-width="11.4677" stroke-linecap="round"/>
<path d="M151.306 115.638C148.259 129.225 143.717 141.092 138.86 149.292C136.428 153.396 133.942 156.541 131.558 158.529C129.163 160.527 126.994 161.261 125.131 160.843C123.268 160.425 121.621 158.836 120.307 156.007C119 153.191 118.095 149.286 117.649 144.536C116.757 135.047 117.717 122.377 120.764 108.79C123.81 95.2028 128.352 83.3358 133.21 75.1356C135.641 71.0314 138.127 67.8866 140.511 65.8985C142.907 63.9011 145.075 63.1672 146.938 63.5849C148.801 64.0026 150.449 65.5922 151.762 68.4211C153.069 71.2368 153.975 75.1422 154.421 79.8915C155.312 89.3808 154.352 102.051 151.306 115.638Z" fill="black" stroke="black" stroke-width="1.61937"/>
<path d="M210.717 124.389C207.671 137.976 203.129 149.843 198.271 158.043C195.84 162.147 193.354 165.292 190.969 167.28C188.574 169.278 186.406 170.012 184.543 169.594C182.68 169.176 181.032 167.586 179.719 164.758C178.412 161.942 177.506 158.037 177.06 153.287C176.169 143.798 177.129 131.128 180.175 117.541C183.222 103.954 187.763 92.0867 192.621 83.8864C195.052 79.7823 197.539 76.6374 199.923 74.6494C202.318 72.652 204.487 71.918 206.35 72.3358C208.213 72.7535 209.86 74.3431 211.174 77.172C212.481 79.9876 213.386 83.893 213.832 88.6424C214.724 98.1317 213.764 110.802 210.717 124.389Z" fill="black" stroke="black" stroke-width="1.61937"/>
</svg>
