<svg width="413" height="413" viewBox="0 0 413 413" fill="none" xmlns="http://www.w3.org/2000/svg">
<circle cx="206.417" cy="206.417" r="206.417" fill="#B1D501"/>
<path d="M85.9165 250.417C132.75 311.917 246.917 398.017 328.917 250.417" stroke="black" stroke-width="18" stroke-linecap="round"/>
<path d="M183.318 144.912C183.318 166.769 180.437 186.504 175.813 200.732C173.498 207.852 170.77 213.523 167.801 217.387C164.819 221.268 161.749 223.137 158.753 223.137C155.756 223.137 152.686 221.268 149.704 217.387C146.735 213.523 144.007 207.852 141.692 200.732C137.068 186.504 134.187 166.769 134.187 144.912C134.187 123.056 137.068 103.321 141.692 89.0932C144.007 81.9723 146.735 76.3018 149.704 72.4381C152.686 68.5564 155.756 66.6875 158.753 66.6875C161.749 66.6875 164.819 68.5564 167.801 72.4381C170.77 76.3018 173.498 81.9723 175.813 89.0932C180.437 103.321 183.318 123.056 183.318 144.912Z" fill="black" stroke="black" stroke-width="2.54181"/>
<path d="M277.318 137.912C277.318 159.769 274.437 179.504 269.813 193.732C267.498 200.852 264.77 206.523 261.801 210.387C258.819 214.268 255.749 216.137 252.753 216.137C249.756 216.137 246.686 214.268 243.704 210.387C240.735 206.523 238.007 200.852 235.692 193.732C231.068 179.504 228.187 159.769 228.187 137.912C228.187 116.056 231.068 96.321 235.692 82.0932C238.007 74.9723 240.735 69.3018 243.704 65.4381C246.686 61.5564 249.756 59.6875 252.753 59.6875C255.749 59.6875 258.819 61.5564 261.801 65.4381C264.77 69.3018 267.498 74.9723 269.813 82.0932C274.437 96.321 277.318 116.056 277.318 137.912Z" fill="black" stroke="black" stroke-width="2.54181"/>
</svg>
