<svg width="757" height="375" viewBox="0 0 757 375" fill="none" xmlns="http://www.w3.org/2000/svg">
<path d="M79.9546 30.5641V122.429H68.8303V40.4325H22.5388V122.429H11.4145V30.5641H79.9546ZM102.394 122.429V30.5641H133.434C140.641 30.5641 146.532 31.865 151.108 34.4666C155.713 37.0384 159.122 40.5222 161.335 44.9181C163.548 49.314 164.654 54.2183 164.654 59.6309C164.654 65.0435 163.548 69.9628 161.335 74.3886C159.152 78.8144 155.773 82.343 151.197 84.9746C146.622 87.5763 140.761 88.8771 133.614 88.8771H111.365V79.0087H133.255C138.189 79.0087 142.151 78.1565 145.142 76.4519C148.132 74.7474 150.3 72.4448 151.646 69.5441C153.021 66.6135 153.709 63.3091 153.709 59.6309C153.709 55.9527 153.021 52.6633 151.646 49.7626C150.3 46.8619 148.117 44.5892 145.097 42.9444C142.077 41.2698 138.069 40.4325 133.075 40.4325H113.518V122.429H102.394ZM182.574 30.5641H193.519V102.872H194.416L244.655 30.5641H255.42V122.429H244.296V50.3008H243.399L193.34 122.429H182.574V30.5641ZM283.063 30.5641L306.747 68.7815H307.465L331.149 30.5641H344.247L315.359 76.4968L344.247 122.429H331.149L307.465 84.9297H306.747L283.063 122.429H269.965L299.57 76.4968L269.965 30.5641H283.063ZM434.755 76.4968C434.755 86.1857 433.006 94.5589 429.507 101.616C426.008 108.674 421.209 114.116 415.108 117.944C409.008 121.772 402.04 123.685 394.205 123.685C386.37 123.685 379.403 121.772 373.302 117.944C367.202 114.116 362.402 108.674 358.903 101.616C355.405 94.5589 353.655 86.1857 353.655 76.4968C353.655 66.8079 355.405 58.4347 358.903 51.3774C362.402 44.32 367.202 38.8775 373.302 35.0498C379.403 31.222 386.37 29.3082 394.205 29.3082C402.04 29.3082 409.008 31.222 415.108 35.0498C421.209 38.8775 426.008 44.32 429.507 51.3774C433.006 58.4347 434.755 66.8079 434.755 76.4968ZM423.99 76.4968C423.99 68.5423 422.659 61.8289 419.998 56.3564C417.366 50.884 413.792 46.7422 409.277 43.9313C404.791 41.1203 399.767 39.7148 394.205 39.7148C388.643 39.7148 383.604 41.1203 379.089 43.9313C374.603 46.7422 371.03 50.884 368.368 56.3564C365.737 61.8289 364.421 68.5423 364.421 76.4968C364.421 84.4513 365.737 91.1647 368.368 96.6372C371.03 102.11 374.603 106.251 379.089 109.062C383.604 111.873 388.643 113.279 394.205 113.279C399.767 113.279 404.791 111.873 409.277 109.062C413.792 106.251 417.366 102.11 419.998 96.6372C422.659 91.1647 423.99 84.4513 423.99 76.4968ZM445.565 144.678V112.561H451.486C453.52 110.707 455.434 108.09 457.228 104.711C459.052 101.302 460.592 96.7568 461.848 91.075C463.134 85.3633 463.986 78.1116 464.405 69.3198L466.379 30.5641H520.924V112.561H531.51V144.499H520.924V122.429H456.152V144.678H445.565ZM464.764 112.561H510.338V40.4325H476.426L474.991 69.3198C474.632 76.0183 474.004 82.0889 473.107 87.5314C472.21 92.944 471.059 97.7436 469.653 101.93C468.248 106.087 466.618 109.631 464.764 112.561ZM564.468 82.2384L565.186 62.5017L548.499 73.0877L544.193 65.5519L561.776 56.4013L544.193 47.2506L548.499 39.7148L565.186 50.3008L564.468 30.5641H573.08L572.362 50.3008L589.049 39.7148L593.355 47.2506L575.772 56.4013L593.355 65.5519L589.049 73.0877L572.362 62.5017L573.08 82.2384H564.468ZM692.521 122.429V30.5641H747.963V40.4325H703.645V71.4729H745.092V81.3413H703.645V112.561H748.681V122.429H692.521Z" fill="white"/>
<path d="M606.453 40.4325V30.5641H675.352V40.4325H646.465V122.429H635.34V40.4325H606.453Z" fill="#B1D501"/>
<path d="M158.643 144.581V212.429H150.427V151.87H116.238V212.429H108.022V144.581H158.643ZM234.434 144.581H242.518V197.985H243.18L280.285 144.581H288.236V212.429H280.02V159.158H279.357L242.385 212.429H234.434V144.581ZM316.603 182.746L317.133 168.169L304.809 175.988L301.628 170.422L314.615 163.664L301.628 156.905L304.809 151.34L317.133 159.158L316.603 144.581H322.963L322.433 159.158L334.757 151.34L337.938 156.905L324.951 163.664L337.938 170.422L334.757 175.988L322.433 168.169L322.963 182.746H316.603ZM372.259 213.357C367.268 213.357 363.016 211.999 359.505 209.282C355.993 206.544 353.31 202.579 351.454 197.389C349.599 192.177 348.671 185.882 348.671 178.505C348.671 171.173 349.599 164.911 351.454 159.721C353.332 154.509 356.026 150.533 359.538 147.795C363.072 145.034 367.312 143.654 372.259 143.654C377.207 143.654 381.436 145.034 384.948 147.795C388.481 150.533 391.176 154.509 393.031 159.721C394.909 164.911 395.847 171.173 395.847 178.505C395.847 185.882 394.92 192.177 393.064 197.389C391.209 202.579 388.526 206.544 385.014 209.282C381.502 211.999 377.251 213.357 372.259 213.357ZM372.259 206.069C377.207 206.069 381.05 203.683 383.788 198.913C386.527 194.142 387.896 187.34 387.896 178.505C387.896 172.63 387.267 167.628 386.008 163.498C384.771 159.368 382.982 156.221 380.641 154.056C378.322 151.892 375.528 150.809 372.259 150.809C367.356 150.809 363.524 153.228 360.764 158.065C358.003 162.879 356.622 169.693 356.622 178.505C356.622 184.38 357.241 189.372 358.478 193.48C359.714 197.588 361.492 200.713 363.811 202.855C366.153 204.998 368.969 206.069 372.259 206.069ZM403.798 228.861V205.141H408.171C409.673 203.772 411.087 201.839 412.412 199.343C413.759 196.826 414.896 193.469 415.824 189.272C416.774 185.054 417.403 179.698 417.712 173.205L419.17 144.581H459.455V205.141H467.273V228.729H459.455V212.429H411.617V228.861H403.798ZM417.977 205.141H451.636V151.87H426.591L425.531 173.205C425.266 178.152 424.802 182.635 424.139 186.655C423.477 190.653 422.626 194.197 421.588 197.289C420.55 200.359 419.347 202.977 417.977 205.141ZM479.688 144.581H487.772V197.985H488.434L525.539 144.581H533.49V212.429H525.274V159.158H524.611L487.639 212.429H479.688V144.581ZM546.22 151.87V144.581H597.106V151.87H575.771V212.429H567.555V151.87H546.22ZM609.786 212.429V144.581H650.734V151.87H618.002V174.795H648.613V182.083H618.002V205.141H651.264V212.429H609.786Z" fill="white"/>
<path d="M175.216 212.429V144.581H198.142C203.464 144.581 207.815 145.542 211.194 147.463C214.596 149.363 217.113 151.936 218.748 155.183C220.382 158.429 221.199 162.051 221.199 166.049C221.199 170.046 220.382 173.68 218.748 176.948C217.135 180.217 214.64 182.823 211.261 184.767C207.881 186.688 203.553 187.649 198.274 187.649H181.842V180.361H198.009C201.653 180.361 204.58 179.731 206.788 178.472C208.997 177.213 210.598 175.513 211.592 173.37C212.608 171.206 213.116 168.765 213.116 166.049C213.116 163.332 212.608 160.903 211.592 158.76C210.598 156.618 208.986 154.94 206.755 153.725C204.524 152.488 201.565 151.87 197.876 151.87H183.432V212.429H175.216Z" fill="#137E6F"/>
<path d="M212.73 238.165V288H206.695V243.518H181.583V288H175.548V238.165H212.73ZM224.903 288V238.165H241.742C245.651 238.165 248.847 238.87 251.329 240.282C253.827 241.677 255.677 243.567 256.877 245.951C258.078 248.336 258.678 250.997 258.678 253.933C258.678 256.869 258.078 259.538 256.877 261.939C255.693 264.34 253.86 266.254 251.378 267.681C248.896 269.093 245.716 269.798 241.839 269.798H229.769V264.445H241.644C244.321 264.445 246.47 263.983 248.093 263.058C249.715 262.133 250.891 260.884 251.621 259.311C252.367 257.721 252.74 255.928 252.74 253.933C252.74 251.937 252.367 250.153 251.621 248.579C250.891 247.006 249.707 245.773 248.068 244.881C246.43 243.972 244.256 243.518 241.547 243.518H230.937V288H224.903ZM268.399 238.165H274.337V277.391H274.823L302.077 238.165H307.917V288H301.882V248.871H301.396L274.239 288H268.399V238.165ZM405.203 263.082C405.203 268.338 404.254 272.881 402.356 276.709C400.458 280.538 397.854 283.49 394.545 285.567C391.236 287.643 387.456 288.681 383.206 288.681C378.955 288.681 375.175 287.643 371.866 285.567C368.557 283.49 365.953 280.538 364.055 276.709C362.157 272.881 361.208 268.338 361.208 263.082C361.208 257.826 362.157 253.284 364.055 249.455C365.953 245.627 368.557 242.674 371.866 240.598C375.175 238.521 378.955 237.483 383.206 237.483C387.456 237.483 391.236 238.521 394.545 240.598C397.854 242.674 400.458 245.627 402.356 249.455C404.254 253.284 405.203 257.826 405.203 263.082ZM399.363 263.082C399.363 258.767 398.641 255.125 397.197 252.156C395.77 249.188 393.831 246.941 391.382 245.416C388.948 243.891 386.223 243.129 383.206 243.129C380.188 243.129 377.455 243.891 375.005 245.416C372.572 246.941 370.633 249.188 369.189 252.156C367.762 255.125 367.048 258.767 367.048 263.082C367.048 267.397 367.762 271.039 369.189 274.008C370.633 276.977 372.572 279.224 375.005 280.749C377.455 282.273 380.188 283.036 383.206 283.036C386.223 283.036 388.948 282.273 391.382 280.749C393.831 279.224 395.77 276.977 397.197 274.008C398.641 271.039 399.363 267.397 399.363 263.082ZM411.068 300.07V282.647H414.28C415.383 281.641 416.421 280.221 417.394 278.388C418.384 276.539 419.219 274.073 419.901 270.991C420.598 267.892 421.061 263.958 421.288 259.189L422.358 238.165H451.948V282.647H457.691V299.972H451.948V288H416.81V300.07H411.068ZM421.482 282.647H446.205V243.518H427.809L427.031 259.189C426.836 262.823 426.495 266.116 426.009 269.068C425.522 272.005 424.897 274.608 424.135 276.879C423.372 279.134 422.488 281.057 421.482 282.647ZM466.81 238.165H472.747V277.391H473.234L500.488 238.165H506.328V288H500.293V248.871H499.807L472.65 288H466.81V238.165ZM527.164 266.197L527.553 255.49L518.501 261.233L516.165 257.145L525.704 252.181L516.165 247.217L518.501 243.129L527.553 248.871L527.164 238.165H531.836L531.446 248.871L540.499 243.129L542.835 247.217L533.296 252.181L542.835 257.145L540.499 261.233L531.446 255.49L531.836 266.197H527.164ZM552.665 288V238.165H582.742V243.518H558.7V260.357H581.185V265.71H558.7V282.647H583.131V288H552.665Z" fill="white"/>
<path d="M322.913 238.165L335.761 258.897H336.15L348.998 238.165H356.104L340.433 263.082L356.104 288H348.998L336.15 267.657H335.761L322.913 288H315.807L331.868 263.082L315.807 238.165H322.913Z" fill="#137E6F"/>
<path d="M237.433 318.651V361H232.305V323.2H210.965V361H205.837V318.651H237.433ZM255.222 342.472L255.552 333.374L247.86 338.254L245.875 334.78L253.981 330.562L245.875 326.343L247.86 322.869L255.552 327.749L255.222 318.651H259.192L258.861 327.749L266.553 322.869L268.538 326.343L260.433 330.562L268.538 334.78L266.553 338.254L258.861 333.374L259.192 342.472H255.222ZM276.892 318.651H281.938V351.984H282.351L305.511 318.651H310.474V361H305.346V327.749H304.932L281.855 361H276.892V318.651ZM323.217 318.651L334.135 336.269H334.466L345.384 318.651H351.422L338.105 339.826L351.422 361H345.384L334.466 343.713H334.135L323.217 361H317.179L330.826 339.826L317.179 318.651H323.217ZM393.145 339.826C393.145 344.292 392.339 348.152 390.726 351.405C389.113 354.659 386.901 357.168 384.088 358.932C381.276 360.697 378.064 361.579 374.452 361.579C370.84 361.579 367.628 360.697 364.816 358.932C362.004 357.168 359.791 354.659 358.178 351.405C356.566 348.152 355.759 344.292 355.759 339.826C355.759 335.359 356.566 331.499 358.178 328.246C359.791 324.992 362.004 322.483 364.816 320.719C367.628 318.954 370.84 318.072 374.452 318.072C378.064 318.072 381.276 318.954 384.088 320.719C386.901 322.483 389.113 324.992 390.726 328.246C392.339 331.499 393.145 335.359 393.145 339.826ZM388.183 339.826C388.183 336.159 387.569 333.064 386.342 330.541C385.129 328.018 383.482 326.109 381.4 324.813C379.332 323.517 377.016 322.869 374.452 322.869C371.888 322.869 369.565 323.517 367.484 324.813C365.416 326.109 363.768 328.018 362.542 330.541C361.328 333.064 360.722 336.159 360.722 339.826C360.722 343.492 361.328 346.587 362.542 349.11C363.768 351.633 365.416 353.542 367.484 354.838C369.565 356.134 371.888 356.782 374.452 356.782C377.016 356.782 379.332 356.134 381.4 354.838C383.482 353.542 385.129 351.633 386.342 349.11C387.569 346.587 388.183 343.492 388.183 339.826ZM445.497 318.651H450.543V351.984H450.956L474.116 318.651H479.079V361H473.951V327.749H473.537L450.46 361H445.497V318.651ZM487.024 323.2V318.651H518.786V323.2H505.469V361H500.341V323.2H487.024ZM526.701 361V318.651H552.259V323.2H531.829V337.51H550.936V342.059H531.829V356.451H552.59V361H526.701Z" fill="white"/>
<path d="M398.129 371.256V356.451H400.858C401.796 355.596 402.678 354.39 403.505 352.832C404.346 351.261 405.056 349.165 405.635 346.546C406.228 343.913 406.621 340.57 406.814 336.517L407.723 318.651H432.868V356.451H437.748V371.174H432.868V361H403.009V371.256H398.129ZM406.979 356.451H427.988V323.2H412.355L411.694 336.517C411.528 339.605 411.239 342.403 410.825 344.912C410.412 347.408 409.881 349.62 409.233 351.55C408.585 353.466 407.834 355.1 406.979 356.451Z" fill="#B1D501"/>
</svg>
