<svg width="2460" height="621" viewBox="0 0 2460 621" fill="none" xmlns="http://www.w3.org/2000/svg">
<path d="M2394 265.462C1783.89 -201.102 1364.17 43.0169 1187.99 277.819C1166.04 307.071 1155.07 321.697 1157.88 342.778C1160.69 363.859 1175.46 375.369 1204.99 398.39C1439.78 581.381 1914.7 770.802 2394.38 416.068C2437.84 383.926 2459.57 367.855 2459.78 341.889C2459.99 315.924 2437.99 299.103 2394 265.462Z" fill="white"/>
<path d="M72.5034 410.371C720.316 823.002 1117.6 543.855 1273.03 294.835C1292.4 263.811 1302.08 248.3 1297.47 227.537C1292.87 206.774 1277.17 196.57 1245.77 176.162C996.187 13.9381 506.797 -134.139 59.2396 260.35C18.6865 296.094 -1.59001 313.967 0.424302 339.855C2.43857 365.743 25.7935 380.619 72.5034 410.371Z" fill="white"/>
</svg>
