<svg width="352" height="142" viewBox="0 0 352 142" fill="none" xmlns="http://www.w3.org/2000/svg">
<path d="M82.7982 50.0341V17.7427H59.1415V50.0341C59.1416 52.1266 58.5865 54.1817 57.5329 55.9896L48.7917 70.9702L28.1217 106.408C23.5205 114.297 29.204 124.198 38.3355 124.198H103.604C112.73 124.198 118.419 114.297 113.818 106.408L93.148 70.9702L84.4069 55.9896C83.3523 54.18 82.7972 52.1227 82.7982 50.0282V50.0341Z" fill="white"/>
<path d="M47.3132 17.7427H59.1415M59.1415 17.7427V50.0282C59.1426 52.1227 58.5875 54.18 57.5329 55.9896L48.7917 70.9702L28.1217 106.408C23.5205 114.297 29.204 124.198 38.3355 124.198H103.604C112.73 124.198 118.419 114.297 113.818 106.408L93.148 70.9702L84.4069 55.9896C83.3533 54.1817 82.7982 52.1266 82.7982 50.0341V17.7427M59.1415 17.7427H82.7982M94.6266 17.7427H82.7982" stroke="#137E6F" stroke-width="11.8283" stroke-linecap="round" stroke-linejoin="round"/>
<path d="M152.798 50.0341V17.7427H129.142V50.0341C129.142 52.1266 128.586 54.1817 127.533 55.9896L118.792 70.9702L98.1217 106.408C93.5205 114.297 99.204 124.198 108.335 124.198H173.604C182.73 124.198 188.419 114.297 183.818 106.408L163.148 70.9702L154.407 55.9896C153.352 54.18 152.797 52.1227 152.798 50.0282V50.0341Z" fill="white"/>
<path d="M117.313 17.7427H129.142M129.142 17.7427V50.0282C129.143 52.1227 128.587 54.18 127.533 55.9896L118.792 70.9702L98.1217 106.408C93.5205 114.297 99.204 124.198 108.335 124.198H173.604C182.73 124.198 188.419 114.297 183.818 106.408L163.148 70.9702L154.407 55.9896C153.353 54.1817 152.798 52.1266 152.798 50.0341V17.7427M129.142 17.7427H152.798M164.627 17.7427H152.798" stroke="#137E6F" stroke-width="11.8283" stroke-linecap="round" stroke-linejoin="round"/>
<path d="M222.798 50.0341V17.7427H199.142V50.0341C199.142 52.1266 198.586 54.1817 197.533 55.9896L188.792 70.9702L168.122 106.408C163.52 114.297 169.204 124.198 178.335 124.198H243.604C252.73 124.198 258.419 114.297 253.818 106.408L233.148 70.9702L224.407 55.9896C223.352 54.18 222.797 52.1227 222.798 50.0282V50.0341Z" fill="white"/>
<path d="M187.313 17.7427H199.142M199.142 17.7427V50.0282C199.143 52.1227 198.587 54.18 197.533 55.9896L188.792 70.9702L168.122 106.408C163.52 114.297 169.204 124.198 178.335 124.198H243.604C252.73 124.198 258.419 114.297 253.818 106.408L233.148 70.9702L224.407 55.9896C223.353 54.1817 222.798 52.1266 222.798 50.0341V17.7427M199.142 17.7427H222.798M234.627 17.7427H222.798" stroke="#137E6F" stroke-width="11.8283" stroke-linecap="round" stroke-linejoin="round"/>
<path d="M292.798 50.0341V17.7427H269.142V50.0341C269.142 52.1266 268.586 54.1817 267.533 55.9896L258.792 70.9702L238.122 106.408C233.52 114.297 239.204 124.198 248.335 124.198H313.604C322.73 124.198 328.419 114.297 323.818 106.408L303.148 70.9702L294.407 55.9896C293.352 54.18 292.797 52.1227 292.798 50.0282V50.0341Z" fill="white"/>
<path d="M257.313 17.7427H269.142M269.142 17.7427V50.0282C269.143 52.1227 268.587 54.18 267.533 55.9896L258.792 70.9702L238.122 106.408C233.52 114.297 239.204 124.198 248.335 124.198H313.604C322.73 124.198 328.419 114.297 323.818 106.408L303.148 70.9702L294.407 55.9896C293.353 54.1817 292.798 52.1266 292.798 50.0341V17.7427M269.142 17.7427H292.798M304.627 17.7427H292.798" stroke="#137E6F" stroke-width="11.8283" stroke-linecap="round" stroke-linejoin="round"/>
</svg>
