<svg width="2677" height="2677" viewBox="0 0 2677 2677" fill="none" xmlns="http://www.w3.org/2000/svg">
<g opacity="0.5">
<path opacity="0.05" d="M2499.27 1242.39C1331.53 272.806 483.447 721.582 116.975 1171.25C71.3188 1227.27 48.491 1255.28 52.3696 1297.13C56.2482 1338.98 84.4966 1362.88 140.993 1410.67C590.09 1790.59 1512.83 2202.23 2488.08 1539.8C2576.45 1479.77 2620.63 1449.76 2623.1 1398.51C2625.57 1347.25 2583.47 1312.3 2499.27 1242.39Z" fill="white"/>
<path opacity="0.05" d="M2314.59 1257.65C1332.61 442.309 619.441 819.693 311.268 1197.83C272.875 1244.94 253.679 1268.49 256.94 1303.68C260.202 1338.88 283.956 1358.97 331.466 1399.16C709.12 1718.65 1485.07 2064.8 2305.18 1507.74C2379.49 1457.27 2416.64 1432.03 2418.72 1388.93C2420.79 1345.83 2385.39 1316.44 2314.59 1257.65Z" fill="white"/>
<path opacity="0.05" d="M1824.52 1298.14C1335.48 892.087 980.302 1080.03 826.825 1268.35C807.704 1291.82 798.144 1303.55 799.768 1321.07C801.393 1338.6 813.223 1348.61 836.884 1368.62C1024.96 1527.73 1411.41 1700.13 1819.84 1422.7C1856.85 1397.56 1875.35 1384.99 1876.38 1363.53C1877.42 1342.06 1859.79 1327.42 1824.52 1298.14Z" fill="white"/>
<path opacity="0.05" d="M2057.51 1278.89C1334.11 678.254 808.742 956.262 581.719 1234.83C553.437 1269.53 539.295 1286.88 541.698 1312.81C544.101 1338.73 561.6 1353.53 596.599 1383.14C874.806 1618.5 1446.43 1873.5 2050.58 1463.13C2105.32 1425.95 2132.69 1407.36 2134.22 1375.6C2135.75 1343.85 2109.67 1322.2 2057.51 1278.89Z" fill="white"/>
<path opacity="0.05" d="M1612.72 1315.65C1336.72 1086.48 1136.27 1192.55 1049.65 1298.83C1038.86 1312.07 1033.46 1318.7 1034.38 1328.59C1035.29 1338.48 1041.97 1344.13 1055.32 1355.42C1161.47 1445.22 1379.57 1542.51 1610.07 1385.94C1630.96 1371.75 1641.4 1364.66 1641.99 1352.55C1642.57 1340.43 1632.62 1332.17 1612.72 1315.65Z" fill="white"/>
<path opacity="0.05" d="M1440.25 1329.9C1337.72 1244.77 1263.26 1284.17 1231.09 1323.65C1227.08 1328.57 1225.08 1331.03 1225.42 1334.7C1225.76 1338.38 1228.24 1340.48 1233.2 1344.67C1272.63 1378.03 1353.64 1414.17 1439.27 1356.01C1447.03 1350.74 1450.91 1348.11 1451.12 1343.61C1451.34 1339.11 1447.64 1336.04 1440.25 1329.9Z" fill="white"/>
</g>
</svg>
