<svg width="405" height="160" viewBox="0 0 405 160" fill="none" xmlns="http://www.w3.org/2000/svg">
<path d="M128.273 68.793L128.304 68.8249C130.367 70.9614 131.509 73.8228 131.483 76.793C131.457 79.7632 130.266 82.6044 128.166 84.7047C126.065 86.8051 123.224 87.9964 120.254 88.0222C117.284 88.048 114.422 86.9062 112.286 84.8427L112.255 84.8126L112.224 84.7818C109.406 81.964 106.769 79.8794 104.316 78.4049L99.9212 109.173V140.053C99.9212 143.057 98.7277 145.939 96.6033 148.063C94.4789 150.187 91.5975 151.381 88.5932 151.381C85.5888 151.381 82.7074 150.187 80.583 148.063C78.4586 145.939 77.2651 143.057 77.2651 140.053V119.741H74.609V140.053C74.609 143.057 73.4155 145.939 71.2911 148.063C69.1667 150.187 66.2853 151.381 63.2809 151.381C60.2766 151.381 57.3952 150.187 55.2708 148.063C53.1464 145.939 51.9529 143.057 51.9529 140.053V109.217L47.5523 78.4078C45.1091 79.8777 42.4821 81.9532 39.6759 84.7561C38.6381 85.8211 37.4006 86.6714 36.034 87.2585C34.652 87.8522 33.1655 88.1647 31.6614 88.1777C30.1572 88.1908 28.6655 87.9042 27.2734 87.3346C25.8812 86.765 24.6164 85.9239 23.5528 84.8603C22.4892 83.7966 21.648 82.5318 21.0784 81.1397C20.5088 79.7475 20.2222 78.2558 20.2353 76.7517C20.2484 75.2476 20.5609 73.7611 21.1546 72.379C21.7418 71.012 22.5925 69.7742 23.6579 68.7362C33.7716 58.6318 44.9206 52.7882 56.9529 52.7882H63.1834C60.3345 50.9994 57.8805 48.6228 55.995 45.8009C53.3595 41.8567 51.9529 37.2196 51.9529 32.476V32.405L51.9549 32.334L51.9865 31.2203L51.9887 31.1445L51.9931 31.0689C52.352 24.9618 55.0311 19.2227 59.4821 15.0258C63.9331 10.8289 69.8195 8.49155 75.9371 8.49182L128.273 68.793ZM128.273 68.793L128.242 68.7617C118.117 58.6432 106.972 52.7882 94.9212 52.7882H88.6906M128.273 68.793L88.6906 52.7882M88.6906 52.7882C90.2062 51.8367 91.6181 50.7137 92.8964 49.4353C96.2507 46.0811 98.5349 41.8075 99.4604 37.1551C100.386 32.5026 99.9108 27.6802 98.0955 23.2976C96.2802 18.9151 93.2061 15.1693 89.2619 12.5339C85.3178 9.89852 80.6809 8.49188 75.9373 8.49182L88.6906 52.7882Z" fill="white" stroke="#B1D501" stroke-width="10"/>
<path d="M190.273 68.793L190.304 68.8249C192.367 70.9614 193.509 73.8228 193.483 76.793C193.457 79.7632 192.266 82.6044 190.166 84.7047C188.065 86.8051 185.224 87.9964 182.254 88.0222C179.284 88.048 176.422 86.9062 174.286 84.8427L174.255 84.8126L174.224 84.7818C171.406 81.964 168.769 79.8794 166.316 78.4049L161.921 109.173V140.053C161.921 143.057 160.728 145.939 158.603 148.063C156.479 150.187 153.598 151.381 150.593 151.381C147.589 151.381 144.707 150.187 142.583 148.063C140.459 145.939 139.265 143.057 139.265 140.053V119.741H136.609V140.053C136.609 143.057 135.416 145.939 133.291 148.063C131.167 150.187 128.285 151.381 125.281 151.381C122.277 151.381 119.395 150.187 117.271 148.063C115.146 145.939 113.953 143.057 113.953 140.053V109.217L109.552 78.4078C107.109 79.8777 104.482 81.9532 101.676 84.7561C100.638 85.8211 99.4006 86.6714 98.034 87.2585C96.652 87.8522 95.1655 88.1647 93.6614 88.1777C92.1572 88.1908 90.6655 87.9042 89.2734 87.3346C87.8812 86.765 86.6164 85.9239 85.5528 84.8603C84.4892 83.7966 83.648 82.5318 83.0784 81.1397C82.5088 79.7475 82.2222 78.2558 82.2353 76.7517C82.2484 75.2476 82.5609 73.7611 83.1546 72.379C83.7418 71.012 84.5925 69.7742 85.6579 68.7362C95.7716 58.6318 106.921 52.7882 118.953 52.7882H125.183C122.335 50.9994 119.881 48.6228 117.995 45.8009C115.36 41.8567 113.953 37.2196 113.953 32.476V32.405L113.955 32.334L113.987 31.2203L113.989 31.1445L113.993 31.0689C114.352 24.9618 117.031 19.2227 121.482 15.0258C125.933 10.8289 131.82 8.49155 137.937 8.49182L190.273 68.793ZM190.273 68.793L190.242 68.7617C180.117 58.6432 168.972 52.7882 156.921 52.7882H150.691M190.273 68.793L150.691 52.7882M150.691 52.7882C152.206 51.8367 153.618 50.7137 154.896 49.4353C158.251 46.0811 160.535 41.8075 161.46 37.1551C162.386 32.5026 161.911 27.6802 160.096 23.2976C158.28 18.9151 155.206 15.1693 151.262 12.5339C147.318 9.89852 142.681 8.49188 137.937 8.49182L150.691 52.7882Z" fill="white" stroke="#B1D501" stroke-width="10"/>
<path d="M254.756 68.793L254.787 68.8249C256.851 70.9614 257.993 73.8228 257.967 76.793C257.941 79.7632 256.75 82.6044 254.649 84.7047C252.549 86.8051 249.708 87.9964 246.738 88.0222C243.767 88.048 240.906 86.9062 238.769 84.8427L238.738 84.8126L238.707 84.7818C235.89 81.964 233.252 79.8794 230.799 78.4049L226.405 109.173V140.053C226.405 143.057 225.211 145.939 223.087 148.063C220.962 150.187 218.081 151.381 215.077 151.381C212.072 151.381 209.191 150.187 207.066 148.063C204.942 145.939 203.749 143.057 203.749 140.053V119.741H201.092V140.053C201.092 143.057 199.899 145.939 197.774 148.063C195.65 150.187 192.769 151.381 189.764 151.381C186.76 151.381 183.879 150.187 181.754 148.063C179.63 145.939 178.436 143.057 178.436 140.053V109.217L174.036 78.4078C171.592 79.8777 168.965 81.9532 166.159 84.7561C165.121 85.8211 163.884 86.6714 162.517 87.2585C161.135 87.8522 159.649 88.1647 158.145 88.1777C156.641 88.1908 155.149 87.9042 153.757 87.3346C152.365 86.765 151.1 85.9239 150.036 84.8603C148.973 83.7966 148.131 82.5318 147.562 81.1397C146.992 79.7475 146.706 78.2558 146.719 76.7517C146.732 75.2476 147.044 73.7611 147.638 72.379C148.225 71.012 149.076 69.7742 150.141 68.7362C160.255 58.6318 171.404 52.7882 183.436 52.7882H189.667C186.818 50.9994 184.364 48.6228 182.478 45.8009C179.843 41.8567 178.436 37.2196 178.436 32.476V32.405L178.438 32.334L178.47 31.2203L178.472 31.1445L178.477 31.0689C178.835 24.9618 181.514 19.2227 185.966 15.0258C190.416 10.8289 196.303 8.49155 202.42 8.49182L254.756 68.793ZM254.756 68.793L254.725 68.7617C244.6 58.6432 233.455 52.7882 221.405 52.7882H215.174M254.756 68.793L215.174 52.7882M215.174 52.7882C216.69 51.8367 218.101 50.7137 219.38 49.4353C222.734 46.0811 225.018 41.8075 225.944 37.1551C226.869 32.5026 226.394 27.6802 224.579 23.2976C222.764 18.9151 219.69 15.1693 215.745 12.5339C211.801 9.89852 207.164 8.49188 202.421 8.49182L215.174 52.7882Z" fill="white" stroke="#B1D501" stroke-width="10"/>
<path d="M316.756 65.629L316.787 65.6608C318.851 67.7973 319.993 70.6588 319.967 73.629C319.941 76.5992 318.75 79.4404 316.649 81.5407C314.549 83.641 311.708 84.8324 308.738 84.8582C305.767 84.884 302.906 83.7422 300.769 81.6787L300.738 81.6485L300.707 81.6178C297.89 78.7999 295.252 76.7154 292.799 75.2409L288.405 106.009V136.889C288.405 139.893 287.211 142.775 285.087 144.899C282.962 147.023 280.081 148.217 277.077 148.217C274.072 148.217 271.191 147.023 269.066 144.899C266.942 142.775 265.749 139.893 265.749 136.889V116.577H263.092V136.889C263.092 139.893 261.899 142.775 259.774 144.899C257.65 147.023 254.769 148.217 251.764 148.217C248.76 148.217 245.879 147.023 243.754 144.899C241.63 142.775 240.436 139.893 240.436 136.889V106.053L236.036 75.2438C233.592 76.7137 230.965 78.7892 228.159 81.592C227.121 82.657 225.884 83.5074 224.517 84.0944C223.135 84.6881 221.649 85.0006 220.145 85.0137C218.641 85.0268 217.149 84.7401 215.757 84.1705C214.365 83.601 213.1 82.7598 212.036 81.6962C210.973 80.6326 210.131 79.3678 209.562 77.9756C208.992 76.5834 208.706 75.0918 208.719 73.5876C208.732 72.0835 209.044 70.597 209.638 69.215C210.225 67.8479 211.076 66.6101 212.141 65.5721C222.255 55.4677 233.404 49.6241 245.436 49.6241H251.667C248.818 47.8353 246.364 45.4588 244.478 42.6368C241.843 38.6926 240.436 34.0555 240.436 29.3119V29.2409L240.438 29.1699L240.47 28.0562L240.472 27.9805L240.477 27.9049C240.835 21.7977 243.514 16.0586 247.966 11.8617C252.416 7.66488 258.303 5.32749 264.42 5.32776L316.756 65.629ZM316.756 65.629L316.725 65.5977C306.6 55.4792 295.455 49.6241 283.405 49.6241H277.174M316.756 65.629L277.174 49.6241M277.174 49.6241C278.69 48.6726 280.101 47.5496 281.38 46.2713C284.734 42.917 287.018 38.6435 287.944 33.991C288.869 29.3385 288.394 24.5161 286.579 20.1336C284.764 15.751 281.69 12.0052 277.745 9.36982C273.801 6.73446 269.164 5.32781 264.421 5.32776L277.174 49.6241Z" fill="white" stroke="#B1D501" stroke-width="10"/>
<path d="M381.24 65.629L381.271 65.6608C383.335 67.7973 384.476 70.6588 384.451 73.629C384.425 76.5992 383.233 79.4404 381.133 81.5407C379.033 83.641 376.192 84.8324 373.221 84.8582C370.251 84.884 367.39 83.7422 365.253 81.6787L365.222 81.6485L365.191 81.6178C362.373 78.7999 359.736 76.7154 357.283 75.2409L352.889 106.009V136.889C352.889 139.893 351.695 142.775 349.571 144.899C347.446 147.023 344.565 148.217 341.56 148.217C338.556 148.217 335.675 147.023 333.55 144.899C331.426 142.775 330.232 139.893 330.232 136.889V116.577H327.576V136.889C327.576 139.893 326.383 142.775 324.258 144.899C322.134 147.023 319.253 148.217 316.248 148.217C313.244 148.217 310.363 147.023 308.238 144.899C306.114 142.775 304.92 139.893 304.92 136.889V106.053L300.52 75.2438C298.076 76.7137 295.449 78.7892 292.643 81.592C291.605 82.657 290.368 83.5074 289.001 84.0944C287.619 84.6881 286.133 85.0006 284.629 85.0137C283.124 85.0268 281.633 84.7401 280.241 84.1705C278.848 83.601 277.584 82.7598 276.52 81.6962C275.456 80.6326 274.615 79.3678 274.046 77.9756C273.476 76.5834 273.19 75.0918 273.203 73.5876C273.216 72.0835 273.528 70.597 274.122 69.215C274.709 67.8479 275.56 66.6101 276.625 65.5721C286.739 55.4677 297.888 49.6241 309.92 49.6241H316.151C313.302 47.8353 310.848 45.4588 308.962 42.6368C306.327 38.6926 304.92 34.0555 304.92 29.3119V29.2409L304.922 29.1699L304.954 28.0562L304.956 27.9805L304.96 27.9049C305.319 21.7977 307.998 16.0586 312.449 11.8617C316.9 7.66488 322.787 5.32749 328.904 5.32776L381.24 65.629ZM381.24 65.629L381.209 65.5977C371.084 55.4792 359.939 49.6241 347.889 49.6241H341.658M381.24 65.629L341.658 49.6241M341.658 49.6241C343.173 48.6726 344.585 47.5496 345.864 46.2713C349.218 42.917 351.502 38.6435 352.428 33.991C353.353 29.3385 352.878 24.5161 351.063 20.1336C349.248 15.751 346.173 12.0052 342.229 9.36982C338.285 6.73446 333.648 5.32781 328.905 5.32776L341.658 49.6241Z" fill="white" stroke="#B1D501" stroke-width="10"/>
</svg>
